STARTFONT 2.1
COMMENT
COMMENT Converted from OpenType font "FreeSerifBoldItalic.ttf" by "otf2bdf 3.0".
COMMENT
FONT -FreeType-FreeSerif-Bold-I-Normal--50-120-300-300-P-282-ISO10646-1
SIZE 12 300 300
FONTBOUNDINGBOX 127 61 -40 -15
STARTPROPERTIES 19
FOUNDRY "FreeType"
FAMILY_NAME "FreeSerif"
WEIGHT_NAME "Bold"
SLANT "I"
SETWIDTH_NAME "Normal"
ADD_STYLE_NAME ""
PIXEL_SIZE 50
POINT_SIZE 120
RESOLUTION_X 300
RESOLUTION_Y 300
SPACING "P"
AVERAGE_WIDTH 282
CHARSET_REGISTRY "ISO10646"
CHARSET_ENCODING "1"
FONT_ASCENT 45
FONT_DESCENT 10
COPYRIGHT "Copyright 2002, 2003, 2005, 2008, 2009, 2010, 2012 GNU Freefont contributors."
_OTF_FONTFILE "FreeSerifBoldItalic.ttf"
_OTF_PSNAME "FreeSerifBoldItalic"
ENDPROPERTIES
CHARS 2644
STARTCHAR 0020
ENCODING 32
SWIDTH 260 0
DWIDTH 13 0
BBX 0 0 0 0
BITMAP
ENDCHAR
STARTCHAR 0021
ENCODING 33
SWIDTH 380 0
DWIDTH 19 0
BBX 16 34 3 0
BITMAP
003E
003F
007F
007F
007F
007F
007E
00FE
00FC
00FC
00F8
00F8
00F0
00F0
01E0
01E0
01C0
01C0
01C0
0180
0180
0300
0300
0100
0000
0000
0000
1C00
7E00
FF00
FF00
FF00
FF00
7E00
ENDCHAR
STARTCHAR 0022
ENCODING 34
SWIDTH 560 0
DWIDTH 28 0
BBX 20 14 7 20
BITMAP
1C00E0
3E01F0
7E03F0
7E03F0
7E03F0
7C03E0
7C03E0
7803C0
7803C0
700380
F00780
F00780
E00700
E00700
ENDCHAR
STARTCHAR 0023
ENCODING 35
SWIDTH 500 0
DWIDTH 25 0
BBX 29 35 -2 0
BITMAP
0001E0F0
0003C0F0
0003C0E0
0003C1E0
000781E0
000783C0
000F03C0
000F0380
000E0780
001E0780
07FFFFF8
07FFFFF0
07FFFFF0
07FFFFF0
00781E00
00783C00
00F03C00
00F07800
01E07800
01E07000
7FFFFF00
7FFFFF00
7FFFFF00
FFFFFF00
0783C000
0703C000
0F03C000
0F078000
1E078000
1E070000
1E0F0000
3C0F0000
3C1E0000
781E0000
781E0000
ENDCHAR
STARTCHAR 0024
ENCODING 36
SWIDTH 500 0
DWIDTH 25 0
BBX 26 42 -1 -5
BITMAP
00003000
00007000
00006000
00006000
001FF800
007FFE00
00F0CF80
01E0C3C0
03C1C3C0
03C1C1C0
07C18180
07C38180
07E38180
07E30100
07F30000
07FF0000
03FF0000
01FF8000
01FFC000
007FE000
003FF000
001FF800
001FF800
001FFC00
0019FC00
0018FC00
2038FC00
60387C00
60307C00
60707C00
70707C00
F0607800
F860F800
7CE0F000
3EE3E000
0FFF8000
01FE0000
01C00000
01800000
01800000
03800000
03800000
ENDCHAR
STARTCHAR 0025
ENCODING 37
SWIDTH 840 0
DWIDTH 42 0
BBX 38 34 2 0
BITMAP
0000001C00
01FE003800
07FF80F800
0FE3FFF000
1FC1FC7000
3F8180E000
3F0180E000
7F0181C000
7E01018000
FE03038000
FE03030000
FC03070000
FC060E0000
FC060C0000
FC0C1C0000
7C18180380
7E38380FF0
3FF0703FF8
1FC0707F18
0000E0FE0C
0000C1FC0C
0001C1FC0C
000183F80C
000383F008
000707F018
000707F018
000E07E018
000C07E030
001C07E030
001807E060
003807E0E0
007003F1C0
006001FF80
00E000FE00
ENDCHAR
STARTCHAR 0026
ENCODING 38
SWIDTH 780 0
DWIDTH 39 0
BBX 35 34 0 0
BITMAP
00007F8000
0001F1C000
0003E0E000
0003E0F000
0007C0F000
0007C0F000
000FC0F000
000FC1F000
000FC1E000
000FC3C000
000FC78000
000FDF0000
000FFC0000
000FF00000
0007E00000
003FE00000
00FFF0FFE0
03E7F03F80
0FC7F01E00
1F03F01C00
3F03F83800
7E03F83800
7E01FC7000
FE01FCE000
FE00FEC000
FE00FF8000
FE007F8000
FF007F8000
FF803FC000
7FC03FE0E0
7FFFFFFFC0
3FFFEFFF80
0FFF83FF00
03FC00FC00
ENDCHAR
STARTCHAR 0027
ENCODING 39
SWIDTH 280 0
DWIDTH 14 0
BBX 7 14 6 20
BITMAP
1C
3E
7E
7E
7E
7C
7C
78
78
70
F0
F0
E0
E0
ENDCHAR
STARTCHAR 0028
ENCODING 40
SWIDTH 340 0
DWIDTH 17 0
BBX 15 43 1 -9
BITMAP
0002
0006
001C
0038
0070
00F0
01E0
03C0
07C0
0780
0F00
1F00
1F00
3E00
3E00
7C00
7C00
7C00
7C00
FC00
F800
F800
F800
F800
F800
F800
F800
F800
F800
F800
7800
7800
7800
3800
3800
3800
1C00
1C00
0C00
0600
0600
0300
0100
ENDCHAR
STARTCHAR 0029
ENCODING 41
SWIDTH 340 0
DWIDTH 17 0
BBX 16 43 -2 -9
BITMAP
0080
00C0
00C0
0060
0060
0030
0038
0038
001C
001C
001C
001E
001E
001E
001E
001E
001F
001F
001F
001F
001F
003F
003E
003E
003E
003E
007E
007C
007C
007C
00F8
00F8
01F0
01E0
03C0
03C0
0780
0F00
0E00
1C00
3800
6000
C000
ENDCHAR
STARTCHAR 002A
ENCODING 42
SWIDTH 500 0
DWIDTH 25 0
BBX 19 21 4 13
BITMAP
00E000
01F000
01F000
01F000
F0E1E0
F8E3E0
F847E0
FC47E0
7E4FC0
01F000
00E000
035800
FE4FC0
FC47E0
F843E0
F8E3E0
70E1C0
01F000
01F000
01F000
00E000
ENDCHAR
STARTCHAR 002B
ENCODING 43
SWIDTH 580 0
DWIDTH 29 0
BBX 24 25 2 0
BITMAP
003C00
003C00
003C00
003C00
003C00
003C00
003C00
003C00
003C00
003C00
FFFFFF
FFFFFF
FFFFFF
FFFFFF
FFFFFF
003C00
003C00
003C00
003C00
003C00
003C00
003C00
003C00
003C00
003C00
ENDCHAR
STARTCHAR 002C
ENCODING 44
SWIDTH 240 0
DWIDTH 12 0
BBX 10 16 -3 -9
BITMAP
0700
0F80
1FC0
1FC0
1FC0
1FC0
0FC0
07C0
0380
0380
0300
0600
0C00
3800
7000
C000
ENDCHAR
STARTCHAR 002D
ENCODING 45
SWIDTH 340 0
DWIDTH 17 0
BBX 13 6 0 8
BITMAP
7FF8
7FF8
7FF8
7FF8
FFF8
FFF0
ENDCHAR
STARTCHAR 002E
ENCODING 46
SWIDTH 240 0
DWIDTH 12 0
BBX 8 7 0 0
BITMAP
3C
7E
FF
FF
FF
FF
7E
ENDCHAR
STARTCHAR 002F
ENCODING 47
SWIDTH 340 0
DWIDTH 17 0
BBX 20 35 0 -1
BITMAP
0000F0
0001E0
0001E0
0003E0
0003C0
0007C0
000780
000F80
000F00
001F00
001E00
003E00
003C00
003C00
007800
007800
00F800
00F000
01F000
01E000
03E000
03C000
07C000
078000
078000
0F0000
0F0000
1F0000
1E0000
3E0000
3C0000
7C0000
780000
F80000
F00000
ENDCHAR
STARTCHAR 0030
ENCODING 48
SWIDTH 500 0
DWIDTH 25 0
BBX 23 34 1 0
BITMAP
001FE0
003C70
00F838
01F03C
01F03C
03E03C
07E03E
0FE03E
0FC07E
1FC07E
1FC07E
3F807E
3F807E
3F80FE
7F00FE
7F00FE
7F00FE
7E01FC
FE01FC
FE01FC
FE01FC
FC03F8
FC03F8
FC03F0
FC07F0
FC07E0
F807E0
780FC0
780FC0
781F80
381F00
1C3E00
0EF800
07E000
ENDCHAR
STARTCHAR 0031
ENCODING 49
SWIDTH 500 0
DWIDTH 25 0
BBX 21 33 0 1
BITMAP
0000F8
001FF0
00FFF0
0007F0
0007F0
0007E0
000FE0
000FE0
000FC0
001FC0
001FC0
001FC0
001F80
003F80
003F80
003F80
003F00
007F00
007F00
007E00
00FE00
00FE00
00FE00
00FC00
01FC00
01FC00
01FC00
03F800
03F800
03F800
07F800
1FFE00
FFFFC0
ENDCHAR
STARTCHAR 0032
ENCODING 50
SWIDTH 500 0
DWIDTH 25 0
BBX 24 33 1 1
BITMAP
001FE0
007FF8
00FFFC
01FFFE
01C3FE
0300FE
0600FF
04007F
00007F
00007F
00007E
00007E
0000FC
0000FC
0000F8
0001F0
0003F0
0003E0
0007C0
000F00
001E00
003C00
007800
00E000
01C00C
03800C
070018
0FFFF8
1FFFF0
3FFFF0
7FFFE0
FFFFE0
FFFFE0
ENDCHAR
STARTCHAR 0033
ENCODING 51
SWIDTH 500 0
DWIDTH 25 0
BBX 23 33 0 1
BITMAP
001FF0
003FF8
007FFC
00E3FE
0180FE
03007E
02007E
00007E
00007E
00007E
0000FC
0001F8
0003E0
000FC0
007FE0
01FFF0
003FF0
000FF8
0007F8
0003F8
0001F8
0001F8
0001F8
0001F8
0001F8
0001F0
0001F0
0003E0
7C03C0
FC0780
FE0F00
FFFE00
3FF000
ENDCHAR
STARTCHAR 0034
ENCODING 52
SWIDTH 500 0
DWIDTH 25 0
BBX 25 34 1 0
BITMAP
00000380
00000780
00000F80
00001F00
00003F00
00007F00
0000FF00
0001FE00
0003FE00
0006FE00
000CFC00
0018FC00
0031FC00
0061FC00
00C1F800
0181F800
0303F800
0603F000
1C03F000
3807F000
7007F000
7FFFFE00
FFFFFC00
FFFFFC00
FFFFFC00
FFFFFC00
001FC000
001FC000
001F8000
001F8000
003F8000
003F8000
003F0000
003F0000
ENDCHAR
STARTCHAR 0035
ENCODING 53
SWIDTH 500 0
DWIDTH 25 0
BBX 25 33 0 0
BITMAP
001FFF80
003FFF80
003FFF00
007FFF00
007FFF00
00C00000
00C00000
01C00000
01800000
01C00000
03FC0000
03FF0000
07FFC000
07FFE000
0FFFE000
003FF000
000FF800
0007F800
0003F800
0001F800
0001F800
0000F800
0000F800
0000F800
0000F800
0000F000
0001F000
0001E000
7C03C000
FC038000
FE0F0000
7FFE0000
3FF80000
ENDCHAR
STARTCHAR 0036
ENCODING 54
SWIDTH 500 0
DWIDTH 25 0
BBX 24 34 1 0
BITMAP
00000F
0000FC
0003F0
000FE0
001F80
007F00
00FE00
01FC00
03F800
07F000
0FF000
0FE000
1FFF80
1FFFC0
3FC3E0
3F81F0
7F81F8
7F01F8
7F01F8
FE01F8
FE01F8
FE03F8
FC03F8
FC03F8
FC03F8
FC07F0
FC07F0
FC07E0
7C0FE0
7C0FC0
3C1F80
1C1F00
0FFE00
03F000
ENDCHAR
STARTCHAR 0037
ENCODING 55
SWIDTH 500 0
DWIDTH 25 0
BBX 23 33 4 0
BITMAP
0FFFFE
1FFFFC
1FFFFC
1FFFF8
3FFFF8
3FFFF0
7000F0
6001E0
C003C0
0003C0
000780
000780
000F00
001E00
001E00
003C00
003C00
007800
00F800
00F000
01E000
01E000
03C000
07C000
078000
0F8000
0F0000
1E0000
3E0000
3C0000
7C0000
F80000
F80000
ENDCHAR
STARTCHAR 0038
ENCODING 56
SWIDTH 500 0
DWIDTH 25 0
BBX 24 33 1 1
BITMAP
003FE0
00F8F8
01F03C
03E03E
03E01E
07E01F
07E01F
07E01F
07E01E
07F03E
07F03C
07F878
03FCF0
01FFC0
01FF00
00FF80
00FFC0
03FFE0
0F1FE0
1E0FF0
3C07F0
7C03F0
F803F8
F801F8
F801F8
F801F0
F801F0
F801F0
7803E0
7803E0
3C07C0
1E0F00
07FE00
ENDCHAR
STARTCHAR 0039
ENCODING 57
SWIDTH 500 0
DWIDTH 25 0
BBX 25 33 0 1
BITMAP
001FF000
007E3800
00FC1C00
01F81E00
03F01F00
07F01F00
0FE01F00
0FE01F00
0FC03F80
1FC03F80
1FC03F80
1FC03F80
1F807F00
1F807F00
1F807F00
1F80FF00
0F80FE00
0F80FE00
07C1FE00
03FFFC00
01FFF800
0007F800
0007F000
000FE000
001FC000
001FC000
003F0000
007E0000
01FC0000
03F00000
0FC00000
3F000000
F8000000
ENDCHAR
STARTCHAR 003A
ENCODING 58
SWIDTH 260 0
DWIDTH 13 0
BBX 13 22 1 1
BITMAP
03F0
07F8
07F8
07F8
07F8
03F0
01E0
0000
0000
0000
0000
0000
0000
0000
0000
3C00
7E00
FF00
FF00
FF00
FF00
7E00
ENDCHAR
STARTCHAR 003B
ENCODING 59
SWIDTH 240 0
DWIDTH 12 0
BBX 15 31 -1 -8
BITMAP
00FC
01FE
01FE
01FE
01FE
00FC
0078
0000
0000
0000
0000
0000
0000
0000
0000
0200
0F80
1FC0
1FC0
1FC0
1FC0
0FC0
07C0
03C0
0380
0300
0700
0E00
3800
7000
C000
ENDCHAR
STARTCHAR 003C
ENCODING 60
SWIDTH 560 0
DWIDTH 28 0
BBX 25 26 2 0
BITMAP
00000180
00000F80
00003F80
0000FF80
0003FF80
001FFC00
007FF000
01FFC000
0FFE0000
3FF80000
FFE00000
FF800000
FC000000
FE000000
FFC00000
7FF00000
1FFC0000
03FF8000
00FFE000
003FF800
000FFE00
0001FF80
00007F80
00001F80
00000380
00000080
ENDCHAR
STARTCHAR 003D
ENCODING 61
SWIDTH 580 0
DWIDTH 29 0
BBX 25 16 3 5
BITMAP
FFFFFF80
FFFFFF80
FFFFFF80
FFFFFF80
FFFFFF80
00000000
00000000
00000000
00000000
00000000
00000000
FFFFFF80
FFFFFF80
FFFFFF80
FFFFFF80
FFFFFF80
ENDCHAR
STARTCHAR 003E
ENCODING 62
SWIDTH 560 0
DWIDTH 28 0
BBX 25 26 3 0
BITMAP
C0000000
F8000000
FE000000
FF800000
FFE00000
1FFC0000
07FF0000
01FFC000
003FF800
000FFE00
0003FF80
0000FF80
00001F80
00003F80
0001FF80
0007FF00
001FFC00
00FFE000
03FF8000
0FFE0000
3FF80000
FFC00000
FF000000
FC000000
E0000000
80000000
ENDCHAR
STARTCHAR 003F
ENCODING 63
SWIDTH 500 0
DWIDTH 25 0
BBX 19 34 4 0
BITMAP
01FC00
07FF00
0E0FC0
1E07C0
3E07E0
3E07E0
3F07E0
3F07E0
1E0FE0
0C0FE0
000FE0
001FC0
001F80
003F00
007E00
00F800
00F000
01E000
038000
030000
030000
060000
060000
000000
000000
000000
000000
3C0000
7E0000
FF0000
FF0000
FF0000
FF0000
7E0000
ENDCHAR
STARTCHAR 0040
ENCODING 64
SWIDTH 840 0
DWIDTH 42 0
BBX 36 35 3 -1
BITMAP
0007FF8000
001FFFE000
007E01F800
01F8003C00
03E0001E00
07C0000700
0F80000380
1F000401C0
3E003F79C0
3E007978E0
7C00F0F8E0
7C01E0F060
7C03E0F060
F807C1F070
F807C1E070
F80F81E070
F80F81E060
F81F03C060
F81F03C060
F81F07C0E0
F81F07C0C0
F81F0FC1C0
7C1F178180
7C1FF78380
3C0FE7C700
3E0783FE00
1F0001F800
1F00000000
0F80000000
07E0000000
03F0000400
00FC003C00
007FFFF800
001FFFE000
0003FF0000
ENDCHAR
STARTCHAR 0041
ENCODING 65
SWIDTH 700 0
DWIDTH 35 0
BBX 33 34 0 0
BITMAP
0000010000
0000030000
0000070000
0000078000
00000F8000
00001F8000
00001F8000
00003F8000
00003F8000
00007FC000
0000DFC000
0000DFC000
00019FC000
00039FC000
00031FC000
00060FE000
000E0FE000
000C0FE000
001C0FE000
00380FE000
00300FE000
007007F000
00FFFFF000
00FFFFF000
01C007F000
018007F000
038007F000
070007F800
070003F800
0E0003F800
1E0003F800
3E0007FC00
FF801FFF00
FFC03FFF80
ENDCHAR
STARTCHAR 0042
ENCODING 66
SWIDTH 640 0
DWIDTH 32 0
BBX 33 33 0 0
BITMAP
01FFFFC000
00FFFFF800
003FC1FE00
001FC0FF00
003FC07F80
003F807F80
003F807F80
003F807F80
007F807F80
007F007F80
007F00FF00
00FF00FE00
00FF01FC00
00FE07F000
00FFFFC000
01FFFF0000
01FC1FC000
01FC07F000
01FC07F800
03FC03F800
03F803FC00
03F803FC00
03F803FC00
07F803FC00
07F003FC00
07F007FC00
0FF007F800
0FF00FF800
0FE00FF000
1FE01FE000
1FE07FC000
7FFFFF0000
FFFFF00000
ENDCHAR
STARTCHAR 0043
ENCODING 67
SWIDTH 620 0
DWIDTH 31 0
BBX 32 35 2 -1
BITMAP
0000FF83
0007FFFF
001FE07F
007F803E
00FF001E
01FE001E
03FC000E
07F8000E
0FF0000C
0FF0000C
1FE0000C
1FE0000C
3FC00000
3FC00000
7FC00000
7F800000
7F800000
FF800000
FF800000
FF000000
FF000000
FF000000
FF000000
FF000000
FF000000
FF000000
7F000000
7F800060
7F8000C0
3FC001C0
1FC00380
0FF00F00
07FFFC00
01FFF800
007FC000
ENDCHAR
STARTCHAR 0044
ENCODING 68
SWIDTH 720 0
DWIDTH 36 0
BBX 37 33 0 0
BITMAP
01FFFFE000
00FFFFFC00
001FC07F00
001FC01F80
003FC01FC0
003F800FE0
003F800FE0
003F8007F0
007F8007F0
007F0007F8
007F0007F8
00FF0007F8
00FF0007F8
00FE0007F8
00FE0007F8
01FE0007F8
01FC000FF8
01FC000FF8
01FC000FF0
03FC000FF0
03F8001FF0
03F8001FE0
03F8003FE0
07F8003FC0
07F0007F80
07F0007F80
0FF000FF00
0FF001FE00
0FE003F800
1FE007F000
1FE01FC000
7FFFFF0000
FFFFF00000
ENDCHAR
STARTCHAR 0045
ENCODING 69
SWIDTH 620 0
DWIDTH 31 0
BBX 34 33 0 0
BITMAP
01FFFFFFC0
00FFFFFFC0
003FE00FC0
001FC007C0
003FC00380
003FC00180
003F800180
003F800180
007F800180
007F004000
007F00C000
007F00C000
00FF01C000
00FE03C000
00FFFF8000
01FFFF8000
01FE1F8000
01FC078000
01FC030000
03FC030000
03F8030000
03F8030000
03F8030000
07F8000200
07F0000600
07F0000C00
0FF0001C00
0FF0003C00
0FE0007800
0FE001F800
1FE007F800
7FFFFFF000
FFFFFFF000
ENDCHAR
STARTCHAR 0046
ENCODING 70
SWIDTH 600 0
DWIDTH 30 0
BBX 33 33 0 0
BITMAP
01FFFFFF80
00FFFFFF80
001FE01F80
001FC00F80
003FC00700
003FC00300
003F800300
003F800300
007F800300
007F004000
007F00C000
007F00C000
00FF01C000
00FE038000
00FFFF8000
01FFFF8000
01FE1F0000
01FC0F0000
01FC070000
03FC060000
03F8060000
03F8060000
03F8060000
07F8000000
07F0000000
07F0000000
0FF0000000
0FF0000000
0FE0000000
0FE0000000
1FE0000000
7FF8000000
FFFE000000
ENDCHAR
STARTCHAR 0047
ENCODING 71
SWIDTH 700 0
DWIDTH 35 0
BBX 34 35 2 -1
BITMAP
00007FC080
0007FFFF80
001FE03F80
003F801F80
00FF000F00
01FE000F00
03FC000F00
07F8000600
07F0000600
0FF0000600
1FE0000600
1FE0000000
3FC0000000
3FC0000000
7FC0000000
7F80000000
7F80000000
FF80000000
FF800FFFC0
FF0003FF80
FF0000FE00
FF0000FE00
FF0001FE00
FF0001FC00
FF0001FC00
FF0001FC00
7F0003F800
7F0003F800
3F8003F800
3F8003F800
1FC007F000
0FE007F000
03F00FE000
01FFFF8000
003FF00000
ENDCHAR
STARTCHAR 0048
ENCODING 72
SWIDTH 760 0
DWIDTH 38 0
BBX 41 33 0 0
BITMAP
01FFFE3FFF80
00FFF81FFF00
001FE003FC00
001FC003FC00
003FC003F800
003FC007F800
003F8007F800
003F8007F000
007F8007F000
007F000FF000
007F000FE000
007F000FE000
00FF000FE000
00FE001FE000
00FE001FC000
01FFFFFFC000
01FFFFFFC000
01FC003FC000
01FC003F8000
03FC003F8000
03F8007F8000
03F8007F0000
03F8007F0000
07F8007F0000
07F000FF0000
07F000FE0000
0FF000FE0000
0FF001FE0000
0FE001FE0000
0FE001FC0000
1FE003FE0000
7FF81FFF0000
FFFE3FFFC000
ENDCHAR
STARTCHAR 0049
ENCODING 73
SWIDTH 380 0
DWIDTH 19 0
BBX 22 33 0 0
BITMAP
01FFFC
00FFF8
001FE0
001FC0
003FC0
003F80
003F80
003F80
007F80
007F00
007F00
007F00
00FF00
00FE00
00FE00
01FE00
01FC00
01FC00
01FC00
03FC00
03F800
03F800
03F800
07F800
07F000
07F000
0FF000
0FE000
0FE000
0FE000
1FE000
7FF800
FFFE00
ENDCHAR
STARTCHAR 004A
ENCODING 74
SWIDTH 500 0
DWIDTH 25 0
BBX 29 38 0 -5
BITMAP
0003FFF8
0001FFF0
00007F80
00007F80
00007F00
00007F00
00007F00
0000FF00
0000FE00
0000FE00
0001FE00
0001FE00
0001FC00
0001FC00
0003FC00
0003FC00
0003F800
0003F800
0007F800
0007F000
0007F000
0007F000
000FF000
000FE000
000FE000
000FE000
001FE000
001FC000
001FC000
003FC000
303F8000
7C3F8000
FC3F8000
FC7F0000
FC7E0000
78FC0000
3FF80000
0FE00000
ENDCHAR
STARTCHAR 004B
ENCODING 75
SWIDTH 660 0
DWIDTH 33 0
BBX 36 33 0 0
BITMAP
01FFFC3FF0
00FFF81FE0
001FE00F80
001FC00F00
003FC01E00
003F803800
003F807000
003F80E000
007F81C000
007F038000
007F070000
007F0E0000
00FF1C0000
00FE780000
00FEF80000
01FFFC0000
01FFFC0000
01FDFE0000
01FCFE0000
03FCFF0000
03F87F0000
03F87F0000
03F83F8000
07F83F8000
07F01FC000
07F01FC000
0FF01FE000
0FF00FE000
0FE00FF000
1FE007F000
1FE007F800
7FF81FFE00
FFFC3FFF00
ENDCHAR
STARTCHAR 004C
ENCODING 76
SWIDTH 600 0
DWIDTH 30 0
BBX 30 33 0 0
BITMAP
01FFFE00
00FFF800
001FE000
001FC000
003FC000
003F8000
003F8000
003F8000
007F8000
007F0000
007F0000
007F0000
00FE0000
00FE0000
00FE0000
01FE0000
01FC0000
01FC0000
01FC0000
03FC0000
03F80000
03F80000
03F80000
07F80004
07F0000C
07F0001C
0FF00018
0FE00038
0FE000F8
1FE001F0
1FE00FF0
7FFFFFF0
FFFFFFE0
ENDCHAR
STARTCHAR 004D
ENCODING 77
SWIDTH 880 0
DWIDTH 44 0
BBX 47 34 0 -1
BITMAP
01FFE0000FFE
007FE0000FFC
001FE0001FF0
001FE0003FF0
001FE0003FE0
003FE0007FE0
003FE000FFE0
0027E000DFC0
0027F001DFC0
0067F0039FC0
0067F0033FC0
0047F0073F80
00C7F00E3F80
00C7F00C3F80
00C7F01C7F00
0087F0187F00
0183F8307F00
0183F870FF00
0103F860FE00
0303F8C0FE00
0303F9C0FE00
0303F981FE00
0603FB81FC00
0603FF01FC00
0601FE01FC00
0601FE03F800
0C01FC03F800
0C01F803F800
0C01F807F800
1C01F007F800
3E01E00FF800
7F81E03FFC00
FFC0C07FFF00
000080000000
ENDCHAR
STARTCHAR 004E
ENCODING 78
SWIDTH 700 0
DWIDTH 35 0
BBX 39 34 0 -1
BITMAP
01FF800FFE
00FF8007FC
003FC000F0
001FC000E0
001FE000E0
003FE000E0
003FF000C0
0037F000C0
0027F801C0
0067F80180
0063FC0180
0043FC0180
00C1FE0380
00C1FE0300
00C0FF0300
0080FF0300
01807F0600
01807F8600
01003F8600
03003FCE00
03001FCC00
03001FEC00
06000FEC00
06000FF800
060007F800
060007F800
0C0003F800
0C0003F000
0C0003F000
1C0001F000
1E0001E000
7F8000E000
FFC000E000
0000006000
ENDCHAR
STARTCHAR 004F
ENCODING 79
SWIDTH 680 0
DWIDTH 34 0
BBX 33 35 2 -1
BITMAP
00007F8000
0003FFE000
000FC0F800
001F007C00
007E007E00
00FC003F00
01FC003F00
03F8003F80
03F0003F80
07F0003F80
0FE0003F80
0FE0003F80
1FC0003F80
3FC0007F80
3FC0007F80
3F80007F80
7F80007F80
7F8000FF00
7F8000FF00
FF0000FF00
FF0001FE00
FF0001FE00
FF0001FC00
FF0003FC00
FE0003F800
FE0007F000
FE0007F000
7E000FE000
7E000FC000
3E001F8000
3F003F0000
1F007E0000
0F81F80000
03FFE00000
00FF000000
ENDCHAR
STARTCHAR 0050
ENCODING 80
SWIDTH 600 0
DWIDTH 30 0
BBX 33 33 0 0
BITMAP
01FFFFE000
00FFFFF800
001FC1FE00
001FC0FF00
003FC07F00
003F807F80
003F807F80
003F807F80
007F807F80
007F007F80
007F00FF80
007F00FF00
00FE01FF00
00FE01FE00
00FE03FC00
01FE0FF800
01FFFFC000
01FFFE0000
01FC000000
03FC000000
03F8000000
03F8000000
03F8000000
07F0000000
07F0000000
07F0000000
0FF0000000
0FE0000000
0FE0000000
0FE0000000
1FE0000000
7FF8000000
FFFE000000
ENDCHAR
STARTCHAR 0051
ENCODING 81
SWIDTH 680 0
DWIDTH 34 0
BBX 33 44 2 -10
BITMAP
00007F8000
0003FFE000
000FC0F800
001F007C00
007E007E00
00FC003F00
01FC003F00
03F8003F80
07F0003F80
07F0003F80
0FE0003F80
1FE0003F80
1FC0007F80
3FC0007F80
3FC0007F80
7F80007F80
7F8000FF80
7F8000FF00
7F8000FF00
FF0000FF00
FF0001FE00
FF0001FE00
FF0003FC00
FE0003FC00
FE0003F800
FE0007F000
FE000FE000
7E000FE000
7E001FC000
3F003F8000
1F007E0000
0F80FC0000
07E3F00000
01FFC00000
0060000000
00C0000000
0380000600
07F8000E00
0FFFC01C00
1FFFFFF800
3FFFFFF000
FFFFFFE000
C01FFF8000
0001FE0000
ENDCHAR
STARTCHAR 0052
ENCODING 82
SWIDTH 660 0
DWIDTH 33 0
BBX 33 33 0 0
BITMAP
01FFFFC000
00FFFFF800
001FE1FE00
001FC0FF00
003FC07F80
003FC07F80
003F807F80
003F807F80
007F807F80
007F807F80
007F00FF00
007F00FF00
00FF01FE00
00FF03FC00
00FE07F800
01FFFFE000
01FFFE0000
01FCFF0000
01FC7F0000
03FC7F8000
03FC7F8000
03F83F8000
03F83FC000
07F83FC000
07F81FC000
07F01FE000
0FF01FE000
0FF00FE000
0FF00FF000
0FE00FF000
1FF007F800
7FFC07FE00
FFFE07FF00
ENDCHAR
STARTCHAR 0053
ENCODING 83
SWIDTH 500 0
DWIDTH 25 0
BBX 26 35 0 -1
BITMAP
000FC040
007FFDC0
00F81FC0
01F007C0
03F007C0
03E00380
07E00380
07E00180
07E00180
07F00180
07F00000
07F80000
03FC0000
03FF0000
01FF8000
01FFC000
00FFE000
007FF000
003FF800
000FFC00
0007FC00
0003FC00
0001FE00
0000FE00
2000FE00
30007E00
30007E00
70007E00
70007E00
78007C00
7800FC00
7C01F800
7E03F000
E7FFC000
C0FF0000
ENDCHAR
STARTCHAR 0054
ENCODING 84
SWIDTH 600 0
DWIDTH 30 0
BBX 28 33 5 0
BITMAP
3FFFFFF0
3FFFFFF0
7F0FE1F0
7C0FE0F0
701FE070
601FC070
E01FC030
C01FC030
803FC020
003F8000
003F8000
007F8000
007F0000
007F0000
007F0000
00FF0000
00FE0000
00FE0000
01FE0000
01FC0000
01FC0000
01FC0000
03FC0000
03F80000
03F80000
03F80000
07F80000
07F00000
07F00000
0FF00000
0FF00000
3FFE0000
FFFF0000
ENDCHAR
STARTCHAR 0055
ENCODING 85
SWIDTH 720 0
DWIDTH 36 0
BBX 34 34 5 -1
BITMAP
3FFFC0FFC0
1FFF007F80
07FC001E00
03F8000E00
07F8000C00
07F8001C00
07F0001800
07F0001800
0FF0001800
0FE0001000
0FE0003000
1FE0003000
1FE0003000
1FC0006000
1FC0006000
3FC0006000
3F80004000
3F8000C000
7F8000C000
7F8000C000
7F00018000
7F00018000
FF00018000
FE00030000
FE00030000
FE00030000
FE00060000
FE000E0000
FE000C0000
7F00180000
3F80780000
1FFFE00000
0FFFC00000
01FE000000
ENDCHAR
STARTCHAR 0056
ENCODING 86
SWIDTH 700 0
DWIDTH 35 0
BBX 33 34 6 -1
BITMAP
FFFF00FF80
7FFC007F80
1FF0001E00
0FF0001C00
0FF0001C00
0FF0003800
07F0003000
07F0007000
07F800E000
07F800C000
07F801C000
07F8038000
07F8030000
03F8070000
03F8060000
03F80C0000
03FC1C0000
03FC180000
03FC380000
01FC700000
01FC600000
01FCE00000
01FDC00000
01FD800000
01FF800000
01FF000000
00FE000000
00FE000000
00FC000000
00F8000000
00F8000000
00F0000000
00E0000000
0060000000
ENDCHAR
STARTCHAR 0057
ENCODING 87
SWIDTH 920 0
DWIDTH 46 0
BBX 44 34 6 -1
BITMAP
FFFE3FFE1FF0
3FF81FF807E0
0FF00FF003C0
0FF007F00380
0FF007F00300
0FF007F00700
0FF007F00600
07F00FF00E00
07F00FF00C00
07F00FF01C00
07F01FF01800
07F017F01800
07F833F83000
07F823F83000
03F863F86000
03F843F86000
03F8C3F8C000
03F883F8C000
03F983F98000
03F903F98000
03FB01FB8000
03FF01FF0000
01FE01FF0000
01FE01FE0000
01FC01FE0000
01FC01FC0000
01F801FC0000
01F801F80000
01F000F80000
00F000F00000
00E000F00000
00E000E00000
00C000E00000
00C000C00000
ENDCHAR
STARTCHAR 0058
ENCODING 88
SWIDTH 700 0
DWIDTH 35 0
BBX 36 33 0 0
BITMAP
03FFF83FF0
01FFF01FE0
003FC00F80
001FC00F00
001FC01E00
001FC01C00
000FE03800
000FE07000
000FE0E000
000FF1C000
0007F38000
0007F70000
0007FE0000
0003FC0000
0003F80000
0003F80000
0001FC0000
0001FC0000
0003FC0000
0007FE0000
000EFE0000
001CFE0000
0038FF0000
00707F0000
00607F0000
00C07F0000
01C03F8000
03803F8000
07003FC000
0F003FC000
3F003FE000
7FC0FFFC00
FFE1FFFC00
ENDCHAR
STARTCHAR 0059
ENCODING 89
SWIDTH 640 0
DWIDTH 32 0
BBX 30 33 6 0
BITMAP
FFFC1FFC
7FF807F8
1FE003E0
0FE001C0
0FE00380
07F00300
07F00700
07F00E00
03F80C00
03F81C00
03F83800
01FC3000
01FC6000
01FCE000
00FDC000
00FF8000
00FF0000
00FF0000
00FE0000
00FE0000
00FE0000
01FE0000
01FC0000
01FC0000
03FC0000
03F80000
03F80000
03F80000
07F80000
07F80000
0FF80000
3FFE0000
FFFF0000
ENDCHAR
STARTCHAR 005A
ENCODING 90
SWIDTH 560 0
DWIDTH 28 0
BBX 30 33 0 0
BITMAP
01FFFFFC
03FFFFFC
03F807FC
03E007F8
07C00FF0
07001FE0
06003FE0
0E003FC0
0C007F80
0000FF00
0001FF00
0001FE00
0003FC00
0007F800
0007F800
000FF000
001FE000
003FE000
003FC000
007F8000
00FF0000
01FF0000
01FE0000
03FC0010
07F80030
07F80070
0FF000E0
1FE001E0
3FE003E0
3FC007C0
7F803FC0
FFFFFFC0
FFFFFFC0
ENDCHAR
STARTCHAR 005B
ENCODING 91
SWIDTH 340 0
DWIDTH 17 0
BBX 20 42 -2 -8
BITMAP
003FF0
003FF0
003F00
007C00
007C00
007C00
007800
00F800
00F800
00F800
00F800
01F000
01F000
01F000
01F000
03E000
03E000
03E000
03E000
03C000
07C000
07C000
07C000
078000
0F8000
0F8000
0F8000
0F8000
1F0000
1F0000
1F0000
1F0000
3E0000
3E0000
3E0000
3E0000
7C0000
7C0000
7C0000
7C0000
7FE000
FFE000
ENDCHAR
STARTCHAR 005C
ENCODING 92
SWIDTH 400 0
DWIDTH 20 0
BBX 14 35 6 -1
BITMAP
F000
F800
7800
7800
7800
3C00
3C00
3C00
3E00
1E00
1E00
1E00
0F00
0F00
0F00
0F80
0780
0780
0780
07C0
03C0
03C0
03C0
01E0
01E0
01E0
01F0
00F0
00F0
00F0
0078
0078
0078
007C
003C
ENDCHAR
STARTCHAR 005D
ENCODING 93
SWIDTH 340 0
DWIDTH 17 0
BBX 20 42 -3 -8
BITMAP
007FF0
007FF0
0003F0
0003E0
0003E0
0003E0
0003E0
0007C0
0007C0
0007C0
0007C0
0007C0
000F80
000F80
000F80
000F80
001F00
001F00
001F00
001F00
003E00
003E00
003E00
003E00
007C00
007C00
007C00
007C00
007800
00F800
00F800
00F800
00F000
01F000
01F000
01F000
01E000
03E000
03E000
03E000
FFE000
FFC000
ENDCHAR
STARTCHAR 005E
ENCODING 94
SWIDTH 560 0
DWIDTH 28 0
BBX 21 18 4 15
BITMAP
00F800
01F800
01F800
01FC00
03FC00
03DE00
079E00
078F00
0F0F00
0F0780
1E0780
1E07C0
3E03C0
3C03E0
7C01E0
7801F0
F800F0
F000F8
ENDCHAR
STARTCHAR 005F
ENCODING 95
SWIDTH 500 0
DWIDTH 25 0
BBX 25 4 0 -8
BITMAP
FFFFFF80
FFFFFF80
FFFFFF80
FFFFFF80
ENDCHAR
STARTCHAR 0060
ENCODING 96
SWIDTH 340 0
DWIDTH 17 0
BBX 10 9 4 26
BITMAP
7000
F800
FC00
FC00
3E00
1F00
0780
0380
00C0
ENDCHAR
STARTCHAR 0061
ENCODING 97
SWIDTH 500 0
DWIDTH 25 0
BBX 24 23 1 0
BITMAP
003F3E
00FFBE
01F0FE
03E0FC
07E0FC
0FC0FC
1F80F8
1F80F8
3F01F8
3F01F0
7E01F0
7E01F0
FE03F0
FE03E0
FC07E0
FC07E0
FC0FE3
FC1FE6
FE37EC
7FE7F8
7FC7F0
3F83E0
000080
ENDCHAR
STARTCHAR 0062
ENCODING 98
SWIDTH 480 0
DWIDTH 24 0
BBX 23 34 1 1
BITMAP
007E00
0FFE00
03FC00
00FC00
00FC00
01F800
01F800
01F800
01F800
03F000
03F000
03F000
03E3F8
07EFFC
07FFFE
07F8FE
0FE07E
0FE07E
0FC07E
0FC07E
1F807E
1F807E
1F00FC
3F00FC
3F00FC
3F01F8
3E01F0
7E03F0
7E03E0
7E07C0
FC0F80
FC1F00
7E7C00
3FF000
ENDCHAR
STARTCHAR 0063
ENCODING 99
SWIDTH 420 0
DWIDTH 21 0
BBX 20 22 1 1
BITMAP
003FC0
00F9E0
01E1F0
07C3F0
0F83F0
0F83F0
1F01E0
3F0000
3F0000
7E0000
7E0000
FE0000
FE0000
FE0000
FC0000
FC0080
FE0180
FE0300
7F0700
7FFE00
3FFC00
0FF000
ENDCHAR
STARTCHAR 0064
ENCODING 100
SWIDTH 520 0
DWIDTH 26 0
BBX 27 36 1 -1
BITMAP
00000020
000007E0
0000FFE0
00003FC0
00000FC0
00001FC0
00001F80
00001F80
00001F80
00003F80
00003F00
00003F00
00003F00
003FFF00
00FFFE00
01F0FE00
03E0FE00
07E0FC00
0FC0FC00
1F80FC00
1F81FC00
3F01F800
3F01F800
7E01F800
7E03F000
7E03F000
FE07F000
FC07E000
FC0FE200
FC0FE200
FC1FE600
FE37EC00
7FE7F800
7FC7F000
3F83E000
04000000
ENDCHAR
STARTCHAR 0065
ENCODING 101
SWIDTH 420 0
DWIDTH 21 0
BBX 20 22 1 1
BITMAP
003FC0
00F3E0
03E1E0
07C1F0
0FC1F0
0F81E0
1F83E0
3F03C0
3F0780
7F1F00
7E7E00
FFF000
FF8000
FE0000
FE0000
FE0180
FE0380
FE0700
7E0E00
7FFC00
3FF800
0FF000
ENDCHAR
STARTCHAR 0066
ENCODING 102
SWIDTH 480 0
DWIDTH 24 0
BBX 31 44 -5 -10
BITMAP
000003FC
00000F9E
00001F1E
00003E1E
00003E1E
00007C0C
00007C00
0000FC00
0000F800
0001F800
0001F800
0001F800
001FFF80
001FFF80
0003F000
0003F000
0007E000
0007E000
0007E000
0007E000
0007E000
000FC000
000FC000
000FC000
000FC000
001F8000
001F8000
001F8000
001F8000
003F0000
003F0000
003F0000
003F0000
003E0000
007E0000
007E0000
007C0000
007C0000
70F80000
F0F80000
F0F00000
F1E00000
73C00000
7F800000
ENDCHAR
STARTCHAR 0067
ENCODING 103
SWIDTH 480 0
DWIDTH 24 0
BBX 27 32 -1 -9
BITMAP
003FF000
00FC7FE0
01F83FE0
03F03FE0
07E03F00
07E03F00
0FC03F00
0FC07F00
0FC07E00
0FC07E00
0FC0FC00
07C1FC00
07C3F800
01FFE000
01FF0000
07000000
0F000000
1F800000
1FF00000
1FFF0000
0FFFE000
07FFF000
0FFFF800
3C1FF800
7803F800
F801F800
F000F800
F000F800
F801F000
7C03E000
3FFF8000
07FC0000
ENDCHAR
STARTCHAR 0068
ENCODING 104
SWIDTH 540 0
DWIDTH 27 0
BBX 25 35 1 0
BITMAP
00060000
00FE0000
07FE0000
01FC0000
00FC0000
00FC0000
00FC0000
01F80000
01F80000
01F80000
01F80000
03F00000
03F00000
03F07E00
03E1FF00
07E3FF00
07E73F00
07EE3F00
0FCC3F00
0FD83F00
0FF07E00
0FE07E00
1FE07E00
1FC0FE00
1FC0FC00
1F80FC00
3F81FC00
3F01F800
3F01F880
7F03F880
7E03F180
7E03F300
7E03FE00
FC03FC00
FC01F800
ENDCHAR
STARTCHAR 0069
ENCODING 105
SWIDTH 300 0
DWIDTH 15 0
BBX 13 34 2 0
BITMAP
00E0
01F0
03F8
03F8
03F8
01F0
00E0
0000
0000
0000
0000
0000
03E0
7FE0
3FC0
0FC0
0FC0
0F80
1F80
1F80
1F80
1F00
3F00
3F00
3F00
3E00
7E00
7E20
7C60
FC40
FDC0
FF80
FF00
7E00
ENDCHAR
STARTCHAR 006A
ENCODING 106
SWIDTH 340 0
DWIDTH 17 0
BBX 24 44 -4 -10
BITMAP
00001C
00003E
00007F
00007F
00007F
00003E
00001C
000000
000000
000000
000000
000000
0007F8
001FF8
0003F8
0003F8
0003F0
0003F0
0003F0
0003F0
0007E0
0007E0
0007E0
0007E0
000FC0
000FC0
000FC0
000FC0
001F80
001F80
001F80
001F00
003F00
003F00
003F00
007E00
007E00
007C00
607C00
F0F800
F0F000
F1F000
7FC000
3F0000
ENDCHAR
STARTCHAR 006B
ENCODING 107
SWIDTH 500 0
DWIDTH 25 0
BBX 25 35 1 0
BITMAP
00060000
00FE0000
07FE0000
01FC0000
00FC0000
00FC0000
00FC0000
00F80000
01F80000
01F80000
01F80000
03F00000
03F00000
03F1FF80
03E0FF00
07E07C00
07E07000
07E0E000
07C1C000
0FC38000
0FC70000
0FDE0000
1FBF0000
1FFF0000
1FFF0000
1F9F0000
3F1F8000
3F1F8000
3F1F8000
3E0F8200
7E0FC600
7E0FCC00
7E07F800
FC07F800
FC03E000
ENDCHAR
STARTCHAR 006C
ENCODING 108
SWIDTH 300 0
DWIDTH 15 0
BBX 14 35 2 0
BITMAP
0004
01FC
0FFC
03F8
01F8
01F8
01F8
01F0
03F0
03F0
03F0
07E0
07E0
07E0
07C0
0FC0
0FC0
0FC0
1F80
1F80
1F80
1F00
3F00
3F00
3F00
7E00
7E00
7E00
7E30
FC20
FC60
FCC0
FF80
FF00
7E00
ENDCHAR
STARTCHAR 006D
ENCODING 109
SWIDTH 760 0
DWIDTH 38 0
BBX 36 22 1 1
BITMAP
0FF0FC0FC0
3FE1FE1FE0
0FE3FE3FE0
07E67E67E0
0FCC7EC7E0
0FD87D87E0
0FF0FD0FE0
0FA0FE0FC0
1FE0FE0FC0
1FC0FC1FC0
1FC1F81F80
3F81F81F80
3F81F83F80
3F03F03F00
3F03F03F00
7F03F03F00
7E07E07E30
7E07E07E20
FE07E07E40
FC0FC07FC0
FC0FC07F80
FC0FC03F00
ENDCHAR
STARTCHAR 006E
ENCODING 110
SWIDTH 520 0
DWIDTH 26 0
BBX 25 22 0 1
BITMAP
07F07E00
1FF1FF00
07F3FF00
07E33F00
07E43F00
07E83F00
0FD83F00
0FD07E00
0FE07E00
0FE07E00
1FC0FC00
1FC0FC00
1F80FC00
1F81F800
3F81F800
3F01F800
3F03F180
7F03F100
7E03F200
7E03FE00
7E03FC00
FC01F000
ENDCHAR
STARTCHAR 006F
ENCODING 111
SWIDTH 480 0
DWIDTH 24 0
BBX 23 22 1 1
BITMAP
003FE0
00F0F8
01E07C
07C07C
0FC07E
0F807E
1F807E
3F00FE
3F00FE
7E00FE
7E00FE
FE00FC
FE01FC
FC01F8
FC01F8
FC03F0
FC03F0
FC07E0
7C07C0
7C0F80
3E1E00
0FF800
ENDCHAR
STARTCHAR 0070
ENCODING 112
SWIDTH 480 0
DWIDTH 24 0
BBX 28 32 -4 -9
BITMAP
007F1FC0
01FF3FE0
007F7FF0
003EC7F0
003F83F0
007F03F0
007F03F0
007E03F0
007E03F0
00FC07F0
00FC07E0
00FC07E0
00F80FE0
01F80FC0
01F80FC0
01F01F80
01F01F00
03F03F00
03F07E00
03F0FC00
03FBF000
07FFE000
07E00000
07C00000
0FC00000
0FC00000
0FC00000
0F800000
1F800000
1F800000
3FC00000
FFF00000
ENDCHAR
STARTCHAR 0071
ENCODING 113
SWIDTH 500 0
DWIDTH 25 0
BBX 23 32 1 -9
BITMAP
003F3E
00FFBE
01F8FE
03F0FE
07E0FC
0FC0FC
1F80FC
1F80F8
3F01F8
3F01F8
7F01F8
7E03F0
FE03F0
FE03F0
FC07E0
FC0FE0
FC0FE0
FC17E0
FE3FC0
7FEFC0
7FCFC0
3F9F80
001F80
001F80
001F80
003F00
003F00
003F00
007F00
007E00
00FF00
07FFE0
ENDCHAR
STARTCHAR 0072
ENCODING 114
SWIDTH 400 0
DWIDTH 20 0
BBX 20 22 1 1
BITMAP
03F1E0
3FE3F0
1FE7F0
07EFF0
0FD9E0
0FD000
0FF000
0FA000
1FC000
1FC000
1FC000
1F8000
3F8000
3F0000
3F0000
7F0000
7E0000
7E0000
7E0000
FC0000
FC0000
FC0000
ENDCHAR
STARTCHAR 0073
ENCODING 115
SWIDTH 360 0
DWIDTH 18 0
BBX 17 22 0 1
BITMAP
03FD80
078F80
0F0780
1F0380
1F0380
1F0180
1F8100
1FC000
0FE000
0FF000
07F000
07F800
03FC00
01FC00
00FE00
407E00
607E00
603E00
E03C00
F03C00
F87800
FFE000
ENDCHAR
STARTCHAR 0074
ENCODING 116
SWIDTH 280 0
DWIDTH 14 0
BBX 14 29 2 0
BITMAP
0038
0030
0070
00F0
01E0
03E0
0FE0
3FFC
3FFC
0FC0
0FC0
0F80
1F80
1F80
1F80
3F00
3F00
3F00
3E00
7E00
7E00
7E00
7C20
FC60
FC40
FCC0
FF80
FF00
7E00
ENDCHAR
STARTCHAR 0075
ENCODING 117
SWIDTH 540 0
DWIDTH 27 0
BBX 23 23 2 0
BITMAP
002000
07E07E
7FC07E
3FC07C
0FC0FC
0F80FC
1F80FC
1F81F8
1F81F8
1F01F8
3F03F0
3F03F0
3E07F0
7E07F0
7E0FE0
7E0FE0
7C1FE0
FC37C2
FC6FC4
FCCFCC
FF8FF8
FF8FF0
7E07E0
ENDCHAR
STARTCHAR 0076
ENCODING 118
SWIDTH 440 0
DWIDTH 22 0
BBX 19 23 3 0
BITMAP
7E03C0
FE07C0
3F07E0
3F07E0
3F03C0
1F01C0
1F01C0
1F0180
1F0380
1F0300
1F0600
1F0E00
1F0C00
1F9800
1FB000
1FE000
1FE000
1FC000
1F8000
1F0000
1E0000
1C0000
180000
ENDCHAR
STARTCHAR 0077
ENCODING 119
SWIDTH 660 0
DWIDTH 33 0
BBX 29 24 4 -1
BITMAP
0000C000
7E00C0F0
FE01C1F8
3E03C1F8
3F03C1F8
3F07C0F0
3F07C070
1F0FC070
1F0FC060
1F1FC0E0
1F37C0C0
1F37E1C0
1F67E180
1F67E300
1FC7E600
1FC7EE00
1F87FC00
1F07F800
1F03F000
1E03E000
1E03C000
1C03C000
18038000
18030000
ENDCHAR
STARTCHAR 0078
ENCODING 120
SWIDTH 480 0
DWIDTH 24 0
BBX 25 22 -1 1
BITMAP
01F81F00
0FF83F80
01F87F80
00FC7F80
00FCC700
00FD8000
007F0000
007F0000
007E0000
007E0000
007E0000
003F0000
003F0000
007F0000
007F0000
00DF0000
01DF8600
739F8400
FF1FD800
FF0FF800
FE0FF000
FC07C000
ENDCHAR
STARTCHAR 0079
ENCODING 121
SWIDTH 440 0
DWIDTH 22 0
BBX 24 33 -3 -10
BITMAP
000004
00780E
07F81F
03FC1F
01FC1F
00FC1F
00FE0F
007E07
007E06
007E06
007E0C
003F0C
003F0C
003F18
003F18
003F30
001F30
001FE0
001FE0
001FC0
001F80
001F80
000F00
000F00
000E00
001C00
001800
003000
006000
7CC000
FF8000
FF0000
FE0000
ENDCHAR
STARTCHAR 007A
ENCODING 122
SWIDTH 420 0
DWIDTH 21 0
BBX 21 26 0 -4
BITMAP
07FFF8
07FFF0
0FFFE0
0FFFC0
0FFF80
080300
180700
100E00
001C00
003800
003000
006000
00C000
01C000
038000
030000
060000
0F0000
1F8000
3FC000
3FE1C0
7FE3E0
E3F3E0
01F1E0
0079C0
001F00
ENDCHAR
STARTCHAR 007B
ENCODING 123
SWIDTH 340 0
DWIDTH 17 0
BBX 20 43 1 -8
BITMAP
0007F0
001F80
003F00
007E00
007C00
00FC00
00F800
00F800
00F800
01F800
01F000
01F000
03F000
03F000
03E000
03E000
07E000
07C000
0FC000
1F8000
7E0000
F00000
3E0000
1F0000
1F0000
1F0000
1F0000
3F0000
3E0000
3E0000
3E0000
7E0000
7C0000
7C0000
7C0000
FC0000
FC0000
F80000
F80000
F80000
7C0000
7E0000
0F8000
ENDCHAR
STARTCHAR 007C
ENCODING 124
SWIDTH 260 0
DWIDTH 13 0
BBX 4 35 6 -1
BITMAP
F0
F0
F0
F0
F0
F0
F0
F0
F0
F0
F0
F0
F0
F0
F0
F0
F0
F0
F0
F0
F0
F0
F0
F0
F0
F0
F0
F0
F0
F0
F0
F0
F0
F0
F0
ENDCHAR
STARTCHAR 007D
ENCODING 125
SWIDTH 340 0
DWIDTH 17 0
BBX 20 43 -6 -8
BITMAP
001FC0
0003E0
0001F0
0001F0
0001F0
0001F0
0001F0
0003F0
0003F0
0003E0
0003E0
0007E0
0007E0
0007C0
0007C0
000FC0
000FC0
000F80
000F80
000F80
0007C0
0001E0
0003F0
000F80
001F00
003E00
003E00
007E00
007C00
007C00
00FC00
00F800
00F800
00F800
01F800
01F000
01F000
03F000
03E000
07E000
0FC000
3F8000
FC0000
ENDCHAR
STARTCHAR 007E
ENCODING 126
SWIDTH 560 0
DWIDTH 28 0
BBX 23 9 3 8
BITMAP
040000
3FC000
7FF018
7FFE3C
FFFFFE
F0FFFC
201FF8
0007F0
000080
ENDCHAR
STARTCHAR 00A0
ENCODING 160
SWIDTH 260 0
DWIDTH 13 0
BBX 0 0 0 0
BITMAP
ENDCHAR
STARTCHAR 00A1
ENCODING 161
SWIDTH 380 0
DWIDTH 19 0
BBX 16 34 0 -10
BITMAP
007E
007F
00FF
00FF
007F
007E
001C
0000
0000
0000
0040
00C0
00C0
00C0
01C0
01C0
0380
0380
0780
0780
0F80
0F80
1F00
1F00
3F00
3F00
7F00
7F00
7F00
FF00
FE00
FE00
7E00
3C00
ENDCHAR
STARTCHAR 00A2
ENCODING 162
SWIDTH 400 0
DWIDTH 20 0
BBX 20 36 1 -8
BITMAP
000060
000060
000040
0000C0
0000C0
000080
003FC0
00F9E0
01E1F0
07C3F0
0FC3F0
0F83F0
1F87E0
3F0600
3F0400
7E0C00
7E0C00
7E1800
FE1800
FE1000
FC3000
FC3000
FC2180
FE6380
FE6700
7F4E00
3FFC00
1FF800
0FE000
018000
018000
010000
030000
030000
060000
060000
ENDCHAR
STARTCHAR 00A3
ENCODING 163
SWIDTH 520 0
DWIDTH 26 0
BBX 27 33 0 1
BITMAP
00003F80
0000F3E0
0001E3E0
0003C3E0
0007C3E0
0007C3E0
000F81C0
000F8000
001F8000
001F8000
003F8000
003F0000
003F0000
003F0000
007F0000
0FFFF800
0FFFF800
1FFFF800
007E0000
007E0000
007E0000
007C0000
00FC0000
00F80000
00F80000
3EF00000
7FF00200
E3F80600
C1FFFE00
C1FFFC00
C1FFFC00
639FF800
7F0FF000
ENDCHAR
STARTCHAR 00A4
ENCODING 164
SWIDTH 560 0
DWIDTH 28 0
BBX 27 27 4 2
BITMAP
30000080
780001C0
FC0003E0
7E3F87E0
3FFFEFC0
1FFFFF80
0FFFFF00
07E0FE00
0FC03E00
0F801F00
1F001F00
1F000F00
1E000F00
1E000F00
1E000F00
1F000F00
1F001F00
0F801F00
0FC03E00
07F0FE00
0FFFFF00
1FFFFF80
3EFFEFC0
7C3F87E0
F80003E0
700001C0
20000080
ENDCHAR
STARTCHAR 00A5
ENCODING 165
SWIDTH 640 0
DWIDTH 32 0
BBX 30 33 6 0
BITMAP
7FFE0FFC
3FFC07F8
0FE001E0
07E001C0
07E00180
07F00180
03F00300
03F80600
03F80600
01F80C00
01FC1800
01FC1000
00FC3000
00FE6000
00FEC000
007E8000
1FFFFF00
3FFFFE00
007F0000
007E0000
00FE0000
00FE0000
7FFFFC00
FFFFFC00
01FC0000
01FC0000
01F80000
03F80000
03F80000
03F80000
07F80000
3FFE0000
7FFF8000
ENDCHAR
STARTCHAR 00A6
ENCODING 166
SWIDTH 220 0
DWIDTH 11 0
BBX 4 35 3 -1
BITMAP
F0
F0
F0
F0
F0
F0
F0
F0
F0
F0
F0
F0
F0
00
00
00
00
00
00
00
00
00
F0
F0
F0
F0
F0
F0
F0
F0
F0
F0
F0
F0
F0
ENDCHAR
STARTCHAR 00A7
ENCODING 167
SWIDTH 500 0
DWIDTH 25 0
BBX 21 41 2 -7
BITMAP
001F80
0070E0
01C070
01C0F8
03C0F8
03C0F8
03C070
03E000
03E000
01F000
01F800
00FC00
00FE00
0FFF00
1C7F00
381F80
780FC0
7807C0
7803E0
7803E0
7C01E0
7E01F0
3E00F0
3F00E0
1F80E0
0FC1C0
07F380
03FF00
03F000
01F800
00FC00
007C00
007E00
703E00
F81E00
F81E00
F81C00
F01C00
703800
387000
0FC000
ENDCHAR
STARTCHAR 00A8
ENCODING 168
SWIDTH 340 0
DWIDTH 17 0
BBX 17 6 3 27
BITMAP
7C0F80
FC1F80
FC1F80
FC1F80
7C0F80
380700
ENDCHAR
STARTCHAR 00A9
ENCODING 169
SWIDTH 740 0
DWIDTH 37 0
BBX 34 35 2 -1
BITMAP
000FF80000
003FFF0000
00FE3F8000
03E003E000
07C000F000
0F00007800
0E00003C00
1C03FC1E00
3C0E0F0F00
383C030700
7078030780
7070010380
70F0010380
E0F00003C0
E1E00001C0
E1E00001C0
E1E00001C0
E1E00001C0
E1E00001C0
E1E00001C0
E1F00001C0
F0F00003C0
70F0008380
7078018380
783C030780
381E070700
3C07FC0F00
1C00001E00
0E00003C00
0F00007800
07C000F000
03E003E000
00FE3FC000
003FFF0000
000FF80000
ENDCHAR
STARTCHAR 00AA
ENCODING 170
SWIDTH 260 0
DWIDTH 13 0
BBX 16 21 3 13
BITMAP
01EF
03BF
071F
0E1E
1E3E
3C3C
3C3C
787C
7878
78F8
78F9
7F7E
3F7C
1C38
0000
0000
7FF8
7FF8
7FF8
FFF0
FFF0
ENDCHAR
STARTCHAR 00AB
ENCODING 171
SWIDTH 500 0
DWIDTH 25 0
BBX 22 19 1 2
BITMAP
000804
00180C
00701C
00F078
01E0F0
07C1E0
0F87C0
1F0F80
7E3F00
FC7F00
FC7E00
7E3F00
3E1F00
1F0F80
0F0780
0703C0
0381C0
0180E0
008060
ENDCHAR
STARTCHAR 00AC
ENCODING 172
SWIDTH 600 0
DWIDTH 30 0
BBX 24 15 3 6
BITMAP
FFFFFF
FFFFFF
FFFFFF
FFFFFF
FFFFFF
00000F
00000F
00000F
00000F
00000F
00000F
00000F
00000F
00000F
00000F
ENDCHAR
STARTCHAR 00AD
ENCODING 173
SWIDTH 340 0
DWIDTH 17 0
BBX 13 6 0 8
BITMAP
7FF8
7FF8
7FF8
7FF8
FFF8
FFF0
ENDCHAR
STARTCHAR 00AE
ENCODING 174
SWIDTH 740 0
DWIDTH 37 0
BBX 34 35 2 -1
BITMAP
0007F80000
003FFF0000
00FE3FC000
03E003E000
07C000F800
0F00007C00
0E00001C00
1C00001E00
3C7FF80F00
381E1C0700
781E0E0780
701E0F0380
701E0F0380
E01E0F01C0
E01E0E01C0
E01E1E01C0
E01E3C01C0
E01FF001C0
E01E7001C0
E01E3801C0
E01E3C01C0
F01E1C03C0
701E1E0380
701E0F0380
781E0F8780
381E078700
3C7F83CF00
1E00001E00
0E00003C00
0700007800
03C000F000
01E003E000
00FE3FC000
003FFF0000
0007F80000
ENDCHAR
STARTCHAR 00AF
ENCODING 175
SWIDTH 340 0
DWIDTH 17 0
BBX 17 4 3 28
BITMAP
FFFF80
FFFF00
FFFF00
FFFF00
ENDCHAR
STARTCHAR 00B0
ENCODING 176
SWIDTH 400 0
DWIDTH 20 0
BBX 14 13 9 21
BITMAP
1FE0
3CF0
7038
6018
C00C
C00C
C00C
C00C
E01C
6018
3038
1FF0
0FC0
ENDCHAR
STARTCHAR 00B1
ENCODING 177
SWIDTH 580 0
DWIDTH 29 0
BBX 24 29 2 0
BITMAP
003C00
003C00
003C00
003C00
003C00
003C00
003C00
003C00
003C00
003C00
FFFFFF
FFFFFF
FFFFFF
FFFFFF
FFFFFF
003C00
003C00
003C00
003C00
003C00
003C00
003C00
000000
000000
FFFFFF
FFFFFF
FFFFFF
FFFFFF
FFFFFF
ENDCHAR
STARTCHAR 00B2
ENCODING 178
SWIDTH 300 0
DWIDTH 15 0
BBX 16 21 7 19
BITMAP
01F8
03FC
07FE
0C3E
181F
001F
001E
001E
003E
003C
0078
0070
00E0
01C0
0300
0604
0C04
187C
3FF8
7FF8
FFF0
ENDCHAR
STARTCHAR 00B3
ENCODING 179
SWIDTH 300 0
DWIDTH 15 0
BBX 15 22 6 19
BITMAP
0070
01FC
07FE
063E
081E
001E
001E
003C
0078
01F0
07F8
01FC
007C
003C
003C
003C
003C
0038
2078
F870
FFC0
3F00
ENDCHAR
STARTCHAR 00B4
ENCODING 180
SWIDTH 340 0
DWIDTH 17 0
BBX 12 9 7 26
BITMAP
00E0
01F0
03F0
07F0
0FC0
1F80
3E00
7800
E000
ENDCHAR
STARTCHAR 00B5
ENCODING 181
SWIDTH 580 0
DWIDTH 29 0
BBX 29 32 -2 -10
BITMAP
007F03F8
007E03F8
00FE03F0
00FE07F0
00FE07F0
00FC07E0
01FC0FE0
01FC0FE0
01F80FC0
03F81FC0
03F81FC0
03F83F80
03F03F80
07F07F80
07F07F80
07E0FF10
0FE1FF30
0FE3FF20
0FFF7FE0
1FFE7FC0
1FFC7F80
1E783F00
3E003800
3E000000
7E000000
7E000000
FC000000
FC000000
FC000000
FC000000
FC000000
78000000
ENDCHAR
STARTCHAR 00B6
ENCODING 182
SWIDTH 500 0
DWIDTH 25 0
BBX 31 43 0 -10
BITMAP
000FFFFE
007FE3F8
00F1E3E0
01E3E3C0
03C3E7C0
0783C7C0
0783C780
0F07C780
0F07CF80
0F078F00
1E078F00
1E0F8F00
1E0F9F00
1E0F1E00
1E0F1E00
1E1F1E00
1F1F3E00
0F1E3C00
0F9E3C00
03FE7C00
003C7C00
003C7800
003C7800
007CF800
0078F800
0078F000
0078F000
00F9F000
00F1F000
00F1E000
01F1E000
01F3E000
01E3E000
01E3C000
03E3C000
03E7C000
03C7C000
03C78000
07C78000
07CF8000
078F8000
1F8FE000
FF8FF000
ENDCHAR
STARTCHAR 00B7
ENCODING 183
SWIDTH 240 0
DWIDTH 12 0
BBX 8 7 6 8
BITMAP
7E
7F
FF
FF
FF
7E
3C
ENDCHAR
STARTCHAR 00B8
ENCODING 184
SWIDTH 340 0
DWIDTH 17 0
BBX 12 11 -4 -11
BITMAP
0700
0600
0C00
1F80
1FE0
03E0
01F0
01E0
43E0
FFC0
3F00
ENDCHAR
STARTCHAR 00B9
ENCODING 185
SWIDTH 280 0
DWIDTH 14 0
BBX 14 20 6 20
BITMAP
0004
00F8
07F8
00F8
00F0
00F0
01F0
01E0
01E0
03E0
03C0
03C0
07C0
0780
0780
0F80
0F00
0F00
1F00
FFE0
ENDCHAR
STARTCHAR 00BA
ENCODING 186
SWIDTH 300 0
DWIDTH 15 0
BBX 16 21 3 13
BITMAP
00F8
038E
070F
1E0F
1E0F
3C0F
3C1F
7C1E
781E
783C
783C
7878
38E0
0F80
0000
0000
7FF8
7FF8
FFF8
FFF8
FFF0
ENDCHAR
STARTCHAR 00BB
ENCODING 187
SWIDTH 500 0
DWIDTH 25 0
BBX 22 19 1 2
BITMAP
100400
180600
0C0700
0E0780
0F0380
0783C0
07C1E0
03E1F0
03F0F8
01F8FC
03F1FC
07E3F0
0FC3E0
1F07C0
3E0F00
3C1E00
703800
E07000
C06000
ENDCHAR
STARTCHAR 00BC
ENCODING 188
SWIDTH 740 0
DWIDTH 37 0
BBX 36 35 2 -1
BITMAP
0000000E00
0FF8001C00
00F8001C00
00F0003800
00F0007000
01F0007000
01E000E000
01E000E000
03E001C000
03E0038000
03C0038000
07C0070000
07C00E0000
07800E0070
0F801C00E0
0F803801E0
0F003803E0
1F007007C0
3F00700BC0
FFE0E013C0
0001C06780
0001C0C780
0003818780
0007030F80
0007060F00
000E0C0F00
001C181F00
001C1FFFC0
00381FFF80
00381FFF80
0070003C00
00E0003C00
00E0003C00
01C0007C00
0380000000
ENDCHAR
STARTCHAR 00BD
ENCODING 189
SWIDTH 740 0
DWIDTH 37 0
BBX 37 35 2 -1
BITMAP
0000000E00
00F8000E00
07F8001C00
00F8003800
00F0003800
00F0007000
01F000E000
01E000E000
01E001C000
03E001C000
03E0038000
03C0070000
07C0070000
07C00E0000
07801C0FC0
07801C1FE0
0F80383FF0
0F003861F0
1F0070C0F8
1F80E000F8
FFE0E000F0
0001C000F0
00038001E0
00038001E0
0007000380
0006000700
000E000E00
001C001C00
001C003000
0038006020
007000FFE0
007001FFC0
00E003FFC0
01C007FF80
01C0000000
ENDCHAR
STARTCHAR 00BE
ENCODING 190
SWIDTH 760 0
DWIDTH 38 0
BBX 36 35 2 -1
BITMAP
0000000700
01FC000E00
03FE000C00
063E001C00
081E003800
001E003800
001E007000
003800E000
01F000E000
07F801C000
01FC038000
007C038000
003C070000
003C060000
003C0E0070
003C1C00F0
00381C01E0
20783803E0
F8707005E0
FFC0700BE0
3F00E013C0
0001C063C0
0001C0C7C0
0003818780
0003830780
0007060780
000E0C0F00
000E0FFFC0
001C0FFFC0
00381FFFC0
0038001E00
0070001E00
00E0003E00
00E0003C00
01C0000000
ENDCHAR
STARTCHAR 00BF
ENCODING 191
SWIDTH 500 0
DWIDTH 25 0
BBX 19 34 2 -10
BITMAP
000FC0
001FE0
001FE0
001FE0
001FE0
000FC0
000780
000000
000000
000000
000000
000C00
000C00
001800
001800
003800
007000
01E000
03E000
0FC000
1F8000
3F0000
7F0000
FE0000
FE0200
FE0F00
FC1F80
FC1F80
FC0F80
FC0F80
7C0F00
7E0E00
1FFC00
07F000
ENDCHAR
STARTCHAR 00C0
ENCODING 192
SWIDTH 700 0
DWIDTH 35 0
BBX 33 45 0 0
BITMAP
0000E00000
0001F00000
0001F80000
0000FC0000
00007C0000
00003E0000
00000F0000
0000078000
0000018000
0000000000
0000000000
0000010000
0000030000
0000070000
0000078000
00000F8000
00001F8000
00001F8000
00003F8000
00003F8000
00007FC000
0000DFC000
0000DFC000
00019FC000
00039FC000
00031FC000
00060FE000
000E0FE000
000C0FE000
001C0FE000
00380FE000
00300FE000
007007F000
00FFFFF000
00FFFFF000
01C007F000
018007F000
038007F000
070007F800
070003F800
0E0003F800
1E0003F800
3E0007FC00
FF801FFF00
FFC03FFF80
ENDCHAR
STARTCHAR 00C1
ENCODING 193
SWIDTH 700 0
DWIDTH 35 0
BBX 33 45 0 0
BITMAP
0000001E00
0000003E00
0000007E00
000000FE00
000001F800
000003F000
000007C000
0000070000
00000C0000
0000000000
0000000000
0000010000
0000030000
0000070000
0000078000
00000F8000
00001F8000
00001F8000
00003F8000
00003F8000
00007FC000
0000DFC000
0000DFC000
00019FC000
00039FC000
00031FC000
00060FE000
000E0FE000
000C0FE000
001C0FE000
00380FE000
00300FE000
007007F000
00FFFFF000
00FFFFF000
01C007F000
018007F000
038007F000
070007F800
070003F800
0E0003F800
1E0003F800
3E0007FC00
FF801FFF00
FFC03FFF80
ENDCHAR
STARTCHAR 00C2
ENCODING 194
SWIDTH 700 0
DWIDTH 35 0
BBX 33 45 0 0
BITMAP
000003E000
000007E000
00000FF000
00001FF000
00003EF800
00007C7800
0000F03C00
0001E01C00
0001800E00
0000000000
0000000000
0000010000
0000030000
0000070000
0000078000
00000F8000
00001F8000
00001F8000
00003F8000
00003F8000
00007FC000
0000DFC000
0000DFC000
00019FC000
00039FC000
00031FC000
00060FE000
000E0FE000
000C0FE000
001C0FE000
00380FE000
00300FE000
007007F000
00FFFFF000
00FFFFF000
01C007F000
018007F000
038007F000
070007F800
070003F800
0E0003F800
1E0003F800
3E0007FC00
FF801FFF00
FFC03FFF80
ENDCHAR
STARTCHAR 00C3
ENCODING 195
SWIDTH 700 0
DWIDTH 35 0
BBX 33 42 0 0
BITMAP
00001F0180
00007FE380
0000FFFF00
0001FFFE00
000181FC00
0003002000
0000000000
0000000000
0000010000
0000030000
0000070000
0000078000
00000F8000
00001F8000
00001F8000
00003F8000
00003F8000
00007FC000
0000DFC000
0000DFC000
00019FC000
00039FC000
00031FC000
00060FE000
000E0FE000
000C0FE000
001C0FE000
00380FE000
00300FE000
007007F000
00FFFFF000
00FFFFF000
01C007F000
018007F000
038007F000
070007F800
070003F800
0E0003F800
1E0003F800
3E0007FC00
FF801FFF00
FFC03FFF80
ENDCHAR
STARTCHAR 00C4
ENCODING 196
SWIDTH 700 0
DWIDTH 35 0
BBX 33 42 0 0
BITMAP
0000700E00
0000F81F00
0000FC1F80
0001FC3F80
0000FC1F80
0000F81F00
0000200400
0000000000
0000010000
0000030000
0000070000
0000078000
00000F8000
00001F8000
00001F8000
00003F8000
00003F8000
00007FC000
0000DFC000
0000DFC000
00019FC000
00039FC000
00031FC000
00060FE000
000E0FE000
000C0FE000
001C0FE000
00380FE000
00300FE000
007007F000
00FFFFF000
00FFFFF000
01C007F000
018007F000
038007F000
070007F800
070003F800
0E0003F800
1E0003F800
3E0007FC00
FF801FFF00
FFC03FFF80
ENDCHAR
STARTCHAR 00C5
ENCODING 197
SWIDTH 700 0
DWIDTH 35 0
BBX 33 45 0 0
BITMAP
0000004000
000003F000
000007F800
00000F3800
00000E3800
00001C3800
00001C3800
00000FF000
00000FE000
000007C000
0000000000
0000010000
0000030000
0000070000
0000078000
00000F8000
00001F8000
00001F8000
00003F8000
00003F8000
00007FC000
0000DFC000
0000DFC000
00019FC000
00039FC000
00031FC000
00060FE000
000E0FE000
000C0FE000
001C0FE000
00380FE000
00300FE000
007007F000
00FFFFF000
00FFFFF000
01C007F000
018007F000
038007F000
070007F800
070003F800
0E0003F800
1E0003F800
3E0007FC00
FF801FFF00
FFC03FFF80
ENDCHAR
STARTCHAR 00C6
ENCODING 198
SWIDTH 920 0
DWIDTH 46 0
BBX 49 33 0 0
BITMAP
00000FFFFFFF80
000001FFFFFF80
000000EFE03F80
000000DFE00F00
0000019FC00700
0000031FC00300
0000073FC00300
0000063FC00300
00000C3F800200
0000183F804000
0000387F80C000
0000707F80C000
0000607F018000
0000C0FF038000
000180FFFF8000
000380FFFF0000
000700FE1F0000
000601FE070000
000FFFFE070000
001FFFFC060000
003801FC060000
007003FC060000
006003FC040000
00E003F8000C00
01C007F8000C00
038007F8001800
030007F8003800
070007F0007800
0E000FF000F000
1E000FF001F000
3E001FF007F000
7F807FFFFFE000
FFC07FFFFFE000
ENDCHAR
STARTCHAR 00C7
ENCODING 199
SWIDTH 620 0
DWIDTH 31 0
BBX 32 45 2 -11
BITMAP
0000FF83
0007FFFF
001FC07F
007F803E
00FF001E
01FE001E
03FC000E
07F8000E
0FF0000C
0FF0000C
1FE0000C
1FE0000C
3FC00000
3FC00000
7FC00000
7F800000
7F800000
FF800000
FF800000
FF000000
FF000000
FF000000
FF000000
FF000000
FF000000
FF000000
7F000000
7F800060
3F8000C0
3FC001C0
1FC00780
0FF01E00
07FFFC00
01FFF000
00FFC000
00C00000
01800000
01F00000
03FC0000
007C0000
003E0000
003C0000
087C0000
1FF80000
07E00000
ENDCHAR
STARTCHAR 00C8
ENCODING 200
SWIDTH 640 0
DWIDTH 32 0
BBX 34 45 0 0
BITMAP
0003800000
0007C00000
0007E00000
0003F00000
0001F00000
0000F80000
00003C0000
00001E0000
0000060000
0000000000
0000000000
0000000000
01FFFFFFC0
00FFFFFFC0
003FE00FC0
001FC007C0
003FC00380
003FC00180
003F800180
003F800180
007F800180
007F004000
007F00C000
007F00C000
00FF01C000
00FE03C000
00FFFF8000
01FFFF8000
01FE1F8000
01FC078000
01FC030000
03FC030000
03F8030000
03F8030000
03F8030000
07F8000200
07F0000600
07F0000C00
0FF0001C00
0FF0003C00
0FE0007800
0FE001F800
1FE007F800
7FFFFFF000
FFFFFFF000
ENDCHAR
STARTCHAR 00C9
ENCODING 201
SWIDTH 640 0
DWIDTH 32 0
BBX 34 45 0 0
BITMAP
000000F000
000001F000
000003F000
000007F000
00000FE000
00000F8000
00001E0000
0000380000
0000700000
0000000000
0000000000
0000000000
01FFFFFFC0
00FFFFFFC0
003FE00FC0
001FC007C0
003FC00380
003FC00180
003F800180
003F800180
007F800180
007F004000
007F00C000
007F00C000
00FF01C000
00FE03C000
00FFFF8000
01FFFF8000
01FE1F8000
01FC078000
01FC030000
03FC030000
03F8030000
03F8030000
03F8030000
07F8000200
07F0000600
07F0000C00
0FF0001C00
0FF0003C00
0FE0007800
0FE001F800
1FE007F800
7FFFFFF000
FFFFFFF000
ENDCHAR
STARTCHAR 00CA
ENCODING 202
SWIDTH 640 0
DWIDTH 32 0
BBX 34 45 0 0
BITMAP
00000F8000
00000FC000
00001FC000
00003FE000
00007DE000
0000F0F000
0001E07000
0003803800
0007001800
0000000000
0000000000
0000000000
01FFFFFFC0
00FFFFFFC0
003FE00FC0
001FC007C0
003FC00380
003FC00180
003F800180
003F800180
007F800180
007F004000
007F00C000
007F00C000
00FF01C000
00FE03C000
00FFFF8000
01FFFF8000
01FE1F8000
01FC078000
01FC030000
03FC030000
03F8030000
03F8030000
03F8030000
07F8000200
07F0000600
07F0000C00
0FF0001C00
0FF0003C00
0FE0007800
0FE001F800
1FE007F800
7FFFFFF000
FFFFFFF000
ENDCHAR
STARTCHAR 00CB
ENCODING 203
SWIDTH 640 0
DWIDTH 32 0
BBX 34 42 0 0
BITMAP
0001C03800
0003E07C00
0007F0FE00
0007F0FE00
0007E0FC00
0003E07C00
0000801000
0000000000
0000000000
01FFFFFFC0
00FFFFFFC0
003FE00FC0
001FC007C0
003FC00380
003FC00180
003F800180
003F800180
007F800180
007F004000
007F00C000
007F00C000
00FF01C000
00FE03C000
00FFFF8000
01FFFF8000
01FE1F8000
01FC078000
01FC030000
03FC030000
03F8030000
03F8030000
03F8030000
07F8000200
07F0000600
07F0000C00
0FF0001C00
0FF0003C00
0FE0007800
0FE001F800
1FE007F800
7FFFFFF000
FFFFFFF000
ENDCHAR
STARTCHAR 00CC
ENCODING 204
SWIDTH 380 0
DWIDTH 19 0
BBX 22 45 0 0
BITMAP
00E000
01F000
01F800
00FC00
007C00
003E00
000F00
000780
000180
000000
000000
000000
01FFFC
00FFF8
001FE0
001FC0
003FC0
003F80
003F80
003F80
007F80
007F00
007F00
007F00
00FF00
00FE00
00FE00
01FE00
01FC00
01FC00
01FC00
03FC00
03F800
03F800
03F800
07F800
07F000
07F000
0FF000
0FE000
0FE000
0FE000
1FE000
7FF800
FFFE00
ENDCHAR
STARTCHAR 00CD
ENCODING 205
SWIDTH 380 0
DWIDTH 19 0
BBX 24 45 0 0
BITMAP
00000E
00001F
00003F
00007E
0000FC
0001F0
0003C0
000780
000E00
000000
000000
000000
01FFFC
00FFF8
001FE0
001FC0
003FC0
003F80
003F80
003F80
007F80
007F00
007F00
007F00
00FF00
00FE00
00FE00
01FE00
01FC00
01FC00
01FC00
03FC00
03F800
03F800
03F800
07F800
07F000
07F000
0FF000
0FE000
0FE000
0FE000
1FE000
7FF800
FFFE00
ENDCHAR
STARTCHAR 00CE
ENCODING 206
SWIDTH 380 0
DWIDTH 19 0
BBX 23 45 0 0
BITMAP
0003E0
0007E0
000FF0
001FF0
003EF8
007C78
00703C
00E01C
01C00E
000000
000000
000000
01FFFC
00FFF8
001FE0
001FC0
003FC0
003F80
003F80
003F80
007F80
007F00
007F00
007F00
00FF00
00FE00
00FE00
01FE00
01FC00
01FC00
01FC00
03FC00
03F800
03F800
03F800
07F800
07F000
07F000
0FF000
0FE000
0FE000
0FE000
1FE000
7FF800
FFFE00
ENDCHAR
STARTCHAR 00CF
ENCODING 207
SWIDTH 380 0
DWIDTH 19 0
BBX 24 42 0 0
BITMAP
00F01E
01F83F
01F83F
01F83F
01F83F
00F01E
000000
000000
000000
01FFFC
00FFF8
001FE0
001FC0
003FC0
003F80
003F80
003F80
007F80
007F00
007F00
007F00
00FF00
00FE00
00FE00
01FE00
01FC00
01FC00
01FC00
03FC00
03F800
03F800
03F800
07F800
07F000
07F000
0FF000
0FE000
0FE000
0FE000
1FE000
7FF800
FFFE00
ENDCHAR
STARTCHAR 00D0
ENCODING 208
SWIDTH 720 0
DWIDTH 36 0
BBX 37 33 0 0
BITMAP
01FFFFE000
00FFFFFC00
001FC07F00
001FC01F80
003FC01FC0
003F800FE0
003F800FE0
003F8007F0
007F8007F0
007F0007F8
007F0007F8
007F0007F8
00FF0007F8
00FE0007F8
00FE0007F8
3FFFF807F8
3FFFF80FF8
01FC000FF8
01FC000FF0
03FC000FF0
03F8001FF0
03F8001FE0
03F8003FE0
07F8003FC0
07F0007F80
07F0007F80
0FF000FF00
0FF001FE00
0FE003F800
1FE007F000
1FE01FC000
7FFFFF0000
FFFFF00000
ENDCHAR
STARTCHAR 00D1
ENCODING 209
SWIDTH 700 0
DWIDTH 35 0
BBX 39 43 0 -1
BITMAP
00001F0180
00007FE300
0000FFFF00
0001FFFE00
000383FC00
0003006000
0000000000
0000000000
0000000000
01FF800FFE
00FF8007FC
003FC000F0
001FC000E0
001FE000E0
003FE000E0
003FF000C0
0037F000C0
0027F801C0
0067F80180
0063FC0180
0043FC0180
00C1FE0380
00C1FE0300
00C0FF0300
0080FF0300
01807F0600
01807F8600
01003F8600
03003FCE00
03001FCC00
03001FEC00
06000FEC00
06000FF800
060007F800
060007F800
0C0003F800
0C0003F000
0C0003F000
1C0001F000
1E0001E000
7F8000E000
FFC000E000
0000006000
ENDCHAR
STARTCHAR 00D2
ENCODING 210
SWIDTH 680 0
DWIDTH 34 0
BBX 33 46 2 -1
BITMAP
0001C00000
0003E00000
0003F00000
0001F80000
0000FC0000
00003C0000
00001E0000
0000070000
0000038000
0000000000
0000000000
00007F8000
0003FFE000
000FC0F800
001F007C00
007E007E00
00FC003F00
01FC003F00
03F8003F80
03F0003F80
07F0003F80
0FE0003F80
0FE0003F80
1FC0003F80
3FC0007F80
3FC0007F80
3F80007F80
7F80007F80
7F8000FF00
7F8000FF00
FF0000FF00
FF0001FE00
FF0001FE00
FF0001FC00
FF0003FC00
FE0003F800
FE0007F000
FE0007F000
7E000FE000
7E000FC000
3E001F8000
3F003F0000
1F007E0000
0F81F80000
03FFE00000
00FF000000
ENDCHAR
STARTCHAR 00D3
ENCODING 211
SWIDTH 680 0
DWIDTH 34 0
BBX 33 46 2 -1
BITMAP
0000007800
000000F800
000001F800
000003F800
000007E000
00000FC000
00001F0000
00003C0000
0000300000
0000000000
0000000000
00007F8000
0003FFE000
000FC0F800
001F007C00
007E007E00
00FC003F00
01FC003F00
03F8003F80
03F0003F80
07F0003F80
0FE0003F80
0FE0003F80
1FC0003F80
3FC0007F80
3FC0007F80
3F80007F80
7F80007F80
7F8000FF00
7F8000FF00
FF0000FF00
FF0001FE00
FF0001FE00
FF0001FC00
FF0003FC00
FE0003F800
FE0007F000
FE0007F000
7E000FE000
7E000FC000
3E001F8000
3F003F0000
1F007E0000
0F81F80000
03FFE00000
00FF000000
ENDCHAR
STARTCHAR 00D4
ENCODING 212
SWIDTH 680 0
DWIDTH 34 0
BBX 33 46 2 -1
BITMAP
00000F8000
00001F8000
00003FC000
00007FC000
0000F9E000
0000F0E000
0001C0F000
0003807000
0007003800
0000000000
0000000000
00007F8000
0003FFE000
000FC0F800
001F007C00
007E007E00
00FC003F00
01FC003F00
03F8003F80
03F0003F80
07F0003F80
0FE0003F80
0FE0003F80
1FC0003F80
3FC0007F80
3FC0007F80
3F80007F80
7F80007F80
7F8000FF00
7F8000FF00
FF0000FF00
FF0001FE00
FF0001FE00
FF0001FC00
FF0003FC00
FE0003F800
FE0007F000
FE0007F000
7E000FE000
7E000FC000
3E001F8000
3F003F0000
1F007E0000
0F81F80000
03FFE00000
00FF000000
ENDCHAR
STARTCHAR 00D5
ENCODING 213
SWIDTH 680 0
DWIDTH 34 0
BBX 33 43 2 -1
BITMAP
00003E0300
0000FFC600
0001FFFE00
0003FFFC00
000307F800
000600C000
0000000000
0000000000
00007F8000
0003FFE000
000FC0F800
001F007C00
007E007E00
00FC003F00
01FC003F00
03F8003F80
03F0003F80
07F0003F80
0FE0003F80
0FE0003F80
1FC0003F80
3FC0007F80
3FC0007F80
3F80007F80
7F80007F80
7F8000FF00
7F8000FF00
FF0000FF00
FF0001FE00
FF0001FE00
FF0001FC00
FF0003FC00
FE0003F800
FE0007F000
FE0007F000
7E000FE000
7E000FC000
3E001F8000
3F003F0000
1F007E0000
0F81F80000
03FFE00000
00FF000000
ENDCHAR
STARTCHAR 00D6
ENCODING 214
SWIDTH 680 0
DWIDTH 34 0
BBX 33 43 2 -1
BITMAP
0003807000
0007C0F800
0007E0FC00
0007E0FC00
0007E0FC00
0007C0F800
0001803000
0000000000
00007F8000
0003FFE000
000FC0F800
001F007C00
007E007E00
00FC003F00
01FC003F00
03F8003F80
03F0003F80
07F0003F80
0FE0003F80
0FE0003F80
1FC0003F80
3FC0007F80
3FC0007F80
3F80007F80
7F80007F80
7F8000FF00
7F8000FF00
FF0000FF00
FF0001FE00
FF0001FE00
FF0001FC00
FF0003FC00
FE0003F800
FE0007F000
FE0007F000
7E000FE000
7E000FC000
3E001F8000
3F003F0000
1F007E0000
0F81F80000
03FFE00000
00FF000000
ENDCHAR
STARTCHAR 00D7
ENCODING 215
SWIDTH 580 0
DWIDTH 29 0
BBX 24 24 2 1
BITMAP
100000
30000C
78001E
FC003F
7E007E
3F00FC
1F81F8
0FC3F0
07E7E0
03FFC0
01FF80
00FF00
007E00
00FF00
01FF80
03FFC0
07E7E0
0FC3F0
1F81F8
3F00FC
7E007E
7C003F
38001E
10000C
ENDCHAR
STARTCHAR 00D8
ENCODING 216
SWIDTH 680 0
DWIDTH 34 0
BBX 33 44 2 -6
BITMAP
0000000C00
0000001800
0000003800
0000003000
00007FF000
0003FFE000
000FC0F800
001F01FC00
007E01FE00
00FC03BF00
01FC033F00
03F8073F80
07F0063F80
07F00C3F80
0FE01C3F80
1FE0183F80
1FE0387F80
3FC0307F80
3FC0607F80
7F80E07F80
7F80C07F80
7F81C0FF00
7F8180FF00
FF0380FF00
FF0701FE00
FF0601FE00
FF0E01FC00
FE0C03FC00
FE1C03F800
FE1807F000
FE3007F000
7E700FE000
7E600FC000
3EE01F8000
3FC03F0000
1F807E0000
0F81F80000
03FFE00000
07FF000000
0600000000
0E00000000
0C00000000
1800000000
3800000000
ENDCHAR
STARTCHAR 00D9
ENCODING 217
SWIDTH 720 0
DWIDTH 36 0
BBX 34 46 5 -1
BITMAP
000E000000
001F000000
001F800000
000FC00000
0007E00000
0001E00000
0000F00000
0000380000
00001C0000
0000000000
0000000000
0000000000
3FFFC0FFC0
1FFF007F80
07FC001E00
03F8000E00
07F8000C00
07F8001C00
07F0001800
07F0001800
0FF0001800
0FE0001000
0FE0003000
1FE0003000
1FE0003000
1FC0006000
1FC0006000
3FC0006000
3F80004000
3F8000C000
7F8000C000
7F8000C000
7F00018000
7F00018000
FF00018000
FE00030000
FE00030000
FE00030000
FE00060000
FE000E0000
FE000C0000
7F00180000
3F80780000
1FFFE00000
0FFFC00000
01FE000000
ENDCHAR
STARTCHAR 00DA
ENCODING 218
SWIDTH 720 0
DWIDTH 36 0
BBX 34 46 5 -1
BITMAP
0000007000
000001F000
000003F800
000007F000
000007E000
00000F8000
00001E0000
0000380000
0000700000
0000000000
0000000000
0000000000
3FFFC0FFC0
1FFF007F80
07FC001E00
03F8000E00
07F8000C00
07F8001C00
07F0001800
07F0001800
0FF0001800
0FE0001000
0FE0003000
1FE0003000
1FE0003000
1FC0006000
1FC0006000
3FC0006000
3F80004000
3F8000C000
7F8000C000
7F8000C000
7F00018000
7F00018000
FF00018000
FE00030000
FE00030000
FE00030000
FE00060000
FE000E0000
FE000C0000
7F00180000
3F80780000
1FFFE00000
0FFFC00000
01FE000000
ENDCHAR
STARTCHAR 00DB
ENCODING 219
SWIDTH 720 0
DWIDTH 36 0
BBX 34 46 5 -1
BITMAP
00001F0000
00003F0000
00007F8000
0000FF8000
0001F7C000
0003C3C000
000781E000
000F00E000
001C007000
0000000000
0000000000
0000000000
3FFFC0FFC0
1FFF007F80
07FC001E00
03F8000E00
07F8000C00
07F8001C00
07F0001800
07F0001800
0FF0001800
0FE0001000
0FE0003000
1FE0003000
1FE0003000
1FC0006000
1FC0006000
3FC0006000
3F80004000
3F8000C000
7F8000C000
7F8000C000
7F00018000
7F00018000
FF00018000
FE00030000
FE00030000
FE00030000
FE00060000
FE000E0000
FE000C0000
7F00180000
3F80780000
1FFFE00000
0FFFC00000
01FE000000
ENDCHAR
STARTCHAR 00DC
ENCODING 220
SWIDTH 720 0
DWIDTH 36 0
BBX 34 43 5 -1
BITMAP
0003006000
0007C0F800
000FE1FC00
000FE1FC00
000FE1FC00
0007C0F800
0003807000
0000000000
0000000000
3FFFC0FFC0
1FFF007F80
07FC001E00
03F8000E00
07F8000C00
07F8001C00
07F0001800
07F0001800
0FF0001800
0FE0001000
0FE0003000
1FE0003000
1FE0003000
1FC0006000
1FC0006000
3FC0006000
3F80004000
3F8000C000
7F8000C000
7F8000C000
7F00018000
7F00018000
FF00018000
FE00030000
FE00030000
FE00030000
FE00060000
FE000E0000
FE000C0000
7F00180000
3F80780000
1FFFE00000
0FFFC00000
01FE000000
ENDCHAR
STARTCHAR 00DD
ENCODING 221
SWIDTH 640 0
DWIDTH 32 0
BBX 30 45 6 0
BITMAP
00000700
00000F80
00001F80
00003F80
00007E00
0000F800
0001F000
0003C000
00070000
00000000
00000000
00000000
FFFC1FFC
7FF807F8
1FE003E0
0FE001C0
0FE00380
07F00300
07F00700
07F00E00
03F80C00
03F81C00
03F83800
01FC3000
01FC6000
01FCE000
00FDC000
00FF8000
00FF0000
00FF0000
00FE0000
00FE0000
00FE0000
01FE0000
01FC0000
01FC0000
03FC0000
03F80000
03F80000
03F80000
07F80000
07F80000
0FF80000
3FFE0000
FFFF0000
ENDCHAR
STARTCHAR 00DE
ENCODING 222
SWIDTH 600 0
DWIDTH 30 0
BBX 31 33 0 0
BITMAP
01FFFC00
00FFFC00
001FE000
001FE000
001FC000
003FC000
003FFE00
003FFFE0
007F87F0
007F03FC
007F01FC
007F01FE
00FE01FE
00FE01FE
00FE01FE
00FE01FE
01FC03FE
01FC03FC
01FC03FC
03F807F8
03F80FF0
03F83FE0
03FFFF80
07FFF800
07F00000
07F00000
07F00000
0FF00000
0FF00000
0FE00000
1FF00000
7FFC0000
FFFE0000
ENDCHAR
STARTCHAR 00DF
ENCODING 223
SWIDTH 580 0
DWIDTH 29 0
BBX 34 45 -4 -10
BITMAP
000001F800
000007FE00
00000F0F00
00001E0F80
00003C0F80
00007C0F80
00007C0FC0
0000F80F80
0000F80F80
0001F81F80
0001F81F00
0001F81E00
0003F03C00
0003F07000
0003F1C000
0003F3C000
0003E0F800
0007E03C00
0007E03E00
0007E03E00
0007C03F00
000FC03F00
000FC03F00
000FC03F00
000FC03F00
000F807F00
001F807E00
001F807E00
001F807E00
001F00FC00
003F00F800
003F01F800
003F01F000
003E23E000
003E7F8000
007E000000
007C000000
007C000000
0078000000
60F8000000
F0F0000000
F1F0000000
F1E0000000
7F80000000
3F00000000
ENDCHAR
STARTCHAR 00E0
ENCODING 224
SWIDTH 500 0
DWIDTH 25 0
BBX 24 36 1 -1
BITMAP
01C000
01F000
01F000
01F800
00FC00
003E00
001E00
000700
000380
000000
000000
000000
000000
003F3E
00FFBE
01F0FE
03E0FC
07E0FC
0FC0FC
1F80F8
1F80F8
3F01F8
3F01F0
7E01F0
7E01F0
FE03F0
FE03E0
FC07E0
FC07E0
FC0FE3
FC1FE6
FE37EC
7FE7F8
7FC7F0
3F83E0
000080
ENDCHAR
STARTCHAR 00E1
ENCODING 225
SWIDTH 500 0
DWIDTH 25 0
BBX 24 36 1 -1
BITMAP
00001C
00003E
00007E
0000FC
0001F8
0003E0
0007C0
000F00
001C00
000000
000000
000000
000000
003F3E
00FFBE
01F0FE
03E0FC
07E0FC
0FC0FC
1F80F8
1F80F8
3F01F8
3F01F0
7E01F0
7E01F0
FE03F0
FE03E0
FC07E0
FC07E0
FC0FE3
FC1FE6
FE37EC
7FE7F8
7FC7F0
3F83E0
000080
ENDCHAR
STARTCHAR 00E2
ENCODING 226
SWIDTH 500 0
DWIDTH 25 0
BBX 24 36 1 -1
BITMAP
0007C0
0007C0
000FE0
001FE0
003FF0
0078F0
00F078
01E038
03801C
000000
000000
000000
000000
003F3E
00FFBE
01F0FE
03E0FC
07E0FC
0FC0FC
1F80F8
1F80F8
3F01F8
3F01F0
7E01F0
7E01F0
FE03F0
FE03E0
FC07E0
FC07E0
FC0FE3
FC1FE6
FE37EC
7FE7F8
7FC7F0
3F83E0
000080
ENDCHAR
STARTCHAR 00E3
ENCODING 227
SWIDTH 500 0
DWIDTH 25 0
BBX 24 32 1 -1
BITMAP
007F03
00FFCE
01FFFE
039FFC
0703F0
000000
000000
000000
000000
003F3E
00FFBE
01F0FE
03E0FC
07E0FC
0FC0FC
1F80F8
1F80F8
3F01F8
3F01F0
7E01F0
7E01F0
FE03F0
FE03E0
FC07E0
FC07E0
FC0FE3
FC1FE6
FE37EC
7FE7F8
7FC7F0
3F83E0
000080
ENDCHAR
STARTCHAR 00E4
ENCODING 228
SWIDTH 500 0
DWIDTH 25 0
BBX 24 32 1 -1
BITMAP
01F03E
03F07E
03F87F
03F87F
01F03E
00E01C
000000
000000
000000
003F3E
00FFBE
01F0FE
03E0FC
07E0FC
0FC0FC
1F80F8
1F80F8
3F01F8
3F01F0
7E01F0
7E01F0
FE03F0
FE03E0
FC07E0
FC07E0
FC0FE3
FC1FE6
FE37EC
7FE7F8
7FC7F0
3F83E0
000080
ENDCHAR
STARTCHAR 00E5
ENCODING 229
SWIDTH 500 0
DWIDTH 25 0
BBX 24 36 1 -1
BITMAP
0003C0
000FE0
001FF0
001C70
003870
003870
0038E0
003FE0
001F80
000600
000000
000000
000000
003F3E
00FFBE
01F0FE
03E0FC
07E0FC
0FC0FC
1F80F8
1F80F8
3F01F8
3F01F0
7E01F0
7E01F0
FE03F0
FE03E0
FC07E0
FC07E0
FC0FE3
FC1FE6
FE37EC
7FE7F8
7FC7F0
3F83E0
000080
ENDCHAR
STARTCHAR 00E6
ENCODING 230
SWIDTH 700 0
DWIDTH 35 0
BBX 33 22 1 1
BITMAP
003F3E7F00
00FFBECF80
01F0BF8780
03E07F0780
07E07E0780
0FC07E0780
1F80FC0F80
1F80FC0F00
3F00FC1E00
3F00F87C00
7E01F8F800
7E01FFC000
7E01FE0000
FE03F00000
FC03F00000
FC07F00400
FC0FF00C00
FE19F01C00
FE39F83800
7FF1FFF000
7FE0FFE000
3F807FC000
ENDCHAR
STARTCHAR 00E7
ENCODING 231
SWIDTH 420 0
DWIDTH 21 0
BBX 21 33 0 -10
BITMAP
001FE0
0078F0
01F0F8
03E1F8
07C1F8
07C1F8
0F80F0
1F8000
1F8000
3F0000
3F0000
7F0000
7F0000
7F0000
7E0000
7E0040
7F00C0
7F0180
3F8380
3FFF00
1FFC00
0FF800
030000
060000
0C0000
1FC000
1FE000
03E000
01F000
01E000
43E000
FFC000
3F0000
ENDCHAR
STARTCHAR 00E8
ENCODING 232
SWIDTH 420 0
DWIDTH 21 0
BBX 20 35 1 0
BITMAP
00E000
01F000
01F800
01F800
00FC00
003E00
001F00
000700
000380
000000
000000
000000
000000
003FC0
00F3E0
03E1E0
07C1F0
0FC1F0
0F81E0
1F83E0
3F03C0
3F0780
7F1F00
7E7E00
FFF000
FF8000
FE0000
FE0000
FE0180
FE0380
FE0700
7E0E00
7FFC00
3FF800
0FF000
ENDCHAR
STARTCHAR 00E9
ENCODING 233
SWIDTH 420 0
DWIDTH 21 0
BBX 23 35 1 0
BITMAP
00001C
00003E
00007E
0000FC
0001F8
0003E0
0007C0
000F00
001C00
000000
000000
000000
000000
003FC0
00F3E0
03E1E0
07C1F0
0FC1F0
0F81E0
1F83E0
3F03C0
3F0780
7F1F00
7E7E00
FFF000
FF8000
FE0000
FE0000
FE0180
FE0380
FE0700
7E0E00
7FFC00
3FF800
0FF000
ENDCHAR
STARTCHAR 00EA
ENCODING 234
SWIDTH 420 0
DWIDTH 21 0
BBX 22 35 1 0
BITMAP
0003C0
0007C0
000FE0
001FE0
003FF0
0078F0
00F078
01E038
03801C
000000
000000
000000
000000
003FC0
00F3E0
03E1E0
07C1F0
0FC1F0
0F81E0
1F83E0
3F03C0
3F0780
7F1F00
7E7E00
FFF000
FF8000
FE0000
FE0000
FE0180
FE0380
FE0700
7E0E00
7FFC00
3FF800
0FF000
ENDCHAR
STARTCHAR 00EB
ENCODING 235
SWIDTH 420 0
DWIDTH 21 0
BBX 24 31 1 0
BITMAP
00F01E
01F03E
03F87F
03F87F
01F03E
00F01E
000000
000000
000000
003FC0
00F3E0
03E1E0
07C1F0
0FC1F0
0F81E0
1F83E0
3F03C0
3F0780
7F1F00
7E7E00
FFF000
FF8000
FE0000
FE0000
FE0180
FE0380
FE0700
7E0E00
7FFC00
3FF800
0FF000
ENDCHAR
STARTCHAR 00EC
ENCODING 236
SWIDTH 300 0
DWIDTH 15 0
BBX 11 35 2 0
BITMAP
3800
7C00
7E00
3F00
1F00
0F80
03C0
01E0
0060
0000
0000
0000
0000
03E0
7FE0
3FC0
0FC0
0FC0
0F80
1F80
1F80
1F80
1F00
3F00
3F00
3F00
3E00
7E00
7E20
7C20
FC60
FCC0
FF80
FF00
7E00
ENDCHAR
STARTCHAR 00ED
ENCODING 237
SWIDTH 300 0
DWIDTH 15 0
BBX 15 35 2 0
BITMAP
001C
003C
007E
00FC
01F8
03E0
07C0
0F00
1C00
0000
0000
0000
0000
03E0
7FE0
3FC0
0FC0
0FC0
0F80
1F80
1F80
1F80
1F00
3F00
3F00
3F00
3E00
7E00
7E20
7C20
FC60
FCC0
FF80
FF00
7E00
ENDCHAR
STARTCHAR 00EE
ENCODING 238
SWIDTH 300 0
DWIDTH 15 0
BBX 16 35 2 0
BITMAP
00F0
01F8
03F8
07FC
0FBC
1F1E
3C0E
3807
7007
0000
0000
0000
0000
03E0
7FE0
3FC0
0FC0
0FC0
0F80
1F80
1F80
1F80
1F00
3F00
3F00
3F00
3E00
7E00
7E20
7C20
FC60
FCC0
FF80
FF00
7E00
ENDCHAR
STARTCHAR 00EF
ENCODING 239
SWIDTH 300 0
DWIDTH 15 0
BBX 18 31 2 1
BITMAP
7C0F80
7E0FC0
7E0FC0
7E0FC0
7E0FC0
380700
000000
000000
000000
03E000
7FE000
3FC000
0FC000
0FC000
0F8000
1F8000
1F8000
1F8000
1F0000
3F0000
3F0000
3F0000
3E0000
7E0000
7E2000
7C2000
FC6000
FCC000
FF8000
FF0000
7E0000
ENDCHAR
STARTCHAR 00F0
ENCODING 240
SWIDTH 460 0
DWIDTH 23 0
BBX 22 34 1 0
BITMAP
00F00C
007C3C
003EF8
000FE0
000F80
003FC0
00F9E0
01E1F0
0080F0
0000F8
000078
000078
007F7C
01F1FC
03E0FC
07C0FC
0F80FC
1F80FC
1F00FC
3F00FC
3F01FC
7E01F8
7E01F8
FE01F8
FE03F0
FC03F0
FC03E0
FC07E0
FC07C0
FC0780
7C0F80
7C1E00
3E3C00
0FF000
ENDCHAR
STARTCHAR 00F1
ENCODING 241
SWIDTH 520 0
DWIDTH 26 0
BBX 26 31 0 0
BITMAP
001FC0C0
003FFB80
007FFF80
00E3FF00
00C0FC00
00000000
00000000
00000000
00000000
07F07E00
1FF1FF00
07F3FF00
07E33F00
07E43F00
07E83F00
0FD83F00
0FD07E00
0FE07E00
0FE07E00
1FC0FC00
1FC0FC00
1F80FC00
1F81F800
3F81F800
3F01F800
3F03F180
7F03F100
7E03F200
7E03FE00
7E03FC00
FC01F000
ENDCHAR
STARTCHAR 00F2
ENCODING 242
SWIDTH 480 0
DWIDTH 24 0
BBX 23 35 1 0
BITMAP
00E000
00F800
00F800
00FC00
007E00
001F00
000F00
000380
0001C0
000000
000000
000000
000000
003FE0
00F0F8
01E07C
07C07C
0FC07E
0F807E
1F807E
3F00FE
3F00FE
7E00FE
7E00FE
FE00FC
FE01FC
FC01F8
FC01F8
FC03F0
FC03F0
FC07E0
7C07C0
7C0F80
3E1E00
0FF800
ENDCHAR
STARTCHAR 00F3
ENCODING 243
SWIDTH 480 0
DWIDTH 24 0
BBX 23 35 1 0
BITMAP
000038
00007C
0000FC
0001FC
0003F8
0007E0
000780
000E00
001C00
000000
000000
000000
000000
003FE0
00F0F8
01E07C
07C07C
0FC07E
0F807E
1F807E
3F00FE
3F00FE
7E00FE
7E00FE
FE00FC
FE01FC
FC01F8
FC01F8
FC03F0
FC03F0
FC07E0
7C07C0
7C0F80
3E1E00
0FF800
ENDCHAR
STARTCHAR 00F4
ENCODING 244
SWIDTH 480 0
DWIDTH 24 0
BBX 23 35 1 0
BITMAP
0003C0
0007E0
000FE0
001FF0
003EF0
007C78
00F838
00E01C
01C00C
000000
000000
000000
000000
003FE0
00F0F8
01E07C
07C07C
0FC07E
0F807E
1F807E
3F00FE
3F00FE
7E00FE
7E00FE
FE00FC
FE01FC
FC01F8
FC01F8
FC03F0
FC03F0
FC07E0
7C07C0
7C0F80
3E1E00
0FF800
ENDCHAR
STARTCHAR 00F5
ENCODING 245
SWIDTH 480 0
DWIDTH 24 0
BBX 24 31 1 0
BITMAP
003F03
00FFEF
01FFFE
03DFFC
0303F8
000000
000000
000000
000000
003FE0
00F0F8
01E07C
07C07C
0FC07E
0F807E
1F807E
3F00FE
3F00FE
7E00FE
7E00FE
FE00FC
FE01FC
FC01F8
FC01F8
FC03F0
FC03F0
FC07E0
7C07C0
7C0F80
3E1E00
0FF800
ENDCHAR
STARTCHAR 00F6
ENCODING 246
SWIDTH 480 0
DWIDTH 24 0
BBX 24 31 1 1
BITMAP
00F81F
01F83F
01F83F
01F83F
01F83F
00700E
000000
000000
000000
003FE0
00F0F8
01E07C
07C07C
0FC07E
0F807E
1F807E
3F00FE
3F00FE
7E00FE
7E00FE
FE00FC
FE01FC
FC01F8
FC01F8
FC03F0
FC03F0
FC07E0
7C07C0
7C0F80
3E1E00
0FF800
ENDCHAR
STARTCHAR 00F7
ENCODING 247
SWIDTH 560 0
DWIDTH 28 0
BBX 25 27 2 -1
BITMAP
003F0000
007F8000
007F8000
007F8000
007F8000
003F0000
001E0000
00000000
00000000
00000000
00000000
FFFFFF80
FFFFFF80
FFFFFF80
FFFFFF80
FFFFFF80
00000000
00000000
00000000
00000000
003F0000
007F8000
007F8000
007F8000
007F8000
003F0000
001E0000
ENDCHAR
STARTCHAR 00F8
ENCODING 248
SWIDTH 480 0
DWIDTH 24 0
BBX 23 33 1 -6
BITMAP
00000C
000018
000010
000030
000060
003FE0
00F0F8
01E0FC
07C1FC
0FC37E
0F837E
1F867E
3F0E7E
3F0CFE
7F18FE
7E18FC
FE30FC
FE61FC
FE61F8
FCC1F8
FCC3F0
FD83E0
FF07E0
7F07C0
7E0F80
3E1E00
0FF800
180000
180000
300000
300000
600000
C00000
ENDCHAR
STARTCHAR 00F9
ENCODING 249
SWIDTH 540 0
DWIDTH 27 0
BBX 23 35 2 0
BITMAP
01C000
01E000
01F000
01F800
00FC00
003E00
001E00
000700
000380
000000
000000
000000
002000
07E07E
7FC07E
3FC07C
0FC0FC
0F80FC
1F80FC
1F81F8
1F81F8
1F01F8
3F03F0
3F03F0
3E07F0
7E07F0
7E0FE0
7E0FE0
7C1FE0
FC37C2
FC6FC4
FCCFCC
FF8FF8
FF8FF0
7E07E0
ENDCHAR
STARTCHAR 00FA
ENCODING 250
SWIDTH 540 0
DWIDTH 27 0
BBX 24 35 2 0
BITMAP
00000E
00001F
00003F
00007F
0000FC
0001F8
0003E0
000780
000600
000000
000000
000000
002000
07E07E
7FC07E
3FC07C
0FC0FC
0F80FC
1F80FC
1F81F8
1F81F8
1F01F8
3F03F0
3F03F0
3E07F0
7E07F0
7E0FE0
7E0FE0
7C1FE0
FC37C2
FC6FC4
FCCFCC
FF8FF8
FF8FF0
7E07E0
ENDCHAR
STARTCHAR 00FB
ENCODING 251
SWIDTH 540 0
DWIDTH 27 0
BBX 23 35 2 0
BITMAP
0003E0
0007E0
000FF0
001FF0
001EF8
003C78
00783C
00E01C
01C00E
000000
000000
000000
002000
07E07E
7FC07E
3FC07C
0FC0FC
0F80FC
1F80FC
1F81F8
1F81F8
1F01F8
3F03F0
3F03F0
3E07F0
7E07F0
7E0FE0
7E0FE0
7C1FE0
FC37C2
FC6FC4
FCCFCC
FF8FF8
FF8FF0
7E07E0
ENDCHAR
STARTCHAR 00FC
ENCODING 252
SWIDTH 540 0
DWIDTH 27 0
BBX 24 31 2 0
BITMAP
00F01E
01F83F
01F83F
01F83F
01F83F
00F01E
000000
000000
002000
07E07E
7FC07E
3FC07C
0FC0FC
0F80FC
1F80FC
1F81F8
1F81F8
1F01F8
3F03F0
3F03F0
3E07F0
7E07F0
7E0FE0
7E0FE0
7C1FE0
FC37C2
FC6FC4
FCCFCC
FF8FF8
FF8FF0
7E07E0
ENDCHAR
STARTCHAR 00FD
ENCODING 253
SWIDTH 440 0
DWIDTH 22 0
BBX 27 45 -3 -10
BITMAP
000001C0
000003E0
000007E0
00000FC0
00001F80
00003E00
00007C00
0000F000
0001C000
00000000
00000000
00000000
00000400
00780E00
07F81F00
03FC1F00
01FC1F00
00FC1F00
00FE0F00
007E0700
007E0600
007E0600
007E0C00
003F0C00
003F0C00
003F1800
003F1800
003F3000
001F3000
001FE000
001FE000
001FC000
001F8000
001F8000
000F0000
000F0000
000E0000
001C0000
00180000
00300000
00600000
7CC00000
FF800000
FF000000
FE000000
ENDCHAR
STARTCHAR 00FE
ENCODING 254
SWIDTH 500 0
DWIDTH 25 0
BBX 28 45 -4 -10
BITMAP
00003000
0007F000
003FE000
001FE000
0007E000
0007E000
000FC000
000FC000
000FC000
000FC000
001F8000
001F8000
001F8000
001F8FC0
003F3FE0
003F7FF0
003F47F0
003F83F0
007F03F0
007F03F0
007E03F0
007E03F0
00FC07F0
00FC07F0
00FC07E0
00F80FE0
01F80FC0
01F80FC0
01F01F80
01F01F00
03F03F00
03F07E00
03F0FC00
07FBF000
07FFE000
07E00000
07E00000
0FC00000
0FC00000
0FC00000
0FC00000
1F800000
1F800000
3FC00000
FFF00000
ENDCHAR
STARTCHAR 00FF
ENCODING 255
SWIDTH 440 0
DWIDTH 22 0
BBX 26 41 -3 -10
BITMAP
003C0780
007E0FC0
007E0FC0
007E0FC0
007E0FC0
003C0780
00000000
00000000
00000400
00780E00
07F81F00
03FC1F00
01FC1F00
00FC1F00
00FE0F00
007E0700
007E0600
007E0600
007E0C00
003F0C00
003F0C00
003F1800
003F1800
003F3000
001F3000
001FE000
001FE000
001FC000
001F8000
001F8000
000F0000
000F0000
000E0000
001C0000
00180000
00300000
00600000
7CC00000
FF800000
FF000000
FE000000
ENDCHAR
STARTCHAR 0100
ENCODING 256
SWIDTH 700 0
DWIDTH 35 0
BBX 33 41 0 0
BITMAP
00007FFF80
00007FFF80
0000FFFF80
0000FFFF00
0000000000
0000000000
0000000000
0000010000
0000030000
0000070000
0000078000
00000F8000
00001F8000
00001F8000
00003F8000
00003F8000
00007FC000
0000DFC000
0000DFC000
00019FC000
00039FC000
00031FC000
00060FE000
000E0FE000
000C0FE000
001C0FE000
00380FE000
00300FE000
007007F000
00FFFFF000
00FFFFF000
01C007F000
018007F000
038007F000
070007F800
070003F800
0E0003F800
1E0003F800
3E0007FC00
FF801FFF00
FFC03FFF80
ENDCHAR
STARTCHAR 0101
ENCODING 257
SWIDTH 500 0
DWIDTH 25 0
BBX 24 32 1 -1
BITMAP
01FFFE
03FFFE
03FFFC
03FFFC
000000
000000
000000
000000
000000
003F3E
00FFBE
01F0FE
03E0FC
07E0FC
0FC0FC
1F80F8
1F80F8
3F01F8
3F01F0
7E01F0
7E01F0
FE03F0
FE03E0
FC07E0
FC07E0
FC0FE3
FC1FE6
FE37EC
7FE7F8
7FC7F0
3F83E0
000080
ENDCHAR
STARTCHAR 0102
ENCODING 258
SWIDTH 700 0
DWIDTH 35 0
BBX 33 44 0 0
BITMAP
0000600180
0000700300
0000700700
00007C1F00
00003FFE00
00003FFC00
00000FF000
0000000000
0000000000
0000000000
0000010000
0000030000
0000070000
0000078000
00000F8000
00001F8000
00001F8000
00003F8000
00003F8000
00007FC000
0000DFC000
0000DFC000
00019FC000
00039FC000
00031FC000
00060FE000
000E0FE000
000C0FE000
001C0FE000
00380FE000
00300FE000
007007F000
00FFFFF000
00FFFFF000
01C007F000
018007F000
038007F000
070007F800
070003F800
0E0003F800
1E0003F800
3E0007FC00
FF801FFF00
FFC03FFF80
ENDCHAR
STARTCHAR 0103
ENCODING 259
SWIDTH 500 0
DWIDTH 25 0
BBX 24 35 1 -1
BITMAP
00C003
00E007
00E006
00F01E
007FFC
007FFC
003FF0
000FC0
000000
000000
000000
000000
003F3E
00FFBE
01F0FE
03E0FC
07E0FC
0FC0FC
1F80F8
1F80F8
3F01F8
3F01F0
7E01F0
7E01F0
FE03F0
FE03E0
FC07E0
FC07E0
FC0FE3
FC1FE6
FE37EC
7FE7F8
7FC7F0
3F83E0
000080
ENDCHAR
STARTCHAR 0104
ENCODING 260
SWIDTH 740 0
DWIDTH 37 0
BBX 39 43 0 -9
BITMAP
0000010000
0000030000
0000038000
0000078000
00000F8000
00000F8000
00001F8000
00003F8000
00003FC000
00007FC000
0000DFC000
0000DFC000
00019FC000
00019FC000
00031FE000
00060FE000
00060FE000
000C0FE000
001C0FE000
00180FE000
00300FF000
007007F000
007FFFF000
00FFFFF000
01C007F000
01C007F000
038003F800
070003F800
070003F800
0E0003F800
1E0003F800
1E0003FC00
7F801FFF00
FFC03FFF80
0000000380
0000000700
0000000700
0000000F00
0000000F82
0000000FFE
0000000FFC
00000007F8
00000001F0
ENDCHAR
STARTCHAR 0105
ENCODING 261
SWIDTH 500 0
DWIDTH 25 0
BBX 26 31 1 -8
BITMAP
003F3E00
00FFBE00
01F8FE00
03F0FC00
07E0FC00
0FC0FC00
1F80F800
1F80F800
3F00F800
3F01F000
7F01F000
7E01F000
7E03F000
FE03E000
FC07E000
FC07E000
FC0FE300
FC1FE600
FE37EC00
7FE7FC00
7FC7F800
3F83F000
0001E000
0000E000
0000E000
0001E000
0001F000
0001FFC0
0001FF80
0000FF00
00003C00
ENDCHAR
STARTCHAR 0106
ENCODING 262
SWIDTH 620 0
DWIDTH 31 0
BBX 32 46 2 -1
BITMAP
000000F0
000001F0
000003F0
000007F0
00000FC0
00001F80
00003E00
00003800
00006000
00000000
00000000
0000FF83
0007FFFF
001FE07F
007F803E
00FF001E
01FE001E
03FC000E
07F8000E
0FF0000C
0FF0000C
1FE0000C
1FE0000C
3FC00000
3FC00000
7FC00000
7F800000
7F800000
FF800000
FF800000
FF000000
FF000000
FF000000
FF000000
FF000000
FF000000
FF000000
7F000000
7F800060
7F8000C0
3FC001C0
1FC00380
0FF00F00
07FFFC00
01FFF800
007FC000
ENDCHAR
STARTCHAR 0107
ENCODING 263
SWIDTH 420 0
DWIDTH 21 0
BBX 23 35 1 0
BITMAP
00001C
00003E
00007E
0000FC
0001F8
0003E0
0007C0
000F00
001C00
000000
000000
000000
000000
003FC0
00F9E0
01E1F0
07C3F0
0F83F0
0F83F0
1F01E0
3F0000
3F0000
7E0000
7E0000
FE0000
FE0000
FE0000
FC0000
FC0080
FE0180
FE0300
7F0700
7FFE00
3FFC00
0FF000
ENDCHAR
STARTCHAR 0108
ENCODING 264
SWIDTH 620 0
DWIDTH 31 0
BBX 32 46 2 -1
BITMAP
00000F80
00001F80
00003FC0
00007FC0
0000FBE0
0001F1E0
0003C0F0
00038070
00070038
00000000
00000000
0000FF83
0007FFFF
001FE07F
007F803E
00FF001E
01FE001E
03FC000E
07F8000E
0FF0000C
0FF0000C
1FE0000C
1FE0000C
3FC00000
3FC00000
7FC00000
7F800000
7F800000
FF800000
FF800000
FF000000
FF000000
FF000000
FF000000
FF000000
FF000000
FF000000
7F000000
7F800060
7F8000C0
3FC001C0
1FC00380
0FF00F00
07FFFC00
01FFF800
007FC000
ENDCHAR
STARTCHAR 0109
ENCODING 265
SWIDTH 420 0
DWIDTH 21 0
BBX 22 35 1 0
BITMAP
0003C0
0007C0
000FE0
001FE0
003FF0
007CF0
00F078
01E038
03801C
000000
000000
000000
000000
003FC0
00F9E0
01E1F0
07C3F0
0F83F0
0F83F0
1F01E0
3F0000
3F0000
7E0000
7E0000
FE0000
FE0000
FE0000
FC0000
FC0080
FE0180
FE0300
7F0700
7FFE00
3FFC00
0FF000
ENDCHAR
STARTCHAR 010A
ENCODING 266
SWIDTH 620 0
DWIDTH 31 0
BBX 32 43 2 -1
BITMAP
00000E00
00001F00
00003F80
00003F80
00001F00
00001F00
00000000
00000000
0000FF83
0007FFFF
001FE07F
007F803E
00FF001E
01FE001E
03FC000E
07F8000E
0FF0000C
0FF0000C
1FE0000C
1FE0000C
3FC00000
3FC00000
7FC00000
7F800000
7F800000
FF800000
FF800000
FF000000
FF000000
FF000000
FF000000
FF000000
FF000000
FF000000
7F000000
7F800060
7F8000C0
3FC001C0
1FC00380
0FF00F00
07FFFC00
01FFF800
007FC000
ENDCHAR
STARTCHAR 010B
ENCODING 267
SWIDTH 420 0
DWIDTH 21 0
BBX 20 32 1 0
BITMAP
000100
0007C0
000FC0
000FE0
000FC0
0007C0
000380
000000
000000
000000
003FC0
00F9E0
01E1F0
07C3F0
0F83F0
0F83F0
1F01E0
3F0000
3F0000
7E0000
7E0000
FE0000
FE0000
FE0000
FC0000
FC0080
FE0180
FE0300
7F0700
7FFE00
3FFC00
0FF000
ENDCHAR
STARTCHAR 010C
ENCODING 268
SWIDTH 620 0
DWIDTH 31 0
BBX 32 46 2 -1
BITMAP
0001C01E
0001C038
0000E0F0
0000F1F0
00007BE0
00007FC0
00003F80
00003F00
00001E00
00000000
00000000
0000FF83
0007FFFF
001FE07F
007F803E
00FF001E
01FE001E
03FC000E
07F8000E
0FF0000C
0FF0000C
1FE0000C
1FE0000C
3FC00000
3FC00000
7FC00000
7F800000
7F800000
FF800000
FF800000
FF000000
FF000000
FF000000
FF000000
FF000000
FF000000
FF000000
7F000000
7F800060
7F8000C0
3FC001C0
1FC00380
0FF00F00
07FFFC00
01FFF800
007FC000
ENDCHAR
STARTCHAR 010D
ENCODING 269
SWIDTH 420 0
DWIDTH 21 0
BBX 25 35 1 0
BITMAP
00E00380
00700F00
00781E00
003C3C00
003EF800
001FF000
001FE000
000FC000
000F8000
00000000
00000000
00000000
00000000
003FC000
00F9E000
01E1F000
07C3F000
0F83F000
0F83F000
1F01E000
3F000000
3F000000
7E000000
7E000000
FE000000
FE000000
FE000000
FC000000
FC008000
FE018000
FE030000
7F070000
7FFE0000
3FFC0000
0FF00000
ENDCHAR
STARTCHAR 010E
ENCODING 270
SWIDTH 720 0
DWIDTH 36 0
BBX 37 45 0 0
BITMAP
0000E00700
0000701E00
0000783C00
00003CF800
00003FF000
00001FE000
00001FC000
00000F8000
00000F0000
0000000000
0000000000
0000000000
01FFFFE000
00FFFFFC00
001FC07F00
001FC01F80
003FC01FC0
003F800FE0
003F800FE0
003F8007F0
007F8007F0
007F0007F8
007F0007F8
00FF0007F8
00FF0007F8
00FE0007F8
00FE0007F8
01FE0007F8
01FC000FF8
01FC000FF8
01FC000FF0
03FC000FF0
03F8001FF0
03F8001FE0
03F8003FE0
07F8003FC0
07F0007F80
07F0007F80
0FF000FF00
0FF001FE00
0FE003F800
1FE007F000
1FE01FC000
7FFFFF0000
FFFFF00000
ENDCHAR
STARTCHAR 010F
ENCODING 271
SWIDTH 600 0
DWIDTH 30 0
BBX 37 36 1 -1
BITMAP
0000002000
000007E070
0000FFE0F8
00003FC1F8
00000FC1F0
00001FC3F0
00001F83E0
00001F87C0
00001F8780
00003F8F00
00003F1E00
00003F0000
00003F0000
003FFF0000
00FFFE0000
01F0FE0000
03E0FE0000
07E0FC0000
0FC0FC0000
1F80FC0000
1F81FC0000
3F01F80000
3F01F80000
7E01F80000
7E03F00000
7E03F00000
FE07F00000
FC07E00000
FC0FE20000
FC0FE20000
FC1FE60000
FE37EC0000
7FE7F80000
7FC7F00000
3F83E00000
0400000000
ENDCHAR
STARTCHAR 0110
ENCODING 272
SWIDTH 720 0
DWIDTH 36 0
BBX 37 33 0 0
BITMAP
01FFFFE000
00FFFFFC00
001FC07F00
001FC01F80
003FC01FC0
003F800FE0
003F800FE0
003F8007F0
007F8007F0
007F0007F8
007F0007F8
007F0007F8
00FF0007F8
00FE0007F8
00FE0007F8
3FFFF807F8
3FFFF80FF8
01FC000FF8
01FC000FF0
03FC000FF0
03F8001FF0
03F8001FE0
03F8003FE0
07F8003FC0
07F0007F80
07F0007F80
0FF000FF00
0FF001FE00
0FE003F800
1FE007F000
1FE01FC000
7FFFFF0000
FFFFF00000
ENDCHAR
STARTCHAR 0111
ENCODING 273
SWIDTH 500 0
DWIDTH 25 0
BBX 28 35 1 -1
BITMAP
000007C0
0000FFC0
00003FC0
00001FC0
00001F80
00001F80
00001F80
000FFFF0
001FFFE0
00003F00
00003F00
00007E00
003FFE00
00FFFE00
01F0FC00
03E0FC00
07E0FC00
0FC0FC00
1F80F800
1F81F800
3F01F800
3F01F800
7E03F000
7E03F000
7E03F000
FE07E000
FC07E000
FC0FE200
FC0FE200
FC1FE600
FE77EC00
7FE7F800
7FC7F000
3F83E000
04000000
ENDCHAR
STARTCHAR 0112
ENCODING 274
SWIDTH 640 0
DWIDTH 32 0
BBX 34 41 0 0
BITMAP
0000FFFF00
0000FFFF00
0001FFFF00
0001FFFE00
0000000000
0000000000
0000000000
0000000000
01FFFFFFC0
00FFFFFFC0
003FE00FC0
001FC007C0
003FC00380
003FC00180
003F800180
003F800180
007F800180
007F004000
007F00C000
007F00C000
00FF01C000
00FE03C000
00FFFF8000
01FFFF8000
01FE1F8000
01FC078000
01FC030000
03FC030000
03F8030000
03F8030000
03F8030000
07F8000200
07F0000600
07F0000C00
0FF0001C00
0FF0003C00
0FE0007800
0FE001F800
1FE007F800
7FFFFFF000
FFFFFFF000
ENDCHAR
STARTCHAR 0113
ENCODING 275
SWIDTH 420 0
DWIDTH 21 0
BBX 22 31 1 0
BITMAP
03FFFC
07FFFC
07FFF8
07FFF8
000000
000000
000000
000000
000000
003FC0
00F3E0
03E1E0
07C1F0
0FC1F0
0F81E0
1F83E0
3F03C0
3F0780
7F1F00
7E7E00
FFF000
FF8000
FE0000
FE0000
FE0180
FE0380
FE0700
7E0E00
7FFC00
3FF800
0FF000
ENDCHAR
STARTCHAR 0114
ENCODING 276
SWIDTH 640 0
DWIDTH 32 0
BBX 34 44 0 0
BITMAP
0000E00300
0000E00700
0000E00700
0000701E00
00007FFC00
00007FFC00
00003FF000
000007C000
0000000000
0000000000
0000000000
01FFFFFFC0
00FFFFFFC0
003FE00FC0
001FC007C0
003FC00380
003FC00180
003F800180
003F800180
007F800180
007F004000
007F00C000
007F00C000
00FF01C000
00FE03C000
00FFFF8000
01FFFF8000
01FE1F8000
01FC078000
01FC030000
03FC030000
03F8030000
03F8030000
03F8030000
07F8000200
07F0000600
07F0000C00
0FF0001C00
0FF0003C00
0FE0007800
0FE001F800
1FE007F800
7FFFFFF000
FFFFFFF000
ENDCHAR
STARTCHAR 0115
ENCODING 277
SWIDTH 420 0
DWIDTH 21 0
BBX 23 33 1 0
BITMAP
00C006
00C00E
00E01E
00FEFC
007FF8
003FF0
001FE0
000000
000000
000000
000000
003FC0
00F3E0
03E1E0
07C1F0
0FC1F0
0F81E0
1F83E0
3F03C0
3F0780
7F1F00
7E7E00
FFF000
FF8000
FE0000
FE0000
FE0180
FE0380
FE0700
7E0E00
7FFC00
3FF800
0FF000
ENDCHAR
STARTCHAR 0116
ENCODING 278
SWIDTH 640 0
DWIDTH 32 0
BBX 34 43 0 0
BITMAP
0000038000
000007E000
000007E000
000007E000
000007E000
000003C000
0000000000
0000000000
0000000000
0000000000
01FFFFFFC0
00FFFFFFC0
003FE00FC0
001FC007C0
003FC00380
003FC00180
003F800180
003F800180
007F800180
007F004000
007F00C000
007F00C000
00FF01C000
00FE03C000
00FFFF8000
01FFFF8000
01FE1F8000
01FC078000
01FC030000
03FC030000
03F8030000
03F8030000
03F8030000
07F8000200
07F0000600
07F0000C00
0FF0001C00
0FF0003C00
0FE0007800
0FE001F800
1FE007F800
7FFFFFF000
FFFFFFF000
ENDCHAR
STARTCHAR 0117
ENCODING 279
SWIDTH 420 0
DWIDTH 21 0
BBX 20 31 1 1
BITMAP
0007C0
000FC0
000FE0
000FE0
0007C0
000380
000000
000000
000000
003FC0
00F3E0
03E1E0
07C1F0
0FC1F0
0F81E0
1F83E0
3F03C0
3F0780
7F1F00
7E7E00
FFF000
FF8000
FE0000
FE0000
FE0180
FE0380
FE0700
7E0E00
7FFC00
3FF800
0FF000
ENDCHAR
STARTCHAR 0118
ENCODING 280
SWIDTH 600 0
DWIDTH 30 0
BBX 35 42 0 -9
BITMAP
01FFFFFFC0
00FFFFFFC0
003FE00FC0
001FC007C0
003FC00380
003FC00180
003F800180
003F800180
007F800180
007F002000
007F006000
007F006000
00FF00E000
00FE03C000
00FFFFC000
01FFFFC000
01FE1F8000
01FC078000
01FC038000
03FC030000
03F8030000
03F8030000
03F8030000
07F8000200
07F0000600
07F0000C00
0FF0001C00
0FF0003C00
0FE0007800
0FE001F800
1FE007F800
7FFFFFF000
FFFFFFF000
0000003000
0000006000
000000E000
000001E000
000001F000
000001FFE0
000001FFC0
000000FF80
0000003E00
ENDCHAR
STARTCHAR 0119
ENCODING 281
SWIDTH 420 0
DWIDTH 21 0
BBX 20 31 1 -8
BITMAP
003FC0
00F3E0
03E1E0
07C1F0
0F81F0
0F81E0
1F83E0
3F03C0
3F0780
7F1F00
7E7E00
FFF000
FF8000
FE0000
FE0000
FE0180
FE0300
FE0700
7E0E00
7FFC00
3FF800
1FF800
003000
007000
007000
00F000
00F820
00FFF0
00FFE0
007FC0
001F00
ENDCHAR
STARTCHAR 011A
ENCODING 282
SWIDTH 660 0
DWIDTH 33 0
BBX 34 45 0 0
BITMAP
0001C01E00
0001E03C00
0000F07800
0000F1F000
00007BE000
00007FC000
00003F8000
00003F0000
00001E0000
0000000000
0000000000
0000000000
01FFFFFFC0
00FFFFFFC0
003FE00FC0
001FC007C0
003FC00380
003FC00180
003F800180
003F800180
007F800180
007F004000
007F00C000
007F00C000
00FF01C000
00FE03C000
00FFFF8000
01FFFF8000
01FE1F8000
01FC078000
01FC030000
03FC030000
03F8030000
03F8030000
03F8030000
07F8000200
07F0000600
07F0000C00
0FF0001C00
0FF0003C00
0FE0007800
0FE001F800
1FE007F800
7FFFFFF000
FFFFFFF000
ENDCHAR
STARTCHAR 011B
ENCODING 283
SWIDTH 420 0
DWIDTH 21 0
BBX 25 35 1 0
BITMAP
00E00380
00700F00
00781E00
003C3C00
003EF800
001FF000
001FE000
000FC000
000F8000
00000000
00000000
00000000
00000000
003FC000
00F3E000
03E1E000
07C1F000
0FC1F000
0F81E000
1F83E000
3F03C000
3F078000
7F1F0000
7E7E0000
FFF00000
FF800000
FE000000
FE000000
FE018000
FE038000
FE070000
7E0E0000
7FFC0000
3FF80000
0FF00000
ENDCHAR
STARTCHAR 011C
ENCODING 284
SWIDTH 700 0
DWIDTH 35 0
BBX 34 46 2 -1
BITMAP
0000078000
00000FC000
00001FC000
00003FE000
00007DE000
0000F8F000
0001E07000
0003C03800
0007001800
0000000000
0000000000
00007FC080
0007FFFF80
001FE03F80
003F801F80
00FF000F00
01FE000F00
03FC000F00
07F8000600
07F0000600
0FF0000600
1FE0000600
1FE0000000
3FC0000000
3FC0000000
7FC0000000
7F80000000
7F80000000
FF80000000
FF800FFFC0
FF0003FF80
FF0000FE00
FF0000FE00
FF0001FE00
FF0001FC00
FF0001FC00
FF0001FC00
7F0003F800
7F0003F800
3F8003F800
3F8003F800
1FC007F000
0FE007F000
03F00FE000
01FFFF8000
003FF00000
ENDCHAR
STARTCHAR 011D
ENCODING 285
SWIDTH 500 0
DWIDTH 25 0
BBX 27 45 -1 -10
BITMAP
0000F000
0001F000
0003F800
0007F800
000FFC00
001F3C00
003C1E00
00780E00
00E00700
00000000
00000000
00000000
00000000
003FF000
00FC7FE0
01F83FE0
03F03FE0
07E03F00
07E03F00
0FC03F00
0FC07F00
0FC07E00
0FC07E00
0FC0FC00
07C1FC00
07C3F800
01FFE000
01FF0000
07000000
0F000000
1F800000
1FF00000
1FFF0000
0FFFE000
07FFF000
0FFFF800
3C1FF800
7803F800
F801F800
F000F800
F000F800
F801F000
7C03E000
3FFF8000
07FC0000
ENDCHAR
STARTCHAR 011E
ENCODING 286
SWIDTH 700 0
DWIDTH 35 0
BBX 34 45 2 -1
BITMAP
0001800600
0001C00E00
0001C01C00
0000F07C00
0000FFF800
00007FF000
00003FE000
0000000000
0000000000
0000000000
00007FC080
0007FFFF80
001FE03F80
003F801F80
00FF000F00
01FE000F00
03FC000F00
07F8000600
07F0000600
0FF0000600
1FE0000600
1FE0000000
3FC0000000
3FC0000000
7FC0000000
7F80000000
7F80000000
FF80000000
FF800FFFC0
FF0003FF80
FF0000FE00
FF0000FE00
FF0001FE00
FF0001FC00
FF0001FC00
FF0001FC00
7F0003F800
7F0003F800
3F8003F800
3F8003F800
1FC007F000
0FE007F000
03F00FE000
01FFFF8000
003FF00000
ENDCHAR
STARTCHAR 011F
ENCODING 287
SWIDTH 500 0
DWIDTH 25 0
BBX 27 44 -1 -10
BITMAP
00600180
00700380
00700300
00780F00
003FFE00
003FFE00
001FF800
0007E000
00000000
00000000
00000000
00000000
003FF000
00FC7FE0
01F83FE0
03F03FE0
07E03F00
07E03F00
0FC03F00
0FC07F00
0FC07E00
0FC07E00
0FC0FC00
07C1FC00
07C3F800
01FFE000
01FF0000
07000000
0F000000
1F800000
1FF00000
1FFF0000
0FFFE000
07FFF000
0FFFF800
3C1FF800
7803F800
F801F800
F000F800
F000F800
F801F000
7C03E000
3FFF8000
07FC0000
ENDCHAR
STARTCHAR 0120
ENCODING 288
SWIDTH 700 0
DWIDTH 35 0
BBX 34 43 2 -1
BITMAP
00000F0000
00000F8000
00001FC000
00001FC000
00000F8000
00000F8000
0000000000
0000000000
00007FC080
0007FFFF80
001FE03F80
003F801F80
00FF000F00
01FE000F00
03FC000F00
07F8000600
07F0000600
0FF0000600
1FE0000600
1FE0000000
3FC0000000
3FC0000000
7FC0000000
7F80000000
7F80000000
FF80000000
FF800FFFC0
FF0003FF80
FF0000FE00
FF0000FE00
FF0001FE00
FF0001FC00
FF0001FC00
FF0001FC00
7F0003F800
7F0003F800
3F8003F800
3F8003F800
1FC007F000
0FE007F000
03F00FE000
01FFFF8000
003FF00000
ENDCHAR
STARTCHAR 0121
ENCODING 289
SWIDTH 500 0
DWIDTH 25 0
BBX 27 41 -1 -10
BITMAP
0003C000
0007E000
0007F000
0007F000
0007E000
0003C000
00000000
00000000
00000000
003FF000
00FC7FE0
01F83FE0
03F03FE0
07E03F00
07E03F00
0FC03F00
0FC07F00
0FC07E00
0FC07E00
0FC0FC00
07C1FC00
07C3F800
01FFE000
01FF0000
07000000
0F000000
1F800000
1FF00000
1FFF0000
0FFFE000
07FFF000
0FFFF800
3C1FF800
7803F800
F801F800
F000F800
F000F800
F801F000
7C03E000
3FFF8000
07FC0000
ENDCHAR
STARTCHAR 0122
ENCODING 290
SWIDTH 700 0
DWIDTH 35 0
BBX 34 49 2 -15
BITMAP
00007FC080
0007FFFF80
001FE03F80
003F801F80
00FF000F00
01FE000F00
03FC000F00
07F8000600
07F0000600
0FF0000600
1FE0000600
1FE0000000
3FC0000000
3FC0000000
7FC0000000
7F80000000
7F80000000
FF80000000
FF800FFFC0
FF0003FF80
FF0000FE00
FF0000FE00
FF0001FE00
FF0001FC00
FF0001FC00
FF0001FC00
7F0003F800
7F0003F800
3F8003F800
3F8003F800
1FC007F000
0FE007F000
03F00FE000
01FFFF8000
003FF00000
0000000000
0000000000
003C000000
007E000000
00FE000000
00FE000000
00FE000000
007E000000
000E000000
001C000000
0038000000
0070000000
01C0000000
0100000000
ENDCHAR
STARTCHAR 0123
ENCODING 291
SWIDTH 500 0
DWIDTH 25 0
BBX 27 47 -1 -10
BITMAP
00003000
0000E000
0001C000
00038000
00070000
000E0000
000FC000
000FE000
000FE000
000FE000
000FC000
00078000
00000000
00000000
00000000
003FF000
00FC7FE0
01F83FE0
03F03FE0
07E03F00
07E03F00
0FC03F00
0FC07F00
0FC07E00
0FC07E00
0FC0FC00
07C1FC00
07C3F800
01FFE000
01FF0000
07000000
0F000000
1F800000
1FF00000
1FFF0000
0FFFE000
07FFF000
0FFFF800
3C1FF800
7803F800
F801F800
F000F800
F000F800
F801F000
7C03E000
3FFF8000
07FC0000
ENDCHAR
STARTCHAR 0124
ENCODING 292
SWIDTH 760 0
DWIDTH 38 0
BBX 41 45 0 0
BITMAP
000000F80000
000001F80000
000003FC0000
000007FC0000
00000FBE0000
00001F1E0000
00001C0F0000
000038070000
000070038000
000000000000
000000000000
000000000000
01FFFE3FFF80
00FFF81FFF00
001FE003FC00
001FC003FC00
003FC003F800
003FC007F800
003F8007F800
003F8007F000
007F8007F000
007F000FF000
007F000FE000
007F000FE000
00FF000FE000
00FE001FE000
00FE001FC000
01FFFFFFC000
01FFFFFFC000
01FC003FC000
01FC003F8000
03FC003F8000
03F8007F8000
03F8007F0000
03F8007F0000
07F8007F0000
07F000FF0000
07F000FE0000
0FF000FE0000
0FF001FE0000
0FE001FE0000
0FE001FC0000
1FE003FE0000
7FF81FFF0000
FFFE3FFFC000
ENDCHAR
STARTCHAR 0125
ENCODING 293
SWIDTH 540 0
DWIDTH 27 0
BBX 27 45 1 0
BITMAP
00003E00
00007E00
0000FF00
0001FF00
0003EF80
00078780
000F03C0
001E01C0
003800E0
00000000
00060000
00FE0000
07FE0000
01FC0000
00FC0000
00FC0000
00FC0000
01F80000
01F80000
01F80000
01F80000
03F00000
03F00000
03F07E00
03E1FF00
07E3FF00
07E73F00
07EE3F00
0FCC3F00
0FD83F00
0FF07E00
0FE07E00
1FE07E00
1FC0FE00
1FC0FC00
1F80FC00
3F81FC00
3F01F800
3F01F880
7F03F880
7E03F180
7E03F300
7E03FE00
FC03FC00
FC01F800
ENDCHAR
STARTCHAR 0126
ENCODING 294
SWIDTH 760 0
DWIDTH 38 0
BBX 41 33 0 0
BITMAP
01FFFE3FFF80
00FFF81FFF00
001FE003FC00
001FC003F800
03FFFFFFFF00
03FFFFFFFF00
07FFFFFFFF00
003F8007F000
007F8007F000
007F800FF000
007F000FF000
007F000FE000
00FF000FE000
00FF001FE000
00FE001FC000
00FFFFFFC000
01FFFFFFC000
01FC003FC000
01FC003F8000
03FC003F8000
03FC007F8000
03F8007F0000
03F8007F0000
07F8007F0000
07F800FF0000
07F000FE0000
07F000FE0000
0FF001FE0000
0FE001FE0000
0FE001FC0000
1FE003FE0000
7FFC1FFF8000
FFFE3FFFC000
ENDCHAR
STARTCHAR 0127
ENCODING 295
SWIDTH 540 0
DWIDTH 27 0
BBX 25 34 1 1
BITMAP
007E0000
07FE0000
01FE0000
00FC0000
00FC0000
1FFFFE00
1FFFFE00
1FFFFE00
01F80000
01F80000
03F00000
03F00000
03F07E00
03F1FF00
07E3FF00
07E73F00
07EE3F00
0FCC3F00
0FD87F00
0FF07E00
0FE07E00
1FE0FE00
1FC0FC00
1FC0FC00
1F80FC00
3F81F800
3F01F800
3F01F880
7F03F880
7E03F180
7E03F300
7E03FE00
FC03FC00
FC01F800
ENDCHAR
STARTCHAR 0128
ENCODING 296
SWIDTH 380 0
DWIDTH 19 0
BBX 25 42 0 0
BITMAP
000E0180
003FC380
00FFFF00
00FFFE00
0183FC00
03807800
00000000
00000000
00000000
01FFFC00
00FFF800
001FE000
001FC000
003FC000
003F8000
003F8000
003F8000
007F8000
007F0000
007F0000
007F0000
00FF0000
00FE0000
00FE0000
01FE0000
01FC0000
01FC0000
01FC0000
03FC0000
03F80000
03F80000
03F80000
07F80000
07F00000
07F00000
0FF00000
0FE00000
0FE00000
0FE00000
1FE00000
7FF80000
FFFE0000
ENDCHAR
STARTCHAR 0129
ENCODING 297
SWIDTH 300 0
DWIDTH 15 0
BBX 19 31 1 0
BITMAP
0FE0E0
3FFFC0
7FFF80
73FF00
C07E00
000000
000000
000000
000000
01F000
3FF000
1FE000
07E000
07E000
07C000
0FC000
0FC000
0FC000
0F8000
1F8000
1F8000
1F8000
1F0000
3F0000
3F1000
3E1000
7E3000
7E6000
7FC000
7F8000
3F0000
ENDCHAR
STARTCHAR 012A
ENCODING 298
SWIDTH 380 0
DWIDTH 19 0
BBX 24 41 0 0
BITMAP
00FFFF
00FFFF
01FFFF
01FFFE
000000
000000
000000
000000
01FFFC
00FFF8
001FE0
001FC0
003FC0
003F80
003F80
003F80
007F80
007F00
007F00
007F00
00FF00
00FE00
00FE00
01FE00
01FC00
01FC00
01FC00
03FC00
03F800
03F800
03F800
07F800
07F000
07F000
0FF000
0FE000
0FE000
0FE000
1FE000
7FF800
FFFE00
ENDCHAR
STARTCHAR 012B
ENCODING 299
SWIDTH 300 0
DWIDTH 15 0
BBX 16 30 2 0
BITMAP
FFFF
FFFF
FFFF
0000
0000
0000
0000
0000
03E0
7FE0
3FC0
0FC0
0FC0
0F80
1F80
1F80
1F80
1F00
3F00
3F00
3F00
3E00
7E00
7E20
7C20
FC60
FCC0
FF80
FF00
7E00
ENDCHAR
STARTCHAR 012C
ENCODING 300
SWIDTH 380 0
DWIDTH 19 0
BBX 26 44 0 0
BITMAP
003000C0
00300180
00380380
003C0700
003FFF00
001FFE00
000FFC00
0003E000
00000000
00000000
00000000
01FFFC00
00FFF800
001FE000
001FC000
003FC000
003F8000
003F8000
003F8000
007F8000
007F0000
007F0000
007F0000
00FF0000
00FE0000
00FE0000
01FE0000
01FC0000
01FC0000
01FC0000
03FC0000
03F80000
03F80000
03F80000
07F80000
07F00000
07F00000
0FF00000
0FE00000
0FE00000
0FE00000
1FE00000
7FF80000
FFFE0000
ENDCHAR
STARTCHAR 012D
ENCODING 301
SWIDTH 300 0
DWIDTH 15 0
BBX 18 33 2 0
BITMAP
3001C0
380180
380780
3FBF00
1FFF00
0FFC00
07F800
000000
000000
000000
000000
03E000
7FE000
3FC000
0FC000
0FC000
0F8000
1F8000
1F8000
1F8000
1F0000
3F0000
3F0000
3F0000
3E0000
7E0000
7E2000
7C2000
FC6000
FCC000
FF8000
FF0000
7E0000
ENDCHAR
STARTCHAR 012E
ENCODING 302
SWIDTH 420 0
DWIDTH 21 0
BBX 21 42 1 -9
BITMAP
01FFF8
00FFF0
003FC0
003F80
003F80
007F00
007F00
007F00
00FF00
00FE00
00FE00
00FE00
01FE00
01FC00
01FC00
03FC00
03F800
03F800
03F800
07F800
07F000
07F000
07F000
0FF000
0FE000
0FE000
1FE000
1FE000
1FE000
1FE000
3FE000
7FF800
FFFC00
001C00
003800
003800
007800
007C10
007FF0
007FE0
003FC0
000F80
ENDCHAR
STARTCHAR 012F
ENCODING 303
SWIDTH 300 0
DWIDTH 15 0
BBX 14 43 2 -9
BITMAP
00E0
01F0
03F8
03F8
03F8
01F0
00E0
0000
0000
0000
0000
0000
0FE0
3FE0
0FC0
0FC0
0FC0
0F80
1F80
1F80
1F80
1F00
3F00
3F00
3F00
3E00
7E00
7E30
7C20
FC40
FCC0
FF80
FF00
3F00
0E00
0E00
1E00
1E00
1F00
1FFC
1FF8
0FF0
03C0
ENDCHAR
STARTCHAR 0130
ENCODING 304
SWIDTH 380 0
DWIDTH 19 0
BBX 22 43 0 0
BITMAP
0003C0
0007E0
0007E0
0007E0
0007E0
0003C0
000000
000000
000000
000000
01FFFC
00FFF8
001FE0
001FC0
003FC0
003F80
003F80
003F80
007F80
007F00
007F00
007F00
00FF00
00FE00
00FE00
01FE00
01FC00
01FC00
01FC00
03FC00
03F800
03F800
03F800
07F800
07F000
07F000
0FF000
0FE000
0FE000
0FE000
1FE000
7FF800
FFFE00
ENDCHAR
STARTCHAR 0131
ENCODING 305
SWIDTH 300 0
DWIDTH 15 0
BBX 11 22 2 1
BITMAP
03E0
7FE0
3FC0
0FC0
0FC0
0F80
1F80
1F80
1F80
1F00
3F00
3F00
3F00
3E00
7E00
7E20
7C20
FC60
FCC0
FF80
FF00
7E00
ENDCHAR
STARTCHAR 0132
ENCODING 306
SWIDTH 840 0
DWIDTH 42 0
BBX 45 38 0 -5
BITMAP
01FFFC03FFF8
00FFF801FFF0
001FE0003FC0
001FC0003FC0
003FC0003F80
003F80003F80
003F80007F80
003F80007F00
007F80007F00
007F0000FF00
007F0000FF00
007F0000FE00
00FF0000FE00
00FE0001FE00
00FE0001FE00
01FE0001FC00
01FC0001FC00
01FC0003FC00
01FC0003F800
03FC0003F800
03F80003F800
03F80007F800
03F80007F000
07F80007F000
07F0000FF000
07F0000FF000
0FF0000FE000
0FE0000FE000
0FE0001FE000
0FE0001FC000
1FE0381FC000
7FF87C1FC000
FFFE7E3F8000
00007E3F8000
00007C7F0000
00007C7E0000
00001FFC0000
000007F00000
ENDCHAR
STARTCHAR 0133
ENCODING 307
SWIDTH 520 0
DWIDTH 26 0
BBX 26 44 2 -10
BITMAP
00E00700
01F00F80
03F81FC0
03F81FC0
03F81FC0
01F00F80
00E00700
00000000
00000000
00000000
00000000
00000080
07E01F00
7FE3FF00
3FC0FF00
0FC07E00
0FC07E00
0F807E00
0F80FE00
1F80FC00
1F00FC00
1F01FC00
3F01FC00
3F03F800
7E03F800
7E07F800
7E0DF800
7C19F000
FC1BF000
FC33F000
FCE3F000
FFC3E000
FF87E000
7F07E000
0007E000
0007C000
000FC000
000F8000
060F8000
0F0F0000
0F1F0000
0F1E0000
07FC0000
03F00000
ENDCHAR
STARTCHAR 0134
ENCODING 308
SWIDTH 500 0
DWIDTH 25 0
BBX 29 50 0 -5
BITMAP
00000F80
00001F80
00001FC0
00003FC0
00007FE0
0000F1E0
0001E0F0
00038070
00070038
00000000
00000000
00000000
0003FFF8
0001FFF0
00007F80
00007F80
00007F00
00007F00
00007F00
0000FF00
0000FE00
0000FE00
0001FE00
0001FE00
0001FC00
0001FC00
0003FC00
0003FC00
0003F800
0003F800
0007F800
0007F000
0007F000
0007F000
000FF000
000FE000
000FE000
000FE000
001FE000
001FC000
001FC000
003FC000
303F8000
7C3F8000
FC3F8000
FC7F0000
FC7E0000
78FC0000
3FF80000
0FE00000
ENDCHAR
STARTCHAR 0135
ENCODING 309
SWIDTH 340 0
DWIDTH 17 0
BBX 25 45 -4 -10
BITMAP
00007800
0000F800
0001FC00
0003FC00
0007FE00
000F9E00
001E0F00
003C0700
00700380
00000000
00000000
00000000
00000000
0007F800
001FF800
0003F800
0003F800
0003F000
0003F000
0003F000
0003F000
0007E000
0007E000
0007E000
0007E000
000FC000
000FC000
000FC000
000FC000
001F8000
001F8000
001F8000
001F0000
003F0000
003F0000
003F0000
007E0000
007E0000
007C0000
607C0000
F0F80000
F0F80000
F1F00000
7FC00000
3F000000
ENDCHAR
STARTCHAR 0136
ENCODING 310
SWIDTH 660 0
DWIDTH 33 0
BBX 36 48 0 -15
BITMAP
01FFFC3FF0
00FFF81FE0
001FE00F80
001FC00F00
003FC01E00
003F803800
003F807000
003F80E000
007F81C000
007F038000
007F070000
007F0E0000
00FF1C0000
00FE780000
00FEF80000
01FFFC0000
01FFFC0000
01FDFE0000
01FCFE0000
03FCFF0000
03F87F0000
03F87F0000
03F83F8000
07F83F8000
07F01FC000
07F01FC000
0FF01FE000
0FF00FE000
0FE00FF000
1FE007F000
1FE007F800
7FF81FFE00
FFFC3FFF00
0000000000
0000000000
0000000000
003C000000
007E000000
00FE000000
00FE000000
00FE000000
007E000000
000E000000
001C000000
0038000000
0070000000
01C0000000
0100000000
ENDCHAR
STARTCHAR 0137
ENCODING 311
SWIDTH 500 0
DWIDTH 25 0
BBX 25 50 1 -15
BITMAP
00060000
00FE0000
07FE0000
01FC0000
00FC0000
00FC0000
00FC0000
00F80000
01F80000
01F80000
01F80000
03F00000
03F00000
03F1FF80
03E0FF00
07E07C00
07E07000
07E0E000
07C1C000
0FC38000
0FC70000
0FDE0000
1FBF0000
1FFF0000
1FFF0000
1F9F0000
3F1F8000
3F1F8000
3F1F8000
3E0F8200
7E0FC600
7E0FCC00
7E07F800
FC07F800
FC03E000
00000000
00000000
00000000
01E00000
03F00000
07F00000
07F00000
07F00000
03F00000
00700000
00E00000
01C00000
03800000
07000000
0C000000
ENDCHAR
STARTCHAR 0138
ENCODING 312
SWIDTH 520 0
DWIDTH 26 0
BBX 26 23 1 0
BITMAP
00000F80
0FF01F80
3FE07FC0
0FE07F80
07E0E700
07C1C000
0FC38000
0FC38000
0FC70000
1F9E0000
1FFC0000
1FFE0000
1F7F0000
3F3F8000
3F3F8000
3F1FC000
3E1FC000
7E0FE000
7E0FE000
7C0FE000
FC07F000
FC07F000
FC07F800
ENDCHAR
STARTCHAR 0139
ENCODING 313
SWIDTH 600 0
DWIDTH 30 0
BBX 30 45 0 0
BITMAP
00000380
000007C0
00000FC0
00001F80
00003F00
00007C00
0000F000
0001E000
00038000
00000000
00000000
00000000
01FFFE00
00FFF800
001FE000
001FC000
003FC000
003F8000
003F8000
003F8000
007F8000
007F0000
007F0000
007F0000
00FE0000
00FE0000
00FE0000
01FE0000
01FC0000
01FC0000
01FC0000
03FC0000
03F80000
03F80000
03F80000
07F80004
07F0000C
07F0001C
0FF00018
0FE00038
0FE000F8
1FE001F0
1FE00FF0
7FFFFFF0
FFFFFFE0
ENDCHAR
STARTCHAR 013A
ENCODING 314
SWIDTH 300 0
DWIDTH 15 0
BBX 18 45 2 0
BITMAP
000380
0007C0
000FC0
001F80
003F00
007C00
00F000
01C000
038000
000000
000400
01FC00
0FFC00
03F800
01F800
01F800
01F800
01F000
03F000
03F000
03F000
07E000
07E000
07E000
07C000
0FC000
0FC000
0FC000
1F8000
1F8000
1F8000
1F0000
3F0000
3F0000
3F0000
7E0000
7E0000
7E0000
7E3000
FC2000
FC6000
FCC000
FF8000
FF0000
7E0000
ENDCHAR
STARTCHAR 013B
ENCODING 315
SWIDTH 600 0
DWIDTH 30 0
BBX 30 48 0 -15
BITMAP
01FFFE00
00FFF800
001FE000
001FC000
003FC000
003F8000
003F8000
003F8000
007F8000
007F0000
007F0000
007F0000
00FE0000
00FE0000
00FE0000
01FE0000
01FC0000
01FC0000
01FC0000
03FC0000
03F80000
03F80000
03F80000
07F80004
07F0000C
07F0001C
0FF00018
0FE00038
0FE000F8
1FE001F0
1FE00FF0
7FFFFFF0
FFFFFFE0
00000000
00000000
00000000
000F0000
001F8000
003F8000
003F8000
003F8000
001F8000
00038000
00070000
000E0000
001C0000
00700000
00400000
ENDCHAR
STARTCHAR 013C
ENCODING 316
SWIDTH 300 0
DWIDTH 15 0
BBX 17 50 -1 -15
BITMAP
000080
003F80
01FF80
007F80
003F00
003F00
003F00
003E00
007E00
007E00
007E00
00FC00
00FC00
00FC00
00F800
01F800
01F800
01F800
01F000
03F000
03F000
03F000
07E000
07E000
07E000
07C000
0FC000
0FC000
0FC600
1F8400
1F8C00
1F9800
1FF000
1FE000
0FC000
000000
000000
000000
1E0000
3F0000
7F0000
7F0000
7F0000
3F0000
070000
0E0000
1C0000
380000
E00000
800000
ENDCHAR
STARTCHAR 013D
ENCODING 317
SWIDTH 640 0
DWIDTH 32 0
BBX 34 34 0 0
BITMAP
0000000380
01FFFE07C0
00FFF80FC0
001FE00F80
001FC01F80
003FC01F00
003F803E00
003F803C00
003F807800
007F80F000
007F000000
007F000000
007F000000
00FE000000
00FE000000
00FE000000
01FE000000
01FC000000
01FC000000
01FC000000
03FC000000
03F8000000
03F8000000
03F8000000
07F8000400
07F0000C00
07F0001C00
0FF0001800
0FE0003800
0FE000F800
1FE001F000
1FE00FF000
7FFFFFF000
FFFFFFE000
ENDCHAR
STARTCHAR 013E
ENCODING 318
SWIDTH 380 0
DWIDTH 19 0
BBX 25 35 2 0
BITMAP
00040000
01FC0700
0FFC0F80
03F81F80
01F81F00
01F83F00
01F83E00
01F07C00
03F07800
03F0F000
03F1E000
07E00000
07E00000
07E00000
07C00000
0FC00000
0FC00000
0FC00000
1F800000
1F800000
1F800000
1F000000
3F000000
3F000000
3F000000
7E000000
7E000000
7E000000
7E300000
FC200000
FC600000
FCC00000
FF800000
FF000000
7E000000
ENDCHAR
STARTCHAR 013F
ENCODING 319
SWIDTH 600 0
DWIDTH 30 0
BBX 30 33 0 0
BITMAP
01FFFE00
00FFF800
001FE000
001FC000
003FC000
003F8000
003F8000
003F8000
007F8000
007F0000
007F0000
007F0000
00FE0000
00FE0000
00FE0000
01FE0000
01FC07C0
01FC0FE0
01FC0FF0
03FC0FF0
03F80FF0
03F807E0
03F803C0
07F80004
07F0000C
07F0001C
0FF00018
0FE00038
0FE000F8
1FE001F0
1FE00FF0
7FFFFFF0
FFFFFFE0
ENDCHAR
STARTCHAR 0140
ENCODING 320
SWIDTH 440 0
DWIDTH 22 0
BBX 21 35 2 0
BITMAP
000400
01FC00
0FFC00
03F800
01F800
01F800
01F800
01F000
03F000
03F000
03F000
07E000
07E000
07E000
07C000
0FC000
0FC000
0FC000
1F8000
1F8000
1F81F0
1F03F8
3F07F8
3F07F8
3F07F8
7E03F0
7E01E0
7E0000
7E3000
FC2000
FC6000
FCC000
FF8000
FF0000
7E0000
ENDCHAR
STARTCHAR 0141
ENCODING 321
SWIDTH 600 0
DWIDTH 30 0
BBX 30 33 0 0
BITMAP
01FFFE00
00FFF800
001FE000
001FC000
003FC000
003F8000
003F8000
003F8000
007F8000
007F0200
007F0C00
007F7C00
00FFF800
00FFE000
00FF8000
01FF0000
03FC0000
0FFC0000
3FFC0000
3FFC0000
33F80000
43F80000
03F80000
07F80004
07F0000C
07F0001C
0FF00018
0FE00038
0FE000F8
0FE001F0
1FE00FF0
7FFFFFF0
FFFFFFE0
ENDCHAR
STARTCHAR 0142
ENCODING 322
SWIDTH 300 0
DWIDTH 15 0
BBX 16 34 2 1
BITMAP
007E
07FE
01FE
00FC
00FC
00FC
01F8
01F8
01F8
01F8
03F0
03F3
03FE
03FE
07FC
07F0
1FE0
7FC0
7FC0
6FC0
8F80
1F80
1F80
1F80
3F00
3F00
3F00
3F18
7E10
7E30
7E60
7FC0
7F80
3F00
ENDCHAR
STARTCHAR 0143
ENCODING 323
SWIDTH 700 0
DWIDTH 35 0
BBX 39 46 0 -1
BITMAP
0000000700
0000000F80
0000001F80
0000003F00
0000007E00
000000F800
000001E000
0000038000
0000070000
0000000000
0000000000
0000000000
01FF800FFE
00FF8007FC
003FC000F0
001FC000E0
001FE000E0
003FE000E0
003FF000C0
0037F000C0
0027F801C0
0067F80180
0063FC0180
0043FC0180
00C1FE0380
00C1FE0300
00C0FF0300
0080FF0300
01807F0600
01807F8600
01003F8600
03003FCE00
03001FCC00
03001FEC00
06000FEC00
06000FF800
060007F800
060007F800
0C0003F800
0C0003F000
0C0003F000
1C0001F000
1E0001E000
7F8000E000
FFC000E000
0000006000
ENDCHAR
STARTCHAR 0144
ENCODING 324
SWIDTH 520 0
DWIDTH 26 0
BBX 26 35 0 0
BITMAP
00000380
00000780
00000FC0
00001F80
00003F00
00007C00
0000F000
0001E000
00038000
00000000
00000000
00000000
00000000
07F07E00
1FF1FF00
07F3FF00
07E33F00
07E43F00
07E83F00
0FD83F00
0FD07E00
0FE07E00
0FE07E00
1FC0FC00
1FC0FC00
1F80FC00
1F81F800
3F81F800
3F01F800
3F03F180
7F03F100
7E03F200
7E03FE00
7E03FC00
FC01F000
ENDCHAR
STARTCHAR 0145
ENCODING 325
SWIDTH 700 0
DWIDTH 35 0
BBX 39 48 0 -15
BITMAP
01FF800FFE
00FF8007FC
003FC000F0
001FC000E0
001FE000E0
003FE000E0
003FF000C0
0037F000C0
0027F801C0
0067F80180
0063FC0180
0043FC0180
00C1FE0380
00C1FE0300
00C0FF0300
0080FF0300
01807F0600
01807F8600
01003F8600
03003FCE00
03001FCC00
03001FEC00
06000FEC00
06000FF800
060007F800
060007F800
0C0003F800
0C0003F000
0C0003F000
1C0001F000
1E0001E000
7F8000E000
FFC000E000
0000006000
0000000000
0000000000
000F000000
001F800000
003F800000
003F800000
003F800000
001F800000
0003800000
0007000000
000E000000
001C000000
0070000000
0040000000
ENDCHAR
STARTCHAR 0146
ENCODING 326
SWIDTH 520 0
DWIDTH 26 0
BBX 25 37 0 -14
BITMAP
07F07E00
1FF1FF00
07F3FF00
07E33F00
07E43F00
07E83F00
0FD83F00
0FD07E00
0FE07E00
0FE07E00
1FC0FC00
1FC0FC00
1F80FC00
1F81F800
3F81F800
3F01F800
3F03F180
7F03F100
7E03F200
7E03FE00
7E03FC00
FC01F800
00000000
00000000
00000000
00F00000
01F80000
03F80000
03F80000
03F80000
01F80000
00380000
00700000
00E00000
01C00000
07000000
04000000
ENDCHAR
STARTCHAR 0147
ENCODING 327
SWIDTH 700 0
DWIDTH 35 0
BBX 39 46 0 -1
BITMAP
0000E00F00
0000701E00
0000783C00
00003CF800
00003FF000
00001FE000
00001FC000
00000F8000
00000F0000
0000000000
0000000000
0000000000
01FF800FFE
00FF8007FC
003FC000F0
001FC000E0
001FE000E0
003FE000E0
003FF000C0
0037F000C0
0027F801C0
0067F80180
0063FC0180
0043FC0180
00C1FE0380
00C1FE0300
00C0FF0300
0080FF0300
01807F0600
01807F8600
01003F8600
03003FCE00
03001FCC00
03001FEC00
06000FEC00
06000FF800
060007F800
060007F800
0C0003F800
0C0003F000
0C0003F000
1C0001F000
1E0001E000
7F8000E000
FFC000E000
0000006000
ENDCHAR
STARTCHAR 0148
ENCODING 328
SWIDTH 520 0
DWIDTH 26 0
BBX 26 35 0 0
BITMAP
003001C0
00380380
001C0F00
001E1E00
000F3C00
000FF800
0007F000
0007F000
0003E000
00000000
00000000
00000000
00000000
07F07E00
1FF1FF00
07F3FF00
07E33F00
07E43F00
07E83F00
0FD83F00
0FD07E00
0FE07E00
0FE07E00
1FC0FC00
1FC0FC00
1F80FC00
1F81F800
3F81F800
3F01F800
3F03F180
7F03F100
7E03F200
7E03FE00
7E03FC00
FC01F000
ENDCHAR
STARTCHAR 0149
ENCODING 329
SWIDTH 520 0
DWIDTH 26 0
BBX 25 37 0 0
BITMAP
01E00000
03F00000
07F00000
07F00000
07F00000
03F00000
00700000
00E00000
01C00000
03800000
07000000
0C000000
00000000
00000000
00000000
07F07E00
1FF1FF00
07F3FF00
07E33F00
07E43F00
07E83F00
0FD83F00
0FD07E00
0FE07E00
0FE07E00
1FC0FC00
1FC0FC00
1F80FC00
1F81F800
3F81F800
3F01F800
3F03F180
7F03F100
7E03F200
7E03FE00
7E03FC00
FC01F000
ENDCHAR
STARTCHAR 014A
ENCODING 330
SWIDTH 800 0
DWIDTH 40 0
BBX 42 33 0 0
BITMAP
01FFE07FF000
00FFE1FFFE00
003FE7F3FF00
001FDF00FF80
003FFC007F80
003FF0003FC0
003FE0003FC0
003FC0003FC0
007F80003FC0
007F00003FC0
007F00003FC0
00FF00003FC0
00FF00003FC0
00FE00003FC0
00FE00007FC0
01FE00007F80
01FC00007F80
01FC00007F80
01FC0000FF00
03FC0000FF00
03F80000FF00
03F80001FE00
07F80001FE00
07F80001FC00
07F01E03FC00
07F03F03F800
0FF07F07F000
0FE07F07E000
0FE07E0FC000
1FE07E1F8000
1FE07C3F0000
7FF83C7C0000
FFFE1FF00000
ENDCHAR
STARTCHAR 014B
ENCODING 331
SWIDTH 500 0
DWIDTH 25 0
BBX 24 32 1 -9
BITMAP
0FF07E
3FE1FF
0FE3FF
0FE63F
0FCC3F
0FD83E
0FD07E
0FA07E
1FE07E
1FC07C
1FC0FC
3F80FC
3F80FC
3F00F8
3F01F8
7F01F8
7E01F8
7E01F0
FE03F0
FC03F0
FC03F0
FC07E0
0007E0
0007E0
0007C0
000FC0
0C0F80
1E0F80
1E1F00
1E3E00
0FFC00
07F000
ENDCHAR
STARTCHAR 014C
ENCODING 332
SWIDTH 680 0
DWIDTH 34 0
BBX 33 42 2 -1
BITMAP
0007FFF800
0007FFF800
0007FFF800
000FFFF800
0000000000
0000000000
0000000000
00007F8000
0003FFE000
000FC0F800
001F007C00
007E007E00
00FC003F00
01FC003F00
03F8003F80
03F0003F80
07F0003F80
0FE0003F80
0FE0003F80
1FC0003F80
3FC0007F80
3FC0007F80
3F80007F80
7F80007F80
7F8000FF00
7F8000FF00
FF0000FF00
FF0001FE00
FF0001FE00
FF0001FC00
FF0003FC00
FE0003F800
FE0007F000
FE0007F000
7E000FE000
7E000FC000
3E001F8000
3F003F0000
1F007E0000
0F81F80000
03FFE00000
00FF000000
ENDCHAR
STARTCHAR 014D
ENCODING 333
SWIDTH 480 0
DWIDTH 24 0
BBX 23 31 1 0
BITMAP
01FFFE
01FFFE
01FFFE
03FFFE
000000
000000
000000
000000
000000
003FE0
00F0F8
01E07C
07C07C
0FC07E
0F807E
1F807E
3F00FE
3F00FE
7E00FE
7E00FE
FE00FC
FE01FC
FC01F8
FC01F8
FC03F0
FC03F0
FC07E0
7C07C0
7C0F80
3E1E00
0FF800
ENDCHAR
STARTCHAR 014E
ENCODING 334
SWIDTH 680 0
DWIDTH 34 0
BBX 33 45 2 -1
BITMAP
0001800C00
0001800C00
0001C01C00
0001E07800
0001FFF800
0000FFF000
00007FE000
00001F0000
0000000000
0000000000
00007F8000
0003FFE000
000FC0F800
001F007C00
007E007E00
00FC003F00
01FC003F00
03F8003F80
03F0003F80
07F0003F80
0FE0003F80
0FE0003F80
1FC0003F80
3FC0007F80
3FC0007F80
3F80007F80
7F80007F80
7F8000FF00
7F8000FF00
FF0000FF00
FF0001FE00
FF0001FE00
FF0001FC00
FF0003FC00
FE0003F800
FE0007F000
FE0007F000
7E000FE000
7E000FC000
3E001F8000
3F003F0000
1F007E0000
0F81F80000
03FFE00000
00FF000000
ENDCHAR
STARTCHAR 014F
ENCODING 335
SWIDTH 480 0
DWIDTH 24 0
BBX 24 33 1 0
BITMAP
006003
006007
00700F
007FFE
003FFC
003FF8
000FE0
000000
000000
000000
000000
003FE0
00F0F8
01E07C
07C07C
0FC07E
0F807E
1F807E
3F00FE
3F00FE
7E00FE
7E00FE
FE00FC
FE01FC
FC01F8
FC01F8
FC03F0
FC03F0
FC07E0
7C07C0
7C0F80
3E1E00
0FF800
ENDCHAR
STARTCHAR 0150
ENCODING 336
SWIDTH 680 0
DWIDTH 34 0
BBX 34 46 2 -1
BITMAP
00000E0780
00001F07C0
00001F0F80
00003F1F80
00003E1F00
00007C3E00
0000787800
0000E07000
0000C0E000
0000000000
0000000000
00007F8000
0003FFE000
000FC0F800
001F007C00
007E007E00
00FC003F00
01FC003F00
03F8003F80
03F0003F80
07F0003F80
0FE0003F80
0FE0003F80
1FC0003F80
3FC0007F80
3FC0007F80
3F80007F80
7F80007F80
7F8000FF00
7F8000FF00
FF0000FF00
FF0001FE00
FF0001FE00
FF0001FC00
FF0003FC00
FE0003F800
FE0007F000
FE0007F000
7E000FE000
7E000FC000
3E001F8000
3F003F0000
1F007E0000
0F81F80000
03FFE00000
00FF000000
ENDCHAR
STARTCHAR 0151
ENCODING 337
SWIDTH 480 0
DWIDTH 24 0
BBX 27 35 1 0
BITMAP
000381C0
0007C3E0
000FC3E0
000F87E0
001F8FC0
001E0F80
003C1E00
00383C00
00703000
00000000
00000000
00000000
00000000
003FE000
00F0F800
01E07C00
07C07C00
0FC07E00
0F807E00
1F807E00
3F00FE00
3F00FE00
7E00FE00
7E00FE00
FE00FC00
FE01FC00
FC01F800
FC01F800
FC03F000
FC03F000
FC07E000
7C07C000
7C0F8000
3E1E0000
0FF80000
ENDCHAR
STARTCHAR 0152
ENCODING 338
SWIDTH 880 0
DWIDTH 44 0
BBX 46 33 1 1
BITMAP
0001FFFFFFFC
0007E1FFFFFC
001F80FF00FC
007E007F003C
00FC007E0038
01F800FE0018
03F800FE0018
07F000FE0018
07E000FC0010
0FE001FC0000
1FC001FC0600
1FC001FC0600
3FC001F80E00
3F8003F81C00
7F8003FFFC00
7F8003FFFC00
7F0007F0FC00
FF0007F03C00
FF0007F01800
FF0007E01800
FE000FE01800
FE000FE01800
FE000FE01000
FE000FC00020
FE001FC00060
FE001FC000C0
7E001FC000C0
7E003F8001C0
3F003F800380
3F003F800F80
1F807F803F80
07E1FFFFFF00
01FFFFFFFF00
ENDCHAR
STARTCHAR 0153
ENCODING 339
SWIDTH 680 0
DWIDTH 34 0
BBX 33 22 1 1
BITMAP
003FE0FF00
00F0F3C780
03E0FF8780
07C0FF0780
0F807F0780
1F80FE0F80
1F00FE0F80
3F00FC1F00
3F00FC3E00
7E00F87C00
7E01F9F000
FE01FFC000
FE01FC0000
FC01F00000
FC03F00000
FC03F00400
FC07F00C00
FC07F01C00
7C0FF83800
7C1FFFF000
3E3CFFE000
0FF83FC000
ENDCHAR
STARTCHAR 0154
ENCODING 340
SWIDTH 660 0
DWIDTH 33 0
BBX 33 45 0 0
BITMAP
000000E000
000003E000
000007F000
000007E000
00000FC000
00001F0000
00003C0000
0000700000
0000E00000
0000000000
0000000000
0000000000
01FFFFC000
00FFFFF800
001FE1FE00
001FC0FF00
003FC07F80
003FC07F80
003F807F80
003F807F80
007F807F80
007F807F80
007F00FF00
007F00FF00
00FF01FE00
00FF03FC00
00FE07F800
01FFFFE000
01FFFE0000
01FCFF0000
01FC7F0000
03FC7F8000
03FC7F8000
03F83F8000
03F83FC000
07F83FC000
07F81FC000
07F01FE000
0FF01FE000
0FF00FE000
0FF00FF000
0FE00FF000
1FF007F800
7FFC07FE00
FFFE07FF00
ENDCHAR
STARTCHAR 0155
ENCODING 341
SWIDTH 400 0
DWIDTH 20 0
BBX 20 35 1 0
BITMAP
0000C0
0003E0
0007E0
0007E0
000FC0
001F00
003C00
007800
00E000
000000
000000
000000
000000
03F1E0
3FE3F0
1FE7F0
07EFF0
0FD9E0
0FD000
0FF000
0FA000
1FC000
1FC000
1FC000
1F8000
3F8000
3F0000
3F0000
7F0000
7E0000
7E0000
7E0000
FC0000
FC0000
FC0000
ENDCHAR
STARTCHAR 0156
ENCODING 342
SWIDTH 660 0
DWIDTH 33 0
BBX 33 48 0 -15
BITMAP
01FFFFC000
00FFFFF800
001FE1FE00
001FC0FF00
003FC07F80
003FC07F80
003F807F80
003F807F80
007F807F80
007F807F80
007F00FF00
007F00FF00
00FF01FE00
00FF03FC00
00FE07F800
01FFFFE000
01FFFE0000
01FCFF0000
01FC7F0000
03FC7F8000
03FC7F8000
03F83F8000
03F83FC000
07F83FC000
07F81FC000
07F01FE000
0FF01FE000
0FF00FE000
0FF00FF000
0FE00FF000
1FF007F800
7FFC07FE00
FFFE07FF00
0000000000
0000000000
0000000000
0007800000
000FC00000
001FC00000
001FC00000
001FC00000
000FC00000
0001C00000
0003800000
0007000000
000E000000
0038000000
0020000000
ENDCHAR
STARTCHAR 0157
ENCODING 343
SWIDTH 400 0
DWIDTH 20 0
BBX 23 37 -2 -14
BITMAP
007E3C
07FC7E
03FCFE
00FDFE
01FB3C
01FA00
01FE00
01F400
03FC00
03F800
03F800
03F000
07F000
07E000
07E000
0FE000
0FC000
0FC000
0FC000
1F8000
1F8000
1F8000
000000
000000
000000
1E0000
3F0000
7F0000
7F0000
7F0000
3F0000
070000
0E0000
1C0000
380000
E00000
800000
ENDCHAR
STARTCHAR 0158
ENCODING 344
SWIDTH 660 0
DWIDTH 33 0
BBX 33 45 0 0
BITMAP
0001801C00
0001C03800
0000E0F000
0000F1E000
00007FC000
00007F8000
00003F8000
00003F0000
00001E0000
0000000000
0000000000
0000000000
01FFFFC000
00FFFFF800
001FE1FE00
001FC0FF00
003FC07F80
003FC07F80
003F807F80
003F807F80
007F807F80
007F807F80
007F00FF00
007F00FF00
00FF01FE00
00FF03FC00
00FE07F800
01FFFFE000
01FFFE0000
01FCFF0000
01FC7F0000
03FC7F8000
03FC7F8000
03F83F8000
03F83FC000
07F83FC000
07F81FC000
07F01FE000
0FF01FE000
0FF00FE000
0FF00FF000
0FE00FF000
1FF007F800
7FFC07FE00
FFFE07FF00
ENDCHAR
STARTCHAR 0159
ENCODING 345
SWIDTH 400 0
DWIDTH 20 0
BBX 21 35 1 0
BITMAP
070038
038070
0380E0
01C3E0
01E7C0
00FF80
00FF00
007E00
007C00
000000
000000
000000
000000
03F1E0
3FE3F0
1FE7F0
07EFF0
0FD9E0
0FD000
0FF000
0FA000
1FC000
1FC000
1FC000
1F8000
3F8000
3F0000
3F0000
7F0000
7E0000
7E0000
7E0000
FC0000
FC0000
FC0000
ENDCHAR
STARTCHAR 015A
ENCODING 346
SWIDTH 500 0
DWIDTH 25 0
BBX 26 46 0 -1
BITMAP
00000700
00001F00
00003F80
00003F00
00007E00
0000F800
0001E000
00038000
00070000
00000000
00000000
00070000
003FF8C0
007C3FC0
01F00FC0
01F007C0
03E00380
03E00380
07E00380
07E00180
07E00180
07F00000
07F80000
07FC0000
03FE0000
03FF8000
01FFC000
00FFE000
007FF000
003FF800
001FF800
000FFC00
0003FC00
0001FE00
0001FE00
0000FE00
20007E00
30007E00
30007E00
70007E00
70007C00
7800FC00
7C00F800
7E01F000
FF8FE000
C1FF8000
ENDCHAR
STARTCHAR 015B
ENCODING 347
SWIDTH 360 0
DWIDTH 18 0
BBX 20 35 0 0
BITMAP
0000E0
0001F0
0003F0
0007E0
000FC0
001F00
003E00
007800
00E000
000000
000000
000000
000000
03FD80
078F80
0F0780
1F0380
1F0380
1F0180
1F8100
1FC000
0FE000
0FF000
07F000
07F800
03FC00
01FC00
00FE00
407E00
607E00
603E00
E03C00
F03C00
F87800
FFE000
ENDCHAR
STARTCHAR 015C
ENCODING 348
SWIDTH 500 0
DWIDTH 25 0
BBX 26 46 0 -1
BITMAP
0003E000
0003F000
0007F000
000FF000
001F7800
003C7800
00783C00
00F01C00
01C00E00
00000000
00000000
000FC040
007FFDC0
00F81FC0
01F007C0
03F007C0
03E00380
07E00380
07E00180
07E00180
07F00180
07F00000
07F80000
03FC0000
03FF0000
01FF8000
01FFC000
00FFE000
007FF000
003FF800
000FFC00
0007FC00
0003FC00
0001FE00
0000FE00
2000FE00
30007E00
30007E00
70007E00
70007E00
78007C00
7800FC00
7C01F800
7E03F000
E7FFC000
C0FF0000
ENDCHAR
STARTCHAR 015D
ENCODING 349
SWIDTH 360 0
DWIDTH 18 0
BBX 18 35 0 0
BITMAP
003C00
007E00
007E00
00FF00
01FF00
03C780
078380
0F01C0
1C00C0
000000
000000
000000
000000
03FD80
078F80
0F0780
1F0380
1F0380
1F0180
1F8100
1FC000
0FE000
0FF000
07F000
07F800
03FC00
01FC00
00FE00
407E00
607E00
603E00
E03C00
F03C00
F87800
FFE000
ENDCHAR
STARTCHAR 015E
ENCODING 350
SWIDTH 500 0
DWIDTH 25 0
BBX 26 45 0 -11
BITMAP
000FC040
003FFDC0
00F81FC0
01F007C0
03F007C0
03E00380
07E00380
07E00180
07E00180
07F00180
07F00000
07F80000
03FE0000
03FF0000
01FF8000
01FFC000
00FFE000
007FF000
003FF800
000FFC00
0007FC00
0003FC00
0001FE00
0000FE00
2000FE00
30007E00
30007E00
70007E00
70007E00
78007C00
7800FC00
7C01F800
7E03F000
EFFFC000
C0FF0000
01C00000
01800000
03F00000
07FC0000
007C0000
003E0000
003C0000
187C0000
1FF80000
07E00000
ENDCHAR
STARTCHAR 015F
ENCODING 351
SWIDTH 340 0
DWIDTH 17 0
BBX 18 33 -2 -10
BITMAP
01FEC0
03C7C0
0783C0
0F81C0
0F81C0
0F80C0
0FC080
0FE000
07F000
07F800
03F800
03FC00
01FE00
00FE00
007F00
203F00
303F00
301F00
701E00
781E00
7C3C00
7FF000
460000
0E0000
0C0000
1FC000
1FE000
03E000
01F000
01E000
C3E000
FFC000
3F0000
ENDCHAR
STARTCHAR 0160
ENCODING 352
SWIDTH 500 0
DWIDTH 25 0
BBX 26 46 0 -1
BITMAP
00700380
00380700
003C1E00
001E3C00
001F7800
000FF800
000FF000
0007E000
0007C000
00000000
00000000
000FC040
007FFDC0
00F81FC0
01F007C0
03F007C0
03E00380
07E00380
07E00180
07E00180
07F00180
07F00000
07F80000
03FC0000
03FF0000
01FF8000
01FFC000
00FFE000
007FF000
003FF800
000FFC00
0007FC00
0003FC00
0001FE00
0000FE00
2000FE00
30007E00
30007E00
70007E00
70007E00
78007C00
7800FC00
7C01F800
7E03F000
E7FFC000
C0FF0000
ENDCHAR
STARTCHAR 0161
ENCODING 353
SWIDTH 360 0
DWIDTH 18 0
BBX 21 35 0 0
BITMAP
060038
070070
0381E0
03C3C0
01EF80
01FF00
00FE00
00FC00
007800
000000
000000
000000
000000
03FD80
078F80
0F0780
1F0380
1F0380
1F0180
1F8100
1FC000
0FE000
0FF000
07F000
07F800
03FC00
01FC00
00FE00
407E00
607E00
603E00
E03C00
F03C00
F87800
FFE000
ENDCHAR
STARTCHAR 0162
ENCODING 354
SWIDTH 600 0
DWIDTH 30 0
BBX 29 44 4 -11
BITMAP
1FFFFFF8
1FFFFFF8
3F87F0F8
3E07F078
380FF038
300FE038
700FE018
600FE018
401FE010
001FC000
001FC000
003FC000
003F8000
003F8000
003F8000
007F8000
007F0000
007F0000
00FF0000
00FE0000
00FE0000
00FE0000
01FE0000
01FC0000
01FC0000
01FC0000
03FC0000
03F80000
03F80000
07F80000
07F80000
1FFF0000
7FFF8000
07000000
06000000
0C000000
1F800000
1FE00000
03E00000
01F00000
01E00000
43E00000
FFC00000
3F000000
ENDCHAR
STARTCHAR 0163
ENCODING 355
SWIDTH 280 0
DWIDTH 14 0
BBX 18 40 -2 -11
BITMAP
000180
000300
000700
000F00
001F00
003E00
00FE00
01FFC0
01FFC0
00FC00
00FC00
00F800
01F800
01F800
01F800
03F000
03F000
03F000
03E000
07E000
07E000
07E000
0FC200
0FC200
0FC600
0FCC00
0FF800
0FF000
07E000
030000
070000
0E0000
0FC000
1FF000
01F000
00F800
00F000
41F000
FFE000
3F8000
ENDCHAR
STARTCHAR 0164
ENCODING 356
SWIDTH 600 0
DWIDTH 30 0
BBX 28 45 5 0
BITMAP
003801C0
001C0780
001E0F00
000F1E00
000FFC00
0007F800
0007F000
0003E000
0003C000
00000000
00000000
00000000
3FFFFFF0
3FFFFFF0
7F0FE1F0
7C0FE0F0
701FE070
601FC070
E01FC030
C01FC030
803FC020
003F8000
003F8000
007F8000
007F0000
007F0000
007F0000
00FF0000
00FE0000
00FE0000
01FE0000
01FC0000
01FC0000
01FC0000
03FC0000
03F80000
03F80000
03F80000
07F80000
07F00000
07F00000
0FF00000
0FF00000
3FFE0000
FFFF0000
ENDCHAR
STARTCHAR 0165
ENCODING 357
SWIDTH 420 0
DWIDTH 21 0
BBX 24 34 2 0
BITMAP
00000E
00001F
00003F
00003E
00007E
00387C
0030F8
0070F0
00F1E0
01E3C0
03E000
0FE000
3FFC00
3FFC00
0FC000
0FC000
0F8000
1F8000
1F8000
1F8000
3F0000
3F0000
3F0000
3E0000
7E0000
7E0000
7E0000
7C2000
FC6000
FC4000
FCC000
FF8000
FF0000
7E0000
ENDCHAR
STARTCHAR 0166
ENCODING 358
SWIDTH 600 0
DWIDTH 30 0
BBX 28 33 5 0
BITMAP
3FFFFFF0
3FFFFFF0
7F0FE1F0
7C0FE0F0
701FE070
601FC070
E01FC030
C01FC030
803FC020
003F8000
003F8000
007F8000
0FFFF000
0FFFF000
0FFFF000
0FFFF000
00FE0000
00FE0000
01FE0000
01FC0000
01FC0000
01FC0000
03FC0000
03F80000
03F80000
03F80000
07F80000
07F00000
07F00000
0FF00000
0FF00000
3FFE0000
FFFF0000
ENDCHAR
STARTCHAR 0167
ENCODING 359
SWIDTH 320 0
DWIDTH 16 0
BBX 15 29 2 0
BITMAP
001C
0018
0038
0078
00F0
03F0
0FF0
3FFE
3FFE
07E0
07C0
0FC0
0FC0
FFFC
FFFC
FFFC
FFFC
1F00
3F00
3F00
3F00
7E00
7E10
7E30
FC60
FCC0
FFC0
FF80
7E00
ENDCHAR
STARTCHAR 0168
ENCODING 360
SWIDTH 720 0
DWIDTH 36 0
BBX 34 43 5 -1
BITMAP
0000F01800
0003FC3800
0007FFF000
000FFFF000
001C3FC000
0018078000
0000000000
0000000000
0000000000
3FFFC0FFC0
1FFF007F80
07FC001E00
03F8000E00
07F8000C00
07F8001C00
07F0001800
07F0001800
0FF0001800
0FE0001000
0FE0003000
1FE0003000
1FE0003000
1FC0006000
1FC0006000
3FC0006000
3F80004000
3F8000C000
7F8000C000
7F8000C000
7F00018000
7F00018000
FF00018000
FE00030000
FE00030000
FE00030000
FE00060000
FE000E0000
FE000C0000
7F00180000
3F80780000
1FFFE00000
0FFFC00000
01FE000000
ENDCHAR
STARTCHAR 0169
ENCODING 361
SWIDTH 540 0
DWIDTH 27 0
BBX 24 31 2 0
BITMAP
007F07
00FFFE
01FFFE
038FFC
0703F0
000000
000000
000000
002000
07E07E
7FC07E
3FC07C
0FC0FC
0F80FC
1F80FC
1F81F8
1F81F8
1F01F8
3F03F0
3F03F0
3E07F0
7E07F0
7E0FE0
7E0FE0
7C1FE0
FC37C2
FC6FC4
FCCFCC
FF8FF8
FF8FF0
7E07E0
ENDCHAR
STARTCHAR 016A
ENCODING 362
SWIDTH 720 0
DWIDTH 36 0
BBX 34 42 5 -1
BITMAP
0007FFF800
0007FFF800
000FFFF800
000FFFF000
0000000000
0000000000
0000000000
0000000000
3FFFC0FFC0
1FFF007F80
07FC001E00
03F8000E00
07F8000C00
07F8001C00
07F0001800
07F0001800
0FF0001800
0FE0001000
0FE0003000
1FE0003000
1FE0003000
1FC0006000
1FC0006000
3FC0006000
3F80004000
3F8000C000
7F8000C000
7F8000C000
7F00018000
7F00018000
FF00018000
FE00030000
FE00030000
FE00030000
FE00060000
FE000E0000
FE000C0000
7F00180000
3F80780000
1FFFE00000
0FFFC00000
01FE000000
ENDCHAR
STARTCHAR 016B
ENCODING 363
SWIDTH 540 0
DWIDTH 27 0
BBX 24 31 2 0
BITMAP
01FFFF
01FFFE
01FFFE
01FFFE
000000
000000
000000
000000
002000
07E07E
7FC07E
3FC07C
0FC0FC
0F80FC
1F80FC
1F81F8
1F81F8
1F01F8
3F03F0
3F03F0
3E07F0
7E07F0
7E0FE0
7E0FE0
7C1FE0
FC37C2
FC6FC4
FCCFCC
FF8FF8
FF8FF0
7E07E0
ENDCHAR
STARTCHAR 016C
ENCODING 364
SWIDTH 720 0
DWIDTH 36 0
BBX 34 45 5 -1
BITMAP
0003001800
0003001800
0003803800
0003C07000
0003FFF000
0001FFE000
0000FFC000
00003E0000
0000000000
0000000000
0000000000
3FFFC0FFC0
1FFF007F80
07FC001E00
03F8000E00
07F8000C00
07F8001C00
07F0001800
07F0001800
0FF0001800
0FE0001000
0FE0003000
1FE0003000
1FE0003000
1FC0006000
1FC0006000
3FC0006000
3F80004000
3F8000C000
7F8000C000
7F8000C000
7F00018000
7F00018000
FF00018000
FE00030000
FE00030000
FE00030000
FE00060000
FE000E0000
FE000C0000
7F00180000
3F80780000
1FFFE00000
0FFFC00000
01FE000000
ENDCHAR
STARTCHAR 016D
ENCODING 365
SWIDTH 540 0
DWIDTH 27 0
BBX 24 33 2 0
BITMAP
00C003
00E006
00F00E
007EFE
007FFC
003FF8
001FE0
000000
000000
000000
002000
07E07E
7FC07E
3FC07C
0FC0FC
0F80FC
1F80FC
1F81F8
1F81F8
1F01F8
3F03F0
3F03F0
3E07F0
7E07F0
7E0FE0
7E0FE0
7C1FE0
FC37C2
FC6FC4
FCCFCC
FF8FF8
FF8FF0
7E07E0
ENDCHAR
STARTCHAR 016E
ENCODING 366
SWIDTH 720 0
DWIDTH 36 0
BBX 34 45 5 0
BITMAP
00001F8000
00003F8000
000073C000
0000E1C000
0000E1C000
0000E38000
0000FF8000
00007F0000
00003E0000
0000000000
0000000000
3FFFC0FFC0
1FFF007F80
07FC001E00
03F8000E00
07F8000C00
07F8001C00
07F0001800
07F0001800
0FF0001800
0FE0001000
0FE0003000
1FE0003000
1FE0003000
1FC0006000
1FC0006000
3FC0006000
3F80004000
3F8000C000
7F8000C000
7F8000C000
7F00018000
7F00018000
FF00018000
FE00030000
FE00030000
FE00030000
FE00060000
FE000E0000
FE000C0000
7F00180000
3F80780000
1FFFE00000
0FFFC00000
01FE000000
ENDCHAR
STARTCHAR 016F
ENCODING 367
SWIDTH 540 0
DWIDTH 27 0
BBX 23 36 2 0
BITMAP
0001C0
0007F0
000FF0
000E78
001C38
001C38
001C70
001FE0
000FE0
000780
000000
000000
000000
002000
07E07E
7FC07E
3FC07C
0FC0FC
0F80FC
1F80FC
1F81F8
1F81F8
1F01F8
3F03F0
3F03F0
3E07F0
7E07F0
7E0FE0
7E0FE0
7C1FE0
FC37C2
FC6FC4
FCCFCC
FF8FF8
FF8FF0
7E07E0
ENDCHAR
STARTCHAR 0170
ENCODING 368
SWIDTH 720 0
DWIDTH 36 0
BBX 34 46 5 -1
BITMAP
0000381E00
00007C3E00
0000FC3E00
0000F87E00
0000F8FC00
0001E0F800
0001C1E000
000383C000
0003030000
0000000000
0000000000
0000000000
3FFFC0FFC0
1FFF007F80
07FC001E00
03F8000E00
07F8000C00
07F8001C00
07F0001800
07F0001800
0FF0001800
0FE0001000
0FE0003000
1FE0003000
1FE0003000
1FC0006000
1FC0006000
3FC0006000
3F80004000
3F8000C000
7F8000C000
7F8000C000
7F00018000
7F00018000
FF00018000
FE00030000
FE00030000
FE00030000
FE00060000
FE000E0000
FE000C0000
7F00180000
3F80780000
1FFFE00000
0FFFC00000
01FE000000
ENDCHAR
STARTCHAR 0171
ENCODING 369
SWIDTH 540 0
DWIDTH 27 0
BBX 26 35 2 0
BITMAP
000701C0
000F83C0
000F87C0
001F8FC0
001F0F80
003E1F00
003C3E00
00783800
00707000
00000000
00000000
00000000
00200000
07E07E00
7FC07E00
3FC07C00
0FC0FC00
0F80FC00
1F80FC00
1F81F800
1F81F800
1F01F800
3F03F000
3F03F000
3E07F000
7E07F000
7E0FE000
7E0FE000
7C1FE000
FC37C200
FC6FC400
FCCFCC00
FF8FF800
FF8FF000
7E07E000
ENDCHAR
STARTCHAR 0172
ENCODING 370
SWIDTH 720 0
DWIDTH 36 0
BBX 34 42 3 -9
BITMAP
3FFFC0FFC0
1FFF007FC0
07FC001F00
03F8000E00
07F8000E00
07F8000C00
07F0001C00
07F0001C00
0FF0001800
0FE0001800
0FE0003800
1FE0003000
1FE0003000
1FC0007000
1FC0007000
3FC0006000
3F80006000
3F8000E000
7F8000C000
7F8000C000
7F0001C000
7F00018000
FF00018000
FE00038000
FE00038000
FE00030000
FE00070000
FE00060000
FE000E0000
7F001C0000
3FC0780000
1FFFF80000
0FFFF80000
01FF300000
0000700000
0000700000
0000F00000
0000F82000
0000FFE000
0000FFE000
00007F8000
00001F0000
ENDCHAR
STARTCHAR 0173
ENCODING 371
SWIDTH 560 0
DWIDTH 28 0
BBX 26 32 2 -9
BITMAP
00200000
07E07E00
7FC07E00
3FC07C00
0FC0FC00
0F80FC00
1F80FC00
1F81F800
1F81F800
1F01F800
3F03F000
3F03F000
3E07F000
7E07F000
7E0FE000
7E0FE000
7C1FE000
FC37C600
FC6FC400
FCCFCC00
FF8FF800
FF8FF000
7E07F000
00006000
0000E000
0000E000
0001E000
0001F040
0001FFC0
0001FF80
0000FF00
00003E00
ENDCHAR
STARTCHAR 0174
ENCODING 372
SWIDTH 920 0
DWIDTH 46 0
BBX 44 46 6 -1
BITMAP
000001F00000
000003F00000
000007F80000
00000FF80000
00001F780000
00003E3C0000
0000781C0000
0000700E0000
0000E0060000
000000000000
000000000000
000000000000
FFFE3FFE1FF0
3FF81FF807E0
0FF00FF003C0
0FF007F00380
0FF007F00300
0FF007F00700
0FF007F00600
07F00FF00E00
07F00FF00C00
07F00FF01C00
07F01FF01800
07F017F01800
07F833F83000
07F823F83000
03F863F86000
03F843F86000
03F8C3F8C000
03F883F8C000
03F983F98000
03F903F98000
03FB01FB8000
03FF01FF0000
01FE01FF0000
01FE01FE0000
01FC01FE0000
01FC01FC0000
01F801FC0000
01F801F80000
01F000F80000
00F000F00000
00E000F00000
00E000E00000
00C000E00000
00C000C00000
ENDCHAR
STARTCHAR 0175
ENCODING 373
SWIDTH 660 0
DWIDTH 33 0
BBX 29 36 4 -1
BITMAP
0000F000
0001F000
0003F800
0007F800
000FFC00
001F3C00
003C1E00
00780E00
00700700
00800000
00000000
00000000
0000C000
7E00C0F0
FE01C1F8
3E03C1F8
3F03C1F8
3F07C0F0
3F07C070
1F0FC070
1F0FC060
1F1FC0E0
1F37C0C0
1F37E1C0
1F67E180
1F67E300
1FC7E600
1FC7EE00
1F87FC00
1F07F800
1F03F000
1E03E000
1E03C000
1C03C000
18038000
18030000
ENDCHAR
STARTCHAR 0176
ENCODING 374
SWIDTH 640 0
DWIDTH 32 0
BBX 30 45 6 0
BITMAP
0001F000
0003F000
0007F800
000FF800
001F7C00
001E3C00
003C1E00
00700E00
00E00700
00000000
00000000
00000000
FFFC1FFC
7FF807F8
1FE003E0
0FE001C0
0FE00380
07F00300
07F00700
07F00E00
03F80C00
03F81C00
03F83800
01FC3000
01FC6000
01FCE000
00FDC000
00FF8000
00FF0000
00FF0000
00FE0000
00FE0000
00FE0000
01FE0000
01FC0000
01FC0000
03FC0000
03F80000
03F80000
03F80000
07F80000
07F80000
0FF80000
3FFE0000
FFFF0000
ENDCHAR
STARTCHAR 0177
ENCODING 375
SWIDTH 440 0
DWIDTH 22 0
BBX 24 45 -3 -10
BITMAP
0000F0
0001F8
0003F8
0007FC
0007FC
000F1E
001E0E
00380F
007007
000000
000000
000000
000004
00780E
07F81F
03FC1F
01FC1F
00FC1F
00FE0F
007E07
007E06
007E06
007E0C
003F0C
003F0C
003F18
003F18
003F30
001F30
001FE0
001FE0
001FC0
001F80
001F80
000F00
000F00
000E00
001C00
001800
003000
006000
7CC000
FF8000
FF0000
FE0000
ENDCHAR
STARTCHAR 0178
ENCODING 376
SWIDTH 640 0
DWIDTH 32 0
BBX 30 43 6 0
BITMAP
00180300
007E0FC0
007E0FC0
007E0FC0
007E0FC0
003E07C0
00180300
00000000
00000000
00000000
FFFC1FFC
7FF807F8
1FE003E0
0FE001C0
0FE00380
07F00300
07F00700
07F00E00
03F80C00
03F81C00
03F83800
01FC3000
01FC6000
01FCE000
00FDC000
00FF8000
00FF0000
00FF0000
00FE0000
00FE0000
00FE0000
01FE0000
01FC0000
01FC0000
03FC0000
03F80000
03F80000
03F80000
07F80000
07F80000
0FF80000
3FFE0000
FFFF0000
ENDCHAR
STARTCHAR 0179
ENCODING 377
SWIDTH 560 0
DWIDTH 28 0
BBX 30 45 0 0
BITMAP
000000E0
000001F0
000003F0
000007E0
00000FC0
00001F00
00003E00
00007800
0000E000
00000000
00000000
00000000
01FFFFFC
03FFFFFC
03F807FC
03E007F8
07C00FF0
07001FE0
06003FE0
0E003FC0
0C007F80
0000FF00
0001FF00
0001FE00
0003FC00
0007F800
0007F800
000FF000
001FE000
003FE000
003FC000
007F8000
00FF0000
01FF0000
01FE0000
03FC0010
07F80030
07F80070
0FF000E0
1FE001E0
3FE003E0
3FC007C0
7F803FC0
FFFFFFC0
FFFFFFC0
ENDCHAR
STARTCHAR 017A
ENCODING 378
SWIDTH 420 0
DWIDTH 21 0
BBX 22 39 0 -4
BITMAP
000018
00007C
0000FC
0000FC
0001F8
0003E0
000780
000F00
001C00
000000
000000
000000
000000
07FFF8
07FFF0
0FFFE0
0FFFC0
0FFF80
080300
180700
100E00
001C00
003800
003000
006000
00C000
01C000
038000
030000
060000
0F0000
1F8000
3FC000
3FE1C0
7FE3E0
E3F3E0
01F1E0
0079C0
001F00
ENDCHAR
STARTCHAR 017B
ENCODING 379
SWIDTH 560 0
DWIDTH 28 0
BBX 30 43 0 0
BITMAP
00003800
00007C00
0000FE00
0000FE00
0000FC00
00007C00
00000000
00000000
00000000
00000000
01FFFFFC
03FFFFFC
03F807FC
03E007F8
07C00FF0
07001FE0
06003FE0
0E003FC0
0C007F80
0000FF00
0001FF00
0001FE00
0003FC00
0007F800
0007F800
000FF000
001FE000
003FE000
003FC000
007F8000
00FF0000
01FF0000
01FE0000
03FC0010
07F80030
07F80070
0FF000E0
1FE001E0
3FE003E0
3FC007C0
7F803FC0
FFFFFFC0
FFFFFFC0
ENDCHAR
STARTCHAR 017C
ENCODING 380
SWIDTH 420 0
DWIDTH 21 0
BBX 21 35 0 -4
BITMAP
001F00
003F00
003F80
003F80
001F00
001E00
000000
000000
000000
07FFF8
07FFF0
0FFFE0
0FFFC0
0FFF80
080300
180700
100E00
001C00
003800
003000
006000
00C000
01C000
038000
030000
060000
0F0000
1F8000
3FC000
3FE1C0
7FE3E0
E3F3E0
01F1E0
0079C0
001F00
ENDCHAR
STARTCHAR 017D
ENCODING 381
SWIDTH 560 0
DWIDTH 28 0
BBX 30 45 0 0
BITMAP
000E0070
000700E0
000783C0
0003C780
0003FF00
0001FE00
0001FE00
0000FC00
0000F800
00000000
00000000
00000000
01FFFFFC
03FFFFFC
03F807FC
03E007F8
07C00FF0
07001FE0
06003FE0
0E003FC0
0C007F80
0000FF00
0001FF00
0001FE00
0003FC00
0007F800
0007F800
000FF000
001FE000
003FE000
003FC000
007F8000
00FF0000
01FF0000
01FE0000
03FC0010
07F80030
07F80070
0FF000E0
1FE001E0
3FE003E0
3FC007C0
7F803FC0
FFFFFFC0
FFFFFFC0
ENDCHAR
STARTCHAR 017E
ENCODING 382
SWIDTH 420 0
DWIDTH 21 0
BBX 23 39 0 -4
BITMAP
03800E
01C03C
01E078
00F1F0
00FBE0
007FC0
007F80
003F00
003E00
000000
000000
000000
000000
07FFF8
07FFF0
0FFFE0
0FFFC0
0FFF80
080300
180700
100E00
001C00
003800
003000
006000
00C000
01C000
038000
030000
060000
0F0000
1F8000
3FC000
3FE1C0
7FE3E0
E3F3E0
01F1E0
0079C0
001F00
ENDCHAR
STARTCHAR 017F
ENCODING 383
SWIDTH 480 0
DWIDTH 24 0
BBX 31 44 -5 -10
BITMAP
000003FC
00000F9E
00001F1E
00001E1E
00003E1E
00007C0C
00007C00
0000FC00
0000F800
0001F800
0001F800
0001F800
001FF000
001FF000
0003F000
0003F000
0003E000
0007E000
0007E000
0007E000
0007C000
000FC000
000FC000
000FC000
000F8000
000F8000
001F8000
001F0000
001F0000
001F0000
003F0000
003E0000
003E0000
003E0000
007E0000
007C0000
007C0000
00780000
70F80000
F0F00000
F0F00000
F1E00000
73C00000
7F800000
ENDCHAR
STARTCHAR 0180
ENCODING 384
SWIDTH 500 0
DWIDTH 25 0
BBX 22 34 2 1
BITMAP
00FC00
0FFC00
03FC00
00FC00
01F800
01F800
1FFF80
1FFF00
03F000
03F000
03F000
07E000
07E7F0
07EFF8
07FFFC
0FF1FC
0FE0FC
0FE0FC
0FC0FC
1FC0FC
1F80FC
1F80FC
3F01F8
3F01F8
3F01F8
3E03F0
7E03F0
7E03E0
7E07C0
FC0F80
FC0F00
FC1E00
FE7C00
3FF000
ENDCHAR
STARTCHAR 0181
ENCODING 385
SWIDTH 780 0
DWIDTH 39 0
BBX 36 33 4 0
BITMAP
003FFFF800
03FFFFFF00
0F03FC3FC0
1803F81FE0
3003F80FF0
6007F80FF0
C007F00FF0
C007F00FF0
D00FF00FF0
F80FE00FF0
FC0FE01FE0
7C0FE01FC0
381FE03F80
001FC0FE00
001FFFF000
001FFFE000
003FC3F800
003F80FE00
003F80FF00
007F807F00
007F007F80
007F007F80
007F007F80
00FF007F80
00FE007F80
00FE00FF80
00FE00FF00
01FE01FF00
01FC01FE00
01FC03FC00
03FC07F800
0FFFFFE000
1FFFFE0000
ENDCHAR
STARTCHAR 0182
ENCODING 386
SWIDTH 640 0
DWIDTH 32 0
BBX 34 33 1 0
BITMAP
01FFFFFFC0
00FFFFFFC0
001FE00FC0
001FC003C0
001FC003C0
003FC00180
003F800180
003F800180
003F800180
007F800000
007F000000
007F000000
00FF000000
00FF000000
00FFFF8000
00FE1FF000
01FE07F800
01FC03FC00
01FC03FC00
01FC03FC00
03FC03FC00
03F803FC00
03F803FC00
07F803FC00
07F803FC00
07F007F800
07F007F800
0FF00FF000
0FE00FE000
0FE01FC000
1FE07F0000
7FFFFC0000
FFFFE00000
ENDCHAR
STARTCHAR 0183
ENCODING 387
SWIDTH 480 0
DWIDTH 24 0
BBX 23 33 2 0
BITMAP
0FFFFE
03FFFE
00F81E
01F80E
01F80C
01F80C
01F00C
01F00C
03F000
03F000
03E000
03E7F0
07EFF8
07FFFC
07F1FC
0FE0FC
0FE0FC
0FC0FC
0F80FC
1F80FC
1F80FC
1F01F8
3F01F8
3F01F8
3F03F0
3E03F0
7E07E0
7E07C0
7E0F80
FC0F00
FC1E00
7E7C00
3FF000
ENDCHAR
STARTCHAR 0184
ENCODING 388
SWIDTH 640 0
DWIDTH 32 0
BBX 30 34 0 0
BITMAP
00002000
0000E000
0003E000
0007C000
001FC000
003FC000
00FF8000
01FF8000
03FF8000
03FF8000
03FF0000
01FF0000
01FF0000
00FF0000
00FE0000
00FE0000
01FFFF00
01FC1FE0
01FC07F0
01FC07F8
03FC03F8
03F803FC
03F803FC
07F803FC
07F803FC
07F003FC
07F007FC
0FF007F8
0FE00FF8
0FE00FF0
1FE01FE0
1FE03FC0
7FFFFF00
FFFFF000
ENDCHAR
STARTCHAR 0185
ENCODING 389
SWIDTH 500 0
DWIDTH 25 0
BBX 23 35 2 0
BITMAP
000200
000E00
001C00
007C00
00FC00
01F800
03F800
0FF800
1FF800
1FF000
1FF000
0FF000
0FE000
07E3F8
07E7FC
07EFFE
0FF8FE
0FF07E
0FE07E
0FC07E
1FC07E
1F807E
1F807E
3F00FC
3F00FC
3F00FC
3E01F8
7E01F0
7E03F0
7E03E0
FC07C0
FC0F80
FC1F00
FE3C00
3FF000
ENDCHAR
STARTCHAR 0186
ENCODING 390
SWIDTH 700 0
DWIDTH 35 0
BBX 36 35 0 -1
BITMAP
00007FF000
0003FFFC00
000F80FF00
001C003F80
0070001FC0
00E0001FC0
01C0000FE0
0100000FE0
0000000FF0
0000000FF0
0000000FF0
0000000FF0
0000000FF0
0000000FF0
0000000FF0
0000001FF0
0000001FF0
0000001FE0
0000001FE0
0000003FE0
0000003FC0
0000003FC0
0000007F80
1000007F80
180000FF00
380000FE00
380001FE00
3C0001FC00
3C0003F800
7E0007F000
7E000FE000
7F001F8000
7FC07F0000
C1FFF80000
C03FC00000
ENDCHAR
STARTCHAR 0187
ENCODING 391
SWIDTH 860 0
DWIDTH 43 0
BBX 45 35 2 -1
BITMAP
0000FF0007E0
0007FFE01CF8
001FC0783078
003F801C60F8
00FE000CC1F8
01FC000681F8
03F8000381F0
07F800038000
0FF000030000
0FF000030000
1FE000030000
1FE000030000
3FC000000000
3FC000000000
7FC000000000
7F8000000000
7F8000000000
FF8000000000
FF8000000000
FF0000000000
FF0000000000
FF0000000000
FF0000000000
FF0000000000
FF0000000000
FF0000000000
7F0000000000
7F8000700000
7F8000E00000
3FC001C00000
1FC003800000
0FF00F000000
07FFFE000000
01FFF8000000
003FC0000000
ENDCHAR
STARTCHAR 0188
ENCODING 392
SWIDTH 600 0
DWIDTH 30 0
BBX 33 27 1 0
BITMAP
000000FF00
0000018780
0000060780
0000040F80
00000C1F80
003FC81F80
00F9F80E00
01E1F00000
07C3F00000
0FC3F00000
0F83F00000
1F81E00000
3F00000000
3F00000000
7E00000000
7E00000000
FE00000000
FE00000000
FC00000000
FC00000000
FC00800000
FE01800000
FE03000000
7F07000000
7FFE000000
3FFC000000
1FF0000000
ENDCHAR
STARTCHAR 0189
ENCODING 393
SWIDTH 720 0
DWIDTH 36 0
BBX 37 33 0 0
BITMAP
01FFFFE000
00FFFFFC00
001FC07F00
001FC01F80
003FC01FC0
003F800FE0
003F800FE0
003F8007F0
007F8007F0
007F0007F8
007F0007F8
007F0007F8
00FF0007F8
00FE0007F8
00FE0007F8
3FFFF807F8
3FFFF80FF8
01FC000FF8
01FC000FF0
03FC000FF0
03F8001FF0
03F8001FE0
03F8003FE0
07F8003FC0
07F0007F80
07F0007F80
0FF000FF00
0FF001FE00
0FE003F800
1FE007F000
1FE01FC000
7FFFFF0000
FFFFF00000
ENDCHAR
STARTCHAR 018A
ENCODING 394
SWIDTH 860 0
DWIDTH 43 0
BBX 40 33 4 0
BITMAP
003FFFFC00
03FFFFFF80
0E03F80FE0
1803F803F0
3007F803F8
6007F801FC
C007F001FC
C007F000FE
D00FF000FE
F80FE000FF
FC0FE000FF
7C1FE000FF
381FE000FF
001FC000FF
001FC000FF
003FC000FF
003FC001FF
003F8001FF
003F8001FE
007F8001FE
007F0003FE
007F0003FC
00FF0007FC
00FF0007F8
00FE000FF8
00FE000FF0
01FE001FE0
01FE003FC0
01FC007F80
03FC00FE00
03FC03F800
0FFFFFE000
1FFFFE0000
ENDCHAR
STARTCHAR 018B
ENCODING 395
SWIDTH 720 0
DWIDTH 36 0
BBX 38 33 1 0
BITMAP
003FFFFFFC
003FFFFFF8
007F007FC0
007C007F80
007000FF00
00E000FF00
00C000FF00
008001FE00
008001FE00
010001FE00
000003FC00
000003FC00
000003FC00
000007F800
001FFFF800
00FF07F800
03FC0FF000
0FF80FF000
0FF00FF000
1FE01FE000
3FC01FE000
7FC01FE000
7F803FC000
7F803FC000
FF803FC000
FF007F8000
FF007F8000
FF007F8000
FF00FF0000
7F00FF0000
3F81FF0000
0FFFFFE000
03FFFFF000
ENDCHAR
STARTCHAR 018C
ENCODING 396
SWIDTH 500 0
DWIDTH 25 0
BBX 25 34 1 -1
BITMAP
003FFF80
003FFF80
00380F80
00701F80
00601F00
00601F00
00C01F00
00C03F00
00003E00
00003E00
00003E00
003F7E00
00FFFC00
01F0FC00
03E0FC00
07E0FC00
0FC0F800
1F80F800
1F80F800
3F01F800
3F01F000
7E01F000
7E03F000
7E03F000
FE07E000
FC07E000
FC0FE200
FC1FE200
FC3FE600
FE77EC00
7FE7F800
7FC7F000
3F83E000
04000000
ENDCHAR
STARTCHAR 018D
ENCODING 397
SWIDTH 540 0
DWIDTH 27 0
BBX 24 35 2 -12
BITMAP
001FC0
007DF0
01F07C
03E03E
07C03E
0F803F
1F803F
3F003F
3F003F
7F007F
7E007F
FE007F
FE00FE
FE00FE
FC01FC
FC01F8
FC03F8
FC07F0
FE0FC0
7FBF80
7FFC00
3F8000
3FE000
1FF000
0FFC00
03FC00
01FE00
00FE00
007E00
403E00
C03E00
C03C00
603C00
3DF000
1FE000
ENDCHAR
STARTCHAR 018E
ENCODING 398
SWIDTH 660 0
DWIDTH 33 0
BBX 39 33 1 0
BITMAP
0007FFFFFE
000FFFFFF8
000FC03FE0
001F003FC0
001C003F80
0018003F80
0030007F00
0030007F00
0020007F00
000300FE00
000300FE00
000700FE00
000701FE00
000781FC00
000FFFFC00
000FFFFC00
000FC3F800
001E03F800
001C07F800
001807F000
003007F000
00300FF000
00200FE000
20000FE000
20001FE000
30001FC000
70001FC000
70003FC000
78003F8000
7C003F8000
7F007F8000
FFFFFFC000
FFFFFFE000
ENDCHAR
STARTCHAR 018F
ENCODING 399
SWIDTH 620 0
DWIDTH 31 0
BBX 31 36 2 -1
BITMAP
0001F000
001FFE00
007FFF80
01F03FE0
03C00FF0
070007F8
0E0003F8
1C0003FC
080001FC
000001FE
000001FE
000001FE
000001FE
000001FE
000001FE
00007FFE
0007FFFE
003FC3FE
00FF03FE
03FC03FC
07F003FC
1FE007FC
3FC007F8
3F800FF8
7F800FF0
7F001FF0
FF001FE0
FE003FC0
FE003FC0
FE007F80
FE00FF00
FE01FC00
7E03F800
7E0FE000
1FFF8000
07F80000
ENDCHAR
STARTCHAR 0190
ENCODING 400
SWIDTH 600 0
DWIDTH 30 0
BBX 32 36 1 -1
BITMAP
00003C03
0003FFC6
000FFFFE
003FC0FE
007F807E
00FF003C
01FE003C
03FC001C
03FC001C
03F80018
07F80018
07F80000
07F80000
07F80000
07FC0000
03FC0000
03FFF800
00FFF800
03FFF800
0FFC0000
1FF00000
3FE00000
3FC00000
7F800000
7F800000
FF000000
FF000000
FF0000C0
FF0001E0
FF0003C0
FF800780
7FC01F00
3FFFFE00
1FFFF800
0FFFF000
01FF8000
ENDCHAR
STARTCHAR 0191
ENCODING 401
SWIDTH 640 0
DWIDTH 32 0
BBX 40 43 -5 -10
BITMAP
0003FFFFFF
0001FFFFFF
00007FC03F
00003F801F
00003F800E
00007F8006
00007F0006
00007F0006
0000FF0006
0000FE0080
0000FE0180
0000FE0180
0001FE0380
0001FC0F00
0001FFFF00
0003FFFF00
0003FC3E00
0003F81E00
0003F80E00
0007F80C00
0007F00C00
0007F00C00
0007F00C00
000FF00000
000FE00000
000FE00000
001FE00000
001FE00000
001FC00000
001FC00000
003FC00000
003F800000
003F800000
003F800000
007F000000
007F000000
007E000000
60FE000000
F0FC000000
F0F8000000
F1F0000000
7FE0000000
3F80000000
ENDCHAR
STARTCHAR 0192
ENCODING 402
SWIDTH 440 0
DWIDTH 22 0
BBX 31 44 -5 -9
BITMAP
000003FC
00000F9E
00001F1E
00003E1E
00003E1E
00007C0C
00007C00
0000F800
0000F800
0000F800
0001F800
0001F800
001FFF80
001FFF80
0003F000
0003F000
0003E000
0003E000
0007E000
0007E000
0007E000
0007C000
000FC000
000FC000
000FC000
000F8000
001F8000
001F8000
001F8000
001F0000
001F0000
003F0000
003F0000
003E0000
003E0000
007E0000
007C0000
007C0000
70780000
F0F80000
F0F00000
F1E00000
73C00000
7F800000
ENDCHAR
STARTCHAR 0193
ENCODING 403
SWIDTH 880 0
DWIDTH 44 0
BBX 46 35 2 -1
BITMAP
00007F8007F0
0007FFE01E78
001FE078303C
003F801C607C
00FF000CC0FC
01FE0006C0FC
03FC000380F8
07F800038000
0FF000038000
0FF000030000
1FE000030000
1FE000030000
3FE000000000
3FC000000000
7FC000000000
7FC000000000
7F8000000000
FF8000000000
FF800FFFC000
FF8003FF8000
FF0001FE0000
FF0000FE0000
FF0001FC0000
FF0001FC0000
FF0001FC0000
FF0001FC0000
7F0003F80000
7F0003F80000
3F8003F80000
3F8003F00000
1FC007F00000
0FE007F00000
03F00FE00000
00FFFF000000
001FF8000000
ENDCHAR
STARTCHAR 0194
ENCODING 404
SWIDTH 620 0
DWIDTH 31 0
BBX 29 34 6 -1
BITMAP
FFFE1FF8
7FF80FF8
1FE003C0
0FE00780
0FE00700
07F00E00
07F01C00
07F03800
07F87000
03F8E000
03F9C000
03FB8000
01FF0000
01FE0000
01FC0000
00FE0000
00FE0000
00FE0000
01FF0000
03FF0000
077F0000
063F8000
0E3F8000
1C3F8000
383F8000
301F8000
701F8000
601F8000
601F8000
701F8000
703F0000
3FFE0000
3FFC0000
0FE00000
ENDCHAR
STARTCHAR 0195
ENCODING 405
SWIDTH 740 0
DWIDTH 37 0
BBX 36 35 1 0
BITMAP
0006000000
00FE000000
07FC000000
01FC000000
00FC000000
00FC000000
00F8000000
01F8000000
01F8000000
01F8000000
03F0000000
03F0000000
03F0000000
03F07E00F0
07E1FF01F0
07E3FF01F0
07E73F01F0
07EC3F00F0
0FC83F0070
0FD83F0030
0FF07E0030
0FE07E0020
1FE07C0060
1FC0FC0060
1FC0FC00C0
3F81F800C0
3F81F80180
3F01F80180
3F03F00300
7F03F00600
7E03F01C00
7E03F87800
7E03FFF000
FC01FFE000
FC00FF8000
ENDCHAR
STARTCHAR 0196
ENCODING 406
SWIDTH 280 0
DWIDTH 14 0
BBX 14 34 2 1
BITMAP
00FC
0FFC
03FC
01F8
01F8
01F8
03F0
03F0
03F0
03F0
07E0
07E0
07E0
07C0
0FC0
0FC0
0FC0
1F80
1F80
1F80
3F00
3F00
3F00
3F00
7E00
7E00
7E00
7E30
FC20
FC60
FCC0
FF80
FF00
7E00
ENDCHAR
STARTCHAR 0197
ENCODING 407
SWIDTH 380 0
DWIDTH 19 0
BBX 22 33 0 0
BITMAP
01FFFC
007FF8
001FE0
001FC0
001FC0
001FC0
003F80
003F80
003F80
007F80
007F00
007F00
007F00
00FE00
00FE00
0FFFE0
0FFFC0
01FC00
01FC00
01FC00
03FC00
03F800
03F800
03F800
07F000
07F000
07F000
0FF000
0FE000
0FE000
1FF000
7FF800
FFFE00
ENDCHAR
STARTCHAR 0198
ENCODING 408
SWIDTH 740 0
DWIDTH 37 0
BBX 42 33 0 0
BITMAP
01FFFC003F00
007FF000F780
001FE00383C0
001FC00703C0
003FC00E03C0
003F801C01C0
003F80700000
003F80E00000
007F01C00000
007F03800000
007F07000000
007F0E000000
00FE1C000000
00FE78000000
00FEF8000000
01FFFC000000
01FFFC000000
01FDFE000000
01FDFE000000
03F8FF000000
03F8FF000000
03F87F800000
03F87F800000
07F03FC00000
07F03FC00000
07F01FC00000
0FF01FE00000
0FE00FE00000
0FE00FF00000
0FE007F00000
1FE007F80000
7FF81FFE0000
FFFC7FFF0000
ENDCHAR
STARTCHAR 0199
ENCODING 409
SWIDTH 480 0
DWIDTH 24 0
BBX 25 35 0 0
BITMAP
0001C000
0007F800
001F3C00
003E3C00
003C3C00
007C1800
00FC0000
00F80000
01F80000
01F80000
01F80000
03F00000
03F00000
03F1FF80
03E0FF00
07E07C00
07E07000
07E0E000
07C1C000
0FC38000
0FC60000
0FCF0000
1FBF0000
1FFF0000
1FDF0000
1F9F0000
3F1F8000
3F1F8000
3F1F8000
3E0F8200
7E0FC600
7E0FEC00
7E07FC00
FC07F800
FC03F000
ENDCHAR
STARTCHAR 019A
ENCODING 410
SWIDTH 320 0
DWIDTH 16 0
BBX 15 34 3 1
BITMAP
007E
07FC
01FC
00FC
00FC
00F8
01F8
01F8
01F8
01F0
03F0
03F0
03E0
07E0
07E0
07E0
7FFE
FFFC
0FC0
0FC0
0F80
1F80
1F80
1F80
3F00
3F00
3F00
3F10
7E10
7E30
7E60
7FC0
7F80
3F00
ENDCHAR
STARTCHAR 019B
ENCODING 411
SWIDTH 500 0
DWIDTH 25 0
BBX 24 35 1 0
BITMAP
000F00
001F80
003F80
003F80
007F80
0071C2
00C1CE
00C0FE
0000FC
0007F0
001FC0
00FFC0
00FBC0
00C3C0
0007C0
000FC0
000FC0
001FC0
003FC0
003FC0
007FC0
00FEC0
00FEC0
01FCC0
03F8C0
03F8C0
07F0C0
0FE0C1
0FE0C3
1FC0C3
3FC0FE
3F80FE
7F00FE
FF00FC
FE0078
ENDCHAR
STARTCHAR 019C
ENCODING 412
SWIDTH 860 0
DWIDTH 43 0
BBX 44 34 2 -1
BITMAP
0FFF9FF9FFF0
03FE0FF0FFC0
01FE0FE07F80
01FE0FE07F00
01FC0FE07F00
03FC1FE0FF00
03FC1FC0FE00
03F81FC0FE00
03F81FC1FE00
07F83F81FC00
07F03F81FC00
07F03F81FC00
0FF07F83FC00
0FF07F03F800
0FE07F03F800
0FE0FF07F800
1FE0FE07F000
1FC0FE07F000
1FC1FE0FF000
3FC1FE0FF000
3F83FC1FE000
3F83FC1FE000
3F83FC3FE000
7F87F83FC000
7F07F83FC000
7F0FF87FC000
FF0BF8FFC000
FE1FF0FF8000
FE37F1BF8000
FE67F37F8000
FFC7FE7F8000
FF87FC7FE000
7F03F8FFF000
000000800000
ENDCHAR
STARTCHAR 019D
ENCODING 413
SWIDTH 820 0
DWIDTH 41 0
BBX 50 43 -5 -10
BITMAP
00003FF000FFC0
00001FF8007F80
000003F8001E00
000003FC000E00
000003FC000C00
000003FE001C00
000006FE001800
000006FE001800
000006FF001800
00000C7F003800
00000C7F803000
00000C3F803000
00000C3FC03000
0000181FC06000
0000181FE06000
0000180FE06000
0000300FF0E000
00003007F0C000
00003007F8C000
00003003F8C000
00006003FDC000
00006003FD8000
00006001FF8000
0000C001FF8000
0000C000FF0000
0000C000FF0000
0001C0007F0000
000180007F0000
000180003E0000
000180003E0000
000300001E0000
000300001C0000
000300000C0000
000600000C0000
00060000000000
00060000000000
000C0000000000
600C0000000000
F0180000000000
F0380000000000
F0700000000000
7FE00000000000
3F000000000000
ENDCHAR
STARTCHAR 019E
ENCODING 414
SWIDTH 500 0
DWIDTH 25 0
BBX 24 35 1 -12
BITMAP
07F0FE
3FE1FE
0FE3FE
07E63F
0FCC7E
0FD87E
0FD07E
0FA0FE
1FE0FC
1FC0FC
1FC0FC
3F81F8
3F81F8
3F01F8
3F03F8
7F03F0
7E03F0
7E03F0
FE03E0
FC07E0
FC07E0
FC07C0
0007C0
0007C0
0007C0
000780
000780
000780
000780
000380
00038E
00019F
0001DF
0000FE
00003C
ENDCHAR
STARTCHAR 019F
ENCODING 415
SWIDTH 680 0
DWIDTH 34 0
BBX 33 35 1 -1
BITMAP
00007F8000
0003FFE000
000FC0F800
001F007C00
007E007E00
00FC003E00
01FC003F00
03F8003F00
03F0003F80
07F0003F80
0FE0003F80
0FE0003F80
1FE0007F80
3FC0007F80
3FC0007F80
3FC0007F80
7FFFFFFF80
7FFFFFFF00
7F8000FF00
FF0000FF00
FF0001FE00
FF0001FE00
FF0001FC00
FF0003FC00
FE0003F800
FE0007F800
FE0007F000
7E000FE000
7E000FC000
7E001F8000
3F003F0000
1F007C0000
0F80F80000
03FFE00000
00FF000000
ENDCHAR
STARTCHAR 01A0
ENCODING 416
SWIDTH 800 0
DWIDTH 40 0
BBX 44 37 1 -1
BITMAP
0000000003C0
0000000007E0
00007F800FE0
0003FFE00FF0
000FC0F80FF0
001F007C07F0
007E007E0070
00FC003E0060
01FC003F00C0
03F8003F8380
07F0003FFF00
07F0003FFC00
0FE0003F8000
1FE0003F8000
1FC0007F8000
3FC0007F8000
3FC0007F8000
3F80007F8000
7F80007F8000
7F8000FF0000
7F8000FF0000
FF0000FF0000
FF0001FE0000
FF0001FE0000
FF0001FC0000
FE0003FC0000
FE0003F80000
FE0007F00000
FE0007F00000
7E000FE00000
7E000FC00000
7E001F800000
3F003F000000
1F007C000000
0F81F8000000
03FFE0000000
00FF00000000
ENDCHAR
STARTCHAR 01A1
ENCODING 417
SWIDTH 580 0
DWIDTH 29 0
BBX 31 30 1 0
BITMAP
00000010
000000FC
000001FC
000001FE
000001FE
000001FE
0000000E
0000000C
007FC00C
00F1E018
03E0F830
07C0FFE0
0F80FF80
1F80FC00
1F00FC00
3F00FC00
3F01FC00
7E01FC00
7E01FC00
FE01F800
FE03F800
FC03F000
FC03F000
FC07E000
FC07E000
FC07C000
7C0F8000
7C1F0000
3E3C0000
0FF80000
ENDCHAR
STARTCHAR 01A2
ENCODING 418
SWIDTH 1020 0
DWIDTH 51 0
BBX 48 35 1 -1
BITMAP
00007F800000
0003FFE001FC
000FC0F807FF
001F007C1FFF
007E007E38FF
00FC003E607F
01FC003FC07F
03F8003F807F
07F0003F807F
07F0003F80FE
0FE0003F80FE
1FE0003F80FE
1FC0007F81FE
3FC0007F81FC
3FC0007F81FC
3F80007F83FC
7F80007F83F8
7F8000FF03F8
7F0000FF03F8
FF0000FF07F8
FF0001FE07F0
FF0001FE07F0
FF0001FC0FF0
FE0003FC0FE0
FE0003F80FE0
FE0007F80FE0
FE0007F01FC0
7E000FE01FC0
7E000FC01FC0
7F001F803FC0
3F003F003FC0
1F007C003FC0
0F81F800FFE0
03FFE001FFF8
00FF00000000
ENDCHAR
STARTCHAR 01A3
ENCODING 419
SWIDTH 760 0
DWIDTH 38 0
BBX 36 22 1 1
BITMAP
003FC00FC0
00F1F01FE0
03E0F07FE0
07C0F867E0
0F80FC87E0
1F80FD87E0
1F00FF0FE0
3F00FE0FC0
3F01FC0FC0
7E01FC0FC0
7E01F81F80
7E01F81F80
FE03F81F80
FE03F83F00
FC03F03F00
FC07E03F00
FC07E07E30
FC07C07E20
7C0F807E60
7C1F007FC0
3E3E007F80
0FF8003E00
ENDCHAR
STARTCHAR 01A4
ENCODING 420
SWIDTH 720 0
DWIDTH 36 0
BBX 36 33 3 0
BITMAP
003FFFFC00
03FFFFFF80
0E03F81FC0
1803F81FE0
3007F80FE0
6007F00FF0
C007F00FF0
C007F00FF0
F80FE00FF0
FC0FE00FF0
FC0FE01FF0
7C1FE01FE0
381FC03FE0
001FC03FC0
001FC07F80
003F81FE00
003FFFF800
003FFFC000
003F800000
007F000000
007F000000
007F000000
00FF000000
00FE000000
00FE000000
00FE000000
01FC000000
01FC000000
01FC000000
03FC000000
03FC000000
1FFF000000
1FFFC00000
ENDCHAR
STARTCHAR 01A5
ENCODING 421
SWIDTH 480 0
DWIDTH 24 0
BBX 28 45 -4 -10
BITMAP
00000E00
00007FC0
0000F1E0
0001F3E0
0003E3E0
0003E1C0
0007C000
0007C000
000FC000
000FC000
001F8000
001F8000
001F8000
001F8FC0
003F3FE0
003F7FF0
003FE7F0
003F83F0
007F03F0
007E03F0
007E03F0
007E03F0
00FC07F0
00FC07E0
00FC07E0
00F807E0
01F80FC0
01F80FC0
01F81F80
03F01F00
03F03F00
03F07E00
03F0FC00
07F9F000
07FFE000
07E00000
07E00000
0FC00000
0FC00000
0FC00000
0F800000
1F800000
1F800000
3FC00000
FFF80000
ENDCHAR
STARTCHAR 01A6
ENCODING 422
SWIDTH 660 0
DWIDTH 33 0
BBX 33 43 0 -10
BITMAP
01FFFC0000
00FFF80000
003FE00000
001FC00000
003FC00000
003F800000
003FF80000
003FFFC000
007F87F000
007F03F800
007F01FC00
007F01FE00
00FE01FE00
00FE01FE00
00FE01FE00
01FC01FE00
01FC03FE00
01FC03FC00
01FC03FC00
03F807F800
03F80FF000
03F83FE000
03FFFF0000
07FFFF0000
07F07FC000
07F03FC000
0FE01FE000
0FE01FE000
0FE01FE000
0FE01FE000
1FE01FE000
7FF81FE000
FFFE3FE000
00003FE000
00003FC000
00003FC000
00003FC000
00003FC000
00003FC180
00001FC380
00001FE700
00000FFC00
000003F000
ENDCHAR
STARTCHAR 01A7
ENCODING 423
SWIDTH 520 0
DWIDTH 26 0
BBX 26 36 1 -1
BITMAP
00C1FE00
00FFFF00
01FE0F80
01F807C0
01E007C0
01E007C0
01C007C0
03800FC0
03000FC0
03001FC0
02003F80
00007F80
0000FF00
0003FF00
000FFE00
001FF800
007FF000
00FFE000
03FF8000
07FF0000
0FFC0000
1FF80000
3FE00000
3FC00000
7F800000
7F000600
FE000600
FC000C00
FC000C00
FC001C00
FC003C00
FC007C00
FC00F800
7E03F800
3FFF3800
07F01800
ENDCHAR
STARTCHAR 01A8
ENCODING 424
SWIDTH 400 0
DWIDTH 20 0
BBX 16 23 0 0
BITMAP
18FC
1FFE
3F0F
3C0F
380F
301F
303F
207F
00FE
01FC
03FC
07F8
1FE0
3FC0
3F80
7F01
7E02
FC06
F806
F00E
F01E
787E
3FFE
ENDCHAR
STARTCHAR 01A9
ENCODING 425
SWIDTH 700 0
DWIDTH 35 0
BBX 37 33 1 0
BITMAP
007FFFFFF8
007FFFFFF8
007F8001F8
007F800078
003FC00030
003FC00030
001FE00030
001FE00030
000FF00030
000FF00030
0007F00000
0007F80000
0003F80000
0003FC0000
0001FC0000
0001FC0000
0000F80000
0000F00000
0000C00000
0001800000
0007000000
000E000080
001C000080
0030000180
0060000300
00C0000F00
03FFFFFF00
07FFFFFE00
0FFFFFFE00
1FFFFFFE00
3FFFFFFC00
7FFFFFFC00
FFFFFFFC00
ENDCHAR
STARTCHAR 01AA
ENCODING 426
SWIDTH 460 0
DWIDTH 23 0
BBX 14 52 7 -13
BITMAP
0780
1FE0
3870
6038
6018
C00C
C00C
C00C
C00C
C00C
E01C
6038
3078
1FF8
0FF8
03F0
03F0
03F0
03F0
07E0
07E0
07E0
0FE0
0FE0
0FC0
0FC0
1FC0
1FC0
1F80
1F80
1F80
3F80
3F00
3F00
3F00
7F00
7E00
7E00
7E00
7E00
7E00
7C00
7C00
7C00
7C00
3C00
3C00
3C70
1CF8
0CF8
07F0
01E0
ENDCHAR
STARTCHAR 01AB
ENCODING 427
SWIDTH 340 0
DWIDTH 17 0
BBX 22 40 -4 -11
BITMAP
000038
000030
000070
0000F0
0001E0
0003E0
000FE0
003FFC
003FFC
000FC0
000FC0
000FC0
000F80
001F80
001F80
001F00
003F00
003F00
003F00
003E00
007E00
007E00
007E10
00FC30
00FC70
00FCE0
00FFA0
00FF60
007E60
000040
0000C0
0000C0
000080
780180
FC0100
FC0300
FC0600
FC1C00
787000
3FC000
ENDCHAR
STARTCHAR 01AC
ENCODING 428
SWIDTH 620 0
DWIDTH 31 0
BBX 29 33 3 0
BITMAP
007FFFF8
03FFFFF8
0E0FE1F8
180FE0F0
301FE070
601FC070
C01FC030
C01FC030
D03FC020
F83F8000
FC3F8000
7C7F8000
387F0000
007F0000
007F0000
00FF0000
00FE0000
00FE0000
00FE0000
01FE0000
01FC0000
01FC0000
03FC0000
03F80000
03F80000
03F80000
07F80000
07F00000
07F00000
0FF00000
0FF00000
3FFC0000
FFFF0000
ENDCHAR
STARTCHAR 01AD
ENCODING 429
SWIDTH 380 0
DWIDTH 19 0
BBX 21 35 2 0
BITMAP
000380
000FF0
003E78
007C78
00F878
00F830
01F800
01F000
03F000
03F000
03E000
07E000
1FE000
3FFE00
3FFE00
0FC000
0FC000
0F8000
1F8000
1F8000
1F8000
1F0000
3F0000
3F0000
3F0000
7E0000
7E0000
7E0000
7E3000
FC2000
FC6000
FCC000
FF8000
FF0000
7E0000
ENDCHAR
STARTCHAR 01AE
ENCODING 430
SWIDTH 620 0
DWIDTH 31 0
BBX 28 46 5 -13
BITMAP
3FFFFFF0
3FFFFFF0
7F0FE1F0
7C0FE0F0
781FE070
701FC070
E01FC030
C03FC030
803FC020
003F8020
003F8000
007F8000
007F0000
007F0000
007F0000
00FF0000
00FE0000
00FE0000
00FE0000
01FC0000
01FC0000
01FC0000
01FC0000
03F80000
03F80000
03F80000
03F80000
03F00000
03F00000
07F00000
07E00000
07E00000
07E00000
07E00000
07C00000
07C00000
07C00000
07C00000
07C00000
03C00000
03800000
01870000
01CF8000
00CF8000
007F0000
003E0000
ENDCHAR
STARTCHAR 01AF
ENCODING 431
SWIDTH 880 0
DWIDTH 44 0
BBX 42 37 3 -1
BITMAP
000000000600
000000001F80
000000003F80
3FFF80FF3FC0
1FFF007F3FC0
07FC001E1FC0
07F8000E01C0
07F8000E0180
07F0000E0380
07F0000F0700
0FF0001BFC00
0FF00019F000
0FE000180000
1FE000380000
1FE000300000
1FC000300000
1FC000300000
3FC000600000
3FC000600000
3F8000600000
3F8000C00000
7F8000C00000
7F0000C00000
7F0000C00000
7F0001800000
FF0001800000
FE0001800000
FE0003000000
FE0003000000
FE0006000000
FE0006000000
7E000C000000
7F001C000000
3F8078000000
1FFFF0000000
0FFFC0000000
01FE00000000
ENDCHAR
STARTCHAR 01B0
ENCODING 432
SWIDTH 660 0
DWIDTH 33 0
BBX 35 30 2 0
BITMAP
0000000100
0000000FC0
0000001FC0
0000001FE0
0000001FE0
0000001FE0
00000000E0
00200000C0
07E07E00C0
7FC07F0180
1FC0FF8300
0FC0FDFE00
0FC0FCF800
1F80FC0000
1F81F80000
1F81F80000
1F03F80000
3F03F00000
3F03F00000
3F07F00000
7E07E00000
7E0FE00000
7E0FE00000
FC17E00000
FC3FC20000
FC6FC60000
FCCFCC0000
FF8FF80000
FF0FF00000
7E0FE00000
ENDCHAR
STARTCHAR 01B1
ENCODING 433
SWIDTH 720 0
DWIDTH 36 0
BBX 39 34 1 -1
BITMAP
03FFF03FFE
03FFF07FFE
07FFE07FFE
07FFE07FFC
07FFE07FFC
07FFC0FFFC
0E00C0C00C
0800C08008
0000C18000
000781F000
003F81FC00
00FE007E00
01FC007F00
07F8003F80
0FF0003F80
1FE0003FC0
3FE0003FC0
3FC0003FC0
7FC0003FC0
7F80003FC0
FF80007FC0
FF80007FC0
FF00007F80
FF0000FF80
FF0000FF00
FF0001FF00
FF0001FE00
7F0003FC00
7F0003F800
3F8007F000
1FC01FC000
0FE03F8000
03FFFC0000
007FE00000
ENDCHAR
STARTCHAR 01B2
ENCODING 434
SWIDTH 620 0
DWIDTH 31 0
BBX 30 35 4 -1
BITMAP
000001E0
3FFF87F0
1FFF07F8
07FC07CC
07F8078C
07F8000C
07F0000C
07F0001C
0FF00018
0FF00018
0FE00018
1FE00038
1FE00030
1FC00030
1FC00070
3FC00060
3FC00060
3F800060
3F8000E0
7F8000C0
7F0000C0
7F0001C0
7F000180
FF000180
FE000180
FE000300
FE000300
FE000700
FE000600
7E000C00
7F001C00
3F807800
1FFFF000
0FFFC000
01FE0000
ENDCHAR
STARTCHAR 01B3
ENCODING 435
SWIDTH 700 0
DWIDTH 35 0
BBX 34 34 5 0
BITMAP
1F80000000
7FE001FFC0
F1F0007F80
F1F8003E00
F0FC003C00
F0FC003800
00FE003000
007F007000
007F00E000
007F00C000
003F818000
003F838000
003F830000
001FC60000
001FCE0000
001FCC0000
000FF80000
000FF00000
000FF00000
000FE00000
000FE00000
001FE00000
001FC00000
001FC00000
003FC00000
003FC00000
003F800000
003F800000
007F800000
007F800000
007F000000
00FF800000
07FFC00000
0FFFF00000
ENDCHAR
STARTCHAR 01B4
ENCODING 436
SWIDTH 600 0
DWIDTH 30 0
BBX 34 44 -3 -10
BITMAP
0000000F80
00000013C0
00000023C0
00000063C0
00000043C0
0000004180
000000C000
0000008000
0000008000
0000018000
0000010000
0000010000
007C030000
03FC020000
03FC020000
00FE060000
007E060000
007E040000
007E040000
007E0C0000
003F080000
003F080000
003F180000
003F100000
001F100000
001FB00000
001FA00000
001FA00000
001FE00000
000FC00000
000FC00000
000FC00000
000F800000
000F800000
000F000000
000E000000
000E000000
001C000000
0018000000
0030000000
7C60000000
FFC0000000
FF80000000
7E00000000
ENDCHAR
STARTCHAR 01B5
ENCODING 437
SWIDTH 560 0
DWIDTH 28 0
BBX 30 33 0 0
BITMAP
01FFFFFC
03FFFFFC
03F807F8
03E007F8
07C00FF0
07001FE0
06003FE0
0E003FC0
0C007F80
0000FF00
0000FF00
0001FE00
0003FC00
0007F800
0007F800
03FFFF80
03FFFF80
001FE000
003FC000
007F8000
00FF0000
00FF0000
01FE0000
03FC0010
07FC0030
07F80070
0FF00060
1FE000E0
3FE003E0
3FC007C0
7F803FC0
FFFFFFC0
FFFFFFC0
ENDCHAR
STARTCHAR 01B6
ENCODING 438
SWIDTH 420 0
DWIDTH 21 0
BBX 20 26 0 -4
BITMAP
07FFF0
07FFE0
0FFFE0
0FFFC0
0FFF80
0C0300
180600
000C00
001800
003800
07FF00
0FFF00
00C000
018000
038000
030000
060000
0F0000
1F8000
3FC000
3FE1E0
7FE3E0
E3F3E0
01F1E0
0079C0
001F00
ENDCHAR
STARTCHAR 01B7
ENCODING 439
SWIDTH 600 0
DWIDTH 30 0
BBX 32 34 1 -1
BITMAP
003FFFFF
007FFFFF
007F00FE
007C01FC
00F803F8
00E007F8
00C00FF0
01C01FE0
01801FC0
00003F80
00007F00
0000FE00
0001FE00
0003FC00
0003F800
00007F00
00003F80
00001FC0
00001FC0
00001FE0
00001FE0
00001FE0
3C001FE0
7E001FE0
FE003FE0
FE003FE0
FE003FC0
FC007FC0
7800FF80
7800FF00
3C03FE00
1E0FF800
07FFE000
00FF0000
ENDCHAR
STARTCHAR 01B8
ENCODING 440
SWIDTH 620 0
DWIDTH 31 0
BBX 31 34 2 -1
BITMAP
007FFFFE
00FFFFFE
00FF00FE
007F003E
007F801E
007F801C
003F801C
003FC00C
003FC00C
001FC000
001FE000
001FE000
000FE000
000FF000
000FE000
007F0000
01FC0000
03F80000
0FF00000
1FE00000
3FC00000
3FC00000
7F800F00
7F801F80
FF801F80
FF001FC0
FF001F80
FF001F80
FF000F00
FF000E00
7F803800
3FC1F000
1FFF8000
03FC0000
ENDCHAR
STARTCHAR 01B9
ENCODING 441
SWIDTH 480 0
DWIDTH 24 0
BBX 25 33 0 -11
BITMAP
03FFFF80
01FFFF80
00FFFF80
007FFF80
003FFF80
00180180
000C0100
00060000
00130000
01FF8000
03FFC000
0FFFC000
0FFFE000
1FF02000
3FC00000
3F800000
7F000000
7E000000
7E000000
FC000000
FC000000
FC000000
F8000000
F8000000
F8000000
F8002000
7800F800
7C00F800
7C00F800
3E007000
1F01E000
07FF8000
01FC0000
ENDCHAR
STARTCHAR 01BA
ENCODING 442
SWIDTH 420 0
DWIDTH 21 0
BBX 25 33 -2 -11
BITMAP
03FFFF80
03FFFF80
03FFFE00
07FFFC00
07FFF800
06006000
0C01C000
0C038000
00070000
001DE000
003FF000
007FF800
01F1F800
0380F800
0000F800
0000F800
0003F000
000FF000
003FE000
00FF8000
03FF0000
0FFC0000
1FF00000
3FC00000
7F000000
7E000000
FC000000
F81C0000
F83E0000
F83E0000
7C1E0000
3F9C0000
07F00000
ENDCHAR
STARTCHAR 01BB
ENCODING 443
SWIDTH 500 0
DWIDTH 25 0
BBX 25 33 0 1
BITMAP
001FE000
007FF800
00FFFC00
01FFFE00
03C1FE00
0300FE00
0600FF00
04007F00
00007F00
00007F00
00007E00
00007E00
0000FC00
0000FC00
0000F800
003FFF80
003FFF80
0003E000
0007C000
000F0000
001E0000
003C0000
00780000
00F00000
01C00400
03800C00
07001800
0FFFF800
1FFFF000
3FFFF000
7FFFE000
FFFFE000
FFFFE000
ENDCHAR
STARTCHAR 01BC
ENCODING 444
SWIDTH 600 0
DWIDTH 30 0
BBX 31 34 1 -1
BITMAP
07FFFFFE
03FFFFFC
00FF00FC
00FF003C
00FF001C
00FE001C
00FE0018
00FE0018
01FC0018
01FC0000
01FC0000
01FC0000
03F80000
03FF8000
03FFFC00
0000FF00
00003F80
00001FC0
00001FC0
00001FE0
00001FE0
00001FE0
3C001FE0
7E001FE0
FE003FE0
FE003FE0
FE003FC0
FC007FC0
7800FF80
7800FF00
3C01FE00
1E07F800
07FFE000
00FF0000
ENDCHAR
STARTCHAR 01BD
ENCODING 445
SWIDTH 440 0
DWIDTH 22 0
BBX 25 34 -3 -12
BITMAP
001FFF80
003FFF80
003FFF00
007FFF00
007FFF00
00C00000
00C00000
00C00000
01800000
01C00000
03F80000
03FF0000
07FF8000
07FFE000
0FFFE000
007FF000
001FF800
0007F800
0003F800
0001F800
0001F800
0000F800
0000F800
0000F800
0000F800
0000F000
0000F000
0001E000
7801E000
FC03C000
FE078000
FF0E0000
7FFC0000
1FE00000
ENDCHAR
STARTCHAR 01BE
ENCODING 446
SWIDTH 400 0
DWIDTH 20 0
BBX 15 29 3 0
BITMAP
0038
0030
0070
00F0
01E0
03E0
0FE0
3FF8
3FF8
0FC0
1F80
1F80
1F80
1FC0
1FC0
0FE0
0FF0
07F8
07F8
03FC
01FC
00FE
407E
607E
603E
E03C
F03C
F878
FFE0
ENDCHAR
STARTCHAR 01BF
ENCODING 447
SWIDTH 480 0
DWIDTH 24 0
BBX 28 32 -4 -9
BITMAP
007F1FC0
01FF3FE0
003F7FF0
003FE7F0
003F83F0
003F03F0
007F03F0
007E03F0
007E03F0
007C07E0
00FC07E0
00FC07C0
00FC0F80
00F81F80
01F81F00
01F83E00
01F07C00
03F0F000
03F1E000
03F3C000
03EF0000
07FC0000
07F00000
07E00000
07C00000
0FC00000
0FC00000
0FC00000
0FC00000
1F800000
1FC00000
FFF80000
ENDCHAR
STARTCHAR 01C0
ENCODING 448
SWIDTH 260 0
DWIDTH 13 0
BBX 12 35 3 -1
BITMAP
01F0
01E0
01E0
03E0
03E0
03C0
03C0
03C0
07C0
07C0
0780
0780
0780
0F80
0F80
0F00
0F00
1F00
1F00
1E00
1E00
1E00
3E00
3E00
3C00
3C00
3C00
7C00
7C00
7800
7800
7800
F800
F800
F000
ENDCHAR
STARTCHAR 01C1
ENCODING 449
SWIDTH 420 0
DWIDTH 21 0
BBX 21 35 3 -1
BITMAP
01F0F8
01E0F0
01E0F0
03E1F0
03E1F0
03C1E0
03C1E0
03C1E0
07C3E0
07C3E0
0783C0
0783C0
0783C0
0F87C0
0F87C0
0F0780
0F0780
1F0F80
1F0F80
1E0F00
1E0F00
1E0F00
3E1F00
3E1F00
3C1E00
3C1E00
3C1E00
7C3E00
7C3E00
783C00
783C00
783C00
F87C00
F87C00
F07800
ENDCHAR
STARTCHAR 01C2
ENCODING 450
SWIDTH 560 0
DWIDTH 28 0
BBX 28 36 3 -5
BITMAP
0001F000
0001F000
0001E000
0001E000
0001E000
0003E000
0003E000
0003C000
0003C000
0003C000
1FFFFFF0
1FFFFFF0
1FFFFFF0
3FFFFFF0
3FFFFFE0
000F8000
000F0000
000F0000
000F0000
001F0000
001F0000
7FFFFFC0
FFFFFFC0
FFFFFF80
FFFFFF80
FFFFFF80
003C0000
003C0000
007C0000
007C0000
00780000
00780000
00780000
00F80000
00F80000
00F00000
ENDCHAR
STARTCHAR 01C3
ENCODING 451
SWIDTH 340 0
DWIDTH 17 0
BBX 16 34 3 0
BITMAP
003E
003F
007F
007F
007F
007F
007E
00FE
00FC
00FC
00F8
00F8
00F0
00F0
01E0
01E0
01C0
01C0
01C0
0180
0180
0300
0300
0100
0000
0000
0000
1C00
7E00
FF00
FF00
FF00
FF00
7E00
ENDCHAR
STARTCHAR 01C4
ENCODING 452
SWIDTH 1300 0
DWIDTH 65 0
BBX 67 45 0 0
BITMAP
000000000000700380
000000000000780F00
0000000000003C1E00
0000000000003E3C00
0000000000001EF800
0000000000000FF000
0000000000000FE000
00000000000007C000
000000000000078000
000000000000000000
000000000000000000
000000000000000000
01FFFFE0001FFFFFE0
00FFFFFC001FFFFFE0
001FC07F001FC03FC0
001FC01F803F007F80
003FC01FC03C007F80
003F800FE03800FF00
003F800FE07001FE00
003F8007F06003FE00
007F8007F04003FC00
007F0007F80007F800
007F0007F8000FF000
00FF0007F8001FF000
00FF0007F8001FE000
00FE0007F8003FC000
00FE0007F8007F8000
01FE0007F8007F8000
01FC000FF800FF0000
01FC000FF801FE0000
01FC000FF003FE0000
03FC000FF003FC0000
03F8001FF007F80000
03F8001FE00FF00000
03F8003FE01FF00000
07F8003FC01FE00180
07F0007F803FC00180
07F0007F807F800300
0FF000FF00FF800700
0FF001FE00FF000F00
0FE003F801FE001F00
1FE007F003FE007E00
1FE01FC003FC01FE00
7FFFFF0007FFFFFE00
FFFFF00007FFFFFC00
ENDCHAR
STARTCHAR 01C5
ENCODING 453
SWIDTH 1120 0
DWIDTH 56 0
BBX 59 39 0 -4
BITMAP
00000000001C00E0
00000000001C01C0
01FFFFE0000E0380
00FFFFFC000F0F00
001FC07F00079F00
001FC01F8007FE00
003FC01FC003FC00
003F800FE003F800
003F800FE001F000
003F8007F0000000
007F8007F0000000
007F0007F8000000
007F0007F8000000
00FF0007F83FFF80
00FF0007F87FFF00
00FE0007F87FFF00
00FE0007F87FFE00
01FE0007F87FFC00
01FC000FF8C03800
01FC000FF8C07000
01FC000FF0806000
03FC000FF000E000
03F8001FF001C000
03F8001FE0038000
03F8003FE0070000
07F8003FC0060000
07F0007F800C0000
07F0007F80180000
0FF000FF00380000
0FF001FE00700000
0FE003F800700000
1FE007F000FC0000
1FE01FC001FE0000
7FFFFF0003FE1E00
FFFFF00003FF1F00
00000000063F1F00
00000000000F9E00
000000000003DE00
000000000000F800
ENDCHAR
STARTCHAR 01C6
ENCODING 454
SWIDTH 880 0
DWIDTH 44 0
BBX 47 39 1 -4
BITMAP
00000023800E
000007E1C03C
0000FFE1E078
00003FC0F1F0
00000FC0FBE0
00001FC07FC0
00001F807F80
00001F803F00
00001F803E00
00003F800000
00003F000000
00003F000000
00003F000000
003FFF07FFF8
00FFFE07FFF0
01F0FE0FFFE0
03E0FE0FFFC0
07E0FC0FFF80
0FC0FC080300
1F80FC180700
1F81FC100E00
3F01F8001C00
3F01F8003800
7E01F8003000
7E03F0006000
7E03F000C000
FE07F001C000
FC07E0038000
FC0FE2030000
FC0FE2060000
FC1FE60F0000
FE37EC1F8000
7FE7F83FC000
7FC7F03FE1C0
3F83E07FE3E0
040000E3F3E0
00000001F1E0
0000000079C0
000000001F00
ENDCHAR
STARTCHAR 01C7
ENCODING 455
SWIDTH 1100 0
DWIDTH 55 0
BBX 59 38 0 -5
BITMAP
01FFFE00000FFFE0
00FFF8000007FFC0
001FE0000000FF00
001FC0000000FE00
003FC0000000FE00
003F80000001FE00
003F80000001FC00
003F80000001FC00
007F80000003FC00
007F00000003FC00
007F00000003F800
007F00000003F800
00FE00000007F800
00FE00000007F800
00FE00000007F000
01FE00000007F000
01FC0000000FF000
01FC0000000FE000
01FC0000000FE000
03FC0000000FE000
03F80000001FE000
03F80000001FC000
03F80000001FC000
07F80004003FC000
07F0000C003FC000
07F0001C003F8000
0FF00018003F8000
0FE00038007F8000
0FE000F8007F8000
1FE001F0007F0000
1FE00FF0E07F0000
7FFFFFF1F0FE0000
FFFFFFE1F8FE0000
00000003F8FC0000
00000001F1FC0000
00000001F1F80000
00000000FFF00000
000000003F800000
ENDCHAR
STARTCHAR 01C8
ENCODING 456
SWIDTH 880 0
DWIDTH 44 0
BBX 47 44 0 -10
BITMAP
00000000003C
01FFFE00007E
00FFF800007E
001FE000007E
001FC000007E
003FC000007E
003F80000018
003F80000000
003F80000000
007F80000000
007F00000000
007F00000000
007F000007F8
00FE00001FF8
00FE000003F8
00FE000003F0
01FE000003F0
01FC000003F0
01FC000003F0
01FC000007E0
03FC000007E0
03F8000007E0
03F8000007E0
03F800000FC0
07F800040FC0
07F0000C0FC0
07F0001C0F80
0FF000181F80
0FE000381F80
0FE000F81F80
1FE001F03F00
1FE00FF03F00
7FFFFFF03F00
FFFFFFE03F00
000000007E00
000000007E00
000000007E00
000000007C00
00000060FC00
000000F0F800
000000F1F000
000000F1E000
000000FFC000
0000003F0000
ENDCHAR
STARTCHAR 01C9
ENCODING 457
SWIDTH 560 0
DWIDTH 28 0
BBX 29 45 2 -10
BITMAP
00040000
01FC00E0
0FFC01F0
03F803F8
01F803F8
01F803F8
01F801F0
01F000E0
03F00000
03F00000
03F00000
07E00000
07E00000
07E03FE0
07C0FFC0
0FC01FC0
0FC00FC0
0FC01FC0
1F801F80
1F801F80
1F801F80
1F001F00
3F003F00
3F003F00
3F003F00
7E007E00
7E007E00
7E007E00
7E307E00
FC20FC00
FC60FC00
FCC0FC00
FF80FC00
FF01F800
7E01F800
0001F800
0001F000
0003F000
0003F000
0303E000
0787C000
0787C000
078F8000
03FF0000
01F80000
ENDCHAR
STARTCHAR 01CA
ENCODING 458
SWIDTH 1140 0
DWIDTH 57 0
BBX 60 38 0 -5
BITMAP
01FF800FFE07FFF0
00FF8007FC03FFE0
003FC000F0007F80
001FC000E0007F00
001FE000E0007F00
003FE000E000FF00
003FF000C000FF00
0037F000C000FE00
0027F801C000FE00
0067F8018001FE00
0063FC018001FC00
0043FC018001FC00
00C1FE038001FC00
00C1FE030003FC00
00C0FF030003F800
0080FF030003F800
01807F060007F800
01807F860007F800
01003F860007F000
03003FCE0007F000
03001FCC000FF000
03001FEC000FF000
06000FEC000FE000
06000FF8000FE000
060007F8001FE000
060007F8001FC000
0C0003F8001FC000
0C0003F0001FC000
0C0003F0003FC000
1C0001F0003F8000
1E0001E0703F8000
7F8000E0F87F8000
FFC000E0FC7F0000
00000060FC7F0000
00000000F8FE0000
00000000F8FC0000
000000007FF80000
000000000FE00000
ENDCHAR
STARTCHAR 01CB
ENCODING 459
SWIDTH 940 0
DWIDTH 47 0
BBX 50 44 0 -10
BITMAP
00000000000780
01FF800FFE0FC0
00FF8007FC0FC0
003FC000F00FC0
001FC000E00FC0
001FE000E00FC0
003FE000E00300
003FF000C00000
0037F000C00000
0027F801C00000
0067F801800000
0063FC01800000
0043FC0180FF00
00C1FE0383FF00
00C1FE03007E00
00C0FF03007E00
0080FF03007E00
01807F06007E00
01807F8600FC00
01003F8600FC00
03003FCE00FC00
03001FCC00FC00
03001FEC01F800
06000FEC01F800
06000FF801F800
060007F801F800
060007F803F000
0C0003F803F000
0C0003F003F000
0C0003F003F000
1C0001F007E000
1E0001E007E000
7F8000E007E000
FFC000E007E000
000000600FC000
000000000FC000
000000000F8000
000000001F8000
000000081F0000
0000001E1F0000
0000001E3E0000
0000001E3C0000
0000001FF80000
00000007E00000
ENDCHAR
STARTCHAR 01CC
ENCODING 460
SWIDTH 780 0
DWIDTH 39 0
BBX 43 44 0 -10
BITMAP
000000000780
000000000FC0
000000000FC0
000000000FE0
000000000FC0
0000000007C0
000000000300
000000000000
000000000000
000000000000
000000000000
000000000000
07F07E00FF00
1FF1FF03FF00
07F3FF007F00
07E33F007E00
07E43F007E00
07E83F007E00
0FD83F007E00
0FD07E00FC00
0FE07E00FC00
0FE07E00FC00
1FC0FC00FC00
1FC0FC01F800
1F80FC01F800
1F81F801F800
3F81F801F800
3F01F803F000
3F03F183F000
7F03F103F000
7E03F203F000
7E03FE07E000
7E03FC07E000
FC01F807E000
00000007C000
0000000FC000
0000000FC000
0000000F8000
00000C1F8000
00001E1F0000
00001E1E0000
00001E3C0000
00000FF80000
000007E00000
ENDCHAR
STARTCHAR 01CD
ENCODING 461
SWIDTH 700 0
DWIDTH 35 0
BBX 33 46 0 0
BITMAP
0000700380
0000380700
00003C0F00
00001C3E00
00001E7C00
00000FF800
00000FF000
000007E000
000007C000
0000000000
0000000000
0000000000
0000010000
0000030000
0000070000
0000078000
00000F8000
00001F8000
00001F8000
00003F8000
00003F8000
00007FC000
0000DFC000
0000DFC000
00019FC000
00039FC000
00031FC000
00060FE000
000E0FE000
000C0FE000
001C0FE000
00380FE000
00300FE000
007007F000
00FFFFF000
00FFFFF000
01C007F000
018007F000
038007F000
070007F800
070003F800
0E0003F800
1E0003F800
3E0007FC00
FF801FFF00
FFC03FFF80
ENDCHAR
STARTCHAR 01CE
ENCODING 462
SWIDTH 500 0
DWIDTH 25 0
BBX 24 35 1 -1
BITMAP
00E007
00701E
00783C
003C78
003FF0
001FE0
001FC0
000F80
000F00
000000
000000
000000
003F3E
00FFBE
01F0FE
03E0FC
07E0FC
0FC0FC
1F80F8
1F80F8
3F01F8
3F01F0
7E01F0
7E01F0
FE03F0
FE03E0
FC07E0
FC07E0
FC0FE3
FC1FE6
FE37EC
7FE7F8
7FC7F0
3F83E0
000080
ENDCHAR
STARTCHAR 01CF
ENCODING 463
SWIDTH 380 0
DWIDTH 19 0
BBX 25 44 0 0
BITMAP
00700380
00380F00
003C1E00
001E7C00
001FF800
000FF000
000FE000
0007C000
00000000
00000000
00000000
01FFFC00
00FFF800
001FE000
001FC000
003FC000
003F8000
003F8000
003F8000
007F8000
007F0000
007F0000
007F0000
00FF0000
00FE0000
00FE0000
01FE0000
01FC0000
01FC0000
01FC0000
03FC0000
03F80000
03F80000
03F80000
07F80000
07F00000
07F00000
0FF00000
0FE00000
0FE00000
0FE00000
1FE00000
7FF80000
FFFE0000
ENDCHAR
STARTCHAR 01D0
ENCODING 464
SWIDTH 300 0
DWIDTH 15 0
BBX 18 34 2 0
BITMAP
3801C0
3C0780
1C0F00
1E1E00
0F7C00
0FF800
07F000
07E000
03C000
000000
000000
000000
03E000
7FE000
3FC000
0FC000
0FC000
0F8000
1F8000
1F8000
1F8000
1F0000
3F0000
3F0000
3F0000
3E0000
7E0000
7E2000
7C2000
FC6000
FCC000
FF8000
FF0000
7E0000
ENDCHAR
STARTCHAR 01D1
ENCODING 465
SWIDTH 680 0
DWIDTH 34 0
BBX 33 45 2 -1
BITMAP
0001C01E00
0000E03C00
0000F07800
000079F000
00007FE000
00003FC000
00003F8000
00001F0000
0000000000
0000000000
00007F8000
0003FFE000
000FC0F800
001F007C00
007E007E00
00FC003F00
01FC003F00
03F8003F80
03F0003F80
07F0003F80
0FE0003F80
0FE0003F80
1FC0003F80
3FC0007F80
3FC0007F80
3F80007F80
7F80007F80
7F8000FF00
7F8000FF00
FF0000FF00
FF0001FE00
FF0001FE00
FF0001FC00
FF0003FC00
FE0003F800
FE0007F000
FE0007F000
7E000FE000
7E000FC000
3E001F8000
3F003F0000
1F007E0000
0F81F80000
03FFE00000
00FF000000
ENDCHAR
STARTCHAR 01D2
ENCODING 466
SWIDTH 480 0
DWIDTH 24 0
BBX 24 34 1 0
BITMAP
00E007
00700E
00783C
003C78
003FF0
001FE0
001FC0
000FC0
000F80
000000
000000
000000
003FE0
00F0F8
01E07C
07C07C
0FC07E
0F807E
1F807E
3F00FE
3F00FE
7E00FE
7E00FE
FE00FC
FE01FC
FC01F8
FC01F8
FC03F0
FC03F0
FC07E0
7C07C0
7C0F80
3E1E00
0FF800
ENDCHAR
STARTCHAR 01D3
ENCODING 467
SWIDTH 720 0
DWIDTH 36 0
BBX 34 45 5 -1
BITMAP
0007007800
000780E000
0003C3C000
0003E78000
0001FF0000
0001FF0000
0000FE0000
0000FC0000
0000000000
0000000000
0000000000
3FFFC0FFC0
1FFF007F80
07FC001E00
03F8000E00
07F8000C00
07F8001C00
07F0001800
07F0001800
0FF0001800
0FE0001000
0FE0003000
1FE0003000
1FE0003000
1FC0006000
1FC0006000
3FC0006000
3F80004000
3F8000C000
7F8000C000
7F8000C000
7F00018000
7F00018000
FF00018000
FE00030000
FE00030000
FE00030000
FE00060000
FE000E0000
FE000C0000
7F00180000
3F80780000
1FFFE00000
0FFFC00000
01FE000000
ENDCHAR
STARTCHAR 01D4
ENCODING 468
SWIDTH 540 0
DWIDTH 27 0
BBX 24 34 2 0
BITMAP
006007
00700F
00381E
003C7C
001EF8
001FF0
000FE0
000FC0
000780
000000
000000
002000
07E07E
7FC07E
3FC07C
0FC0FC
0F80FC
1F80FC
1F81F8
1F81F8
1F01F8
3F03F0
3F03F0
3E07F0
7E07F0
7E0FE0
7E0FE0
7C1FE0
FC37C2
FC6FC4
FCCFCC
FF8FF8
FF8FF0
7E07E0
ENDCHAR
STARTCHAR 01D5
ENCODING 469
SWIDTH 720 0
DWIDTH 36 0
BBX 34 45 3 -1
BITMAP
0001FFFE00
0003FFFE00
0003FFFC00
0003FFFC00
0000000000
0000000000
0000000000
0007C1F000
000FC3F000
000FC3F000
000FC3F000
000FC3F000
000781E000
0000000000
0000000000
0000000000
3FFFC0FFC0
07FE003F00
03F8000E00
07F8000C00
07F0000C00
07F0001C00
0FF0001800
0FF0001800
0FE0003800
0FE0003000
1FE0003000
1FC0007000
1FC0006000
3FC0006000
3F8000E000
3F8000C000
7F8000C000
7F0001C000
7F00018000
FF00018000
FE00030000
FE00030000
FE00070000
FE00060000
7F000C0000
7F80380000
3FF0F00000
0FFFE00000
01FF000000
ENDCHAR
STARTCHAR 01D6
ENCODING 470
SWIDTH 540 0
DWIDTH 27 0
BBX 25 39 2 0
BITMAP
007FFF80
00FFFF80
00FFFF80
00FFFF00
00000000
00000000
00000000
00000000
00F01E00
01F83F00
01F83F00
01F83F00
01F83F00
00F01E00
00000000
00000000
00200000
07E07E00
7FC07E00
3FC07C00
0FC0FC00
0F80FC00
1F80FC00
1F81F800
1F81F800
1F01F800
3F03F000
3F03F000
3E07F000
7E07F000
7E0FE000
7E0FE000
7C1FE000
FC37C200
FC6FC400
FCCFCC00
FF8FF800
FF8FF000
7E07E000
ENDCHAR
STARTCHAR 01D7
ENCODING 471
SWIDTH 720 0
DWIDTH 36 0
BBX 34 46 3 -1
BITMAP
0000001000
0000003C00
0000007C00
000000FC00
000001F800
000003F000
000007C000
00000F0000
00000C0000
0000180000
0007C1F000
000FC3F000
000FC3F000
000FC3F000
000FC3F000
000781E000
0000000000
3FFFC0FFC0
07FE003F00
03F8000E00
07F8000C00
07F0000C00
07F0001C00
0FF0001800
0FF0001800
0FE0003800
0FE0003000
1FE0003000
1FC0007000
1FC0006000
3FC0006000
3F8000E000
3F8000C000
7F8000C000
7F0001C000
7F00018000
FF00018000
FE00030000
FE00030000
FE00070000
FE00060000
7F000C0000
7F80380000
3FF0F00000
0FFFE00000
01FF000000
ENDCHAR
STARTCHAR 01D8
ENCODING 472
SWIDTH 540 0
DWIDTH 27 0
BBX 24 43 2 0
BITMAP
000004
00000F
00003F
00003F
00007E
0000F8
0001F0
0003C0
000700
000000
000000
000000
00F01E
01F83F
01F83F
01F83F
01F83F
00F01E
000000
000000
002000
07E07E
7FC07E
3FC07C
0FC0FC
0F80FC
1F80FC
1F81F8
1F81F8
1F01F8
3F03F0
3F03F0
3E07F0
7E07F0
7E0FE0
7E0FE0
7C1FE0
FC37C2
FC6FC4
FCCFCC
FF8FF8
FF8FF0
7E07E0
ENDCHAR
STARTCHAR 01D9
ENCODING 473
SWIDTH 720 0
DWIDTH 36 0
BBX 34 46 3 -1
BITMAP
0003801C00
0001C07800
0001E0F000
0000F1E000
0000FFC000
00007F8000
00007F0000
00003E0000
00003C0000
0007C1F000
000FC3F000
000FC3F000
000FC3F000
000FC3F000
000781E000
0000000000
0000000000
3FFFC0FFC0
07FE003F00
03F8000E00
07F8000C00
07F0000C00
07F0001C00
0FF0001800
0FF0001800
0FE0003800
0FE0003000
1FE0003000
1FC0007000
1FC0006000
3FC0006000
3F8000E000
3F8000C000
7F8000C000
7F0001C000
7F00018000
FF00018000
FE00030000
FE00030000
FE00070000
FE00060000
7F000C0000
7F80380000
3FF0F00000
0FFFE00000
01FF000000
ENDCHAR
STARTCHAR 01DA
ENCODING 474
SWIDTH 540 0
DWIDTH 27 0
BBX 25 42 2 0
BITMAP
00380380
003C0F00
001C1E00
001E3C00
000FF800
000FF000
0007F000
0007E000
00000000
00000000
00000000
00F01E00
01F83F00
01F83F00
01F83F00
01F83F00
00F01E00
00000000
00000000
00200000
07E07E00
7FC07E00
3FC07C00
0FC0FC00
0F80FC00
1F80FC00
1F81F800
1F81F800
1F01F800
3F03F000
3F03F000
3E07F000
7E07F000
7E0FE000
7E0FE000
7C1FE000
FC37C200
FC6FC400
FCCFCC00
FF8FF800
FF8FF000
7E07E000
ENDCHAR
STARTCHAR 01DB
ENCODING 475
SWIDTH 720 0
DWIDTH 36 0
BBX 34 46 3 -1
BITMAP
000F000000
000F800000
000F800000
000FC00000
0003E00000
0001E00000
0000F00000
0000380000
00001C0000
0007C1F000
000FC3F000
000FC3F000
000FC3F000
000FC3F000
000781E000
0000000000
0000000000
3FFFC0FFC0
07FE003F00
03F8000E00
07F8000C00
07F0000C00
07F0001C00
0FF0001800
0FF0001800
0FE0003800
0FE0003000
1FE0003000
1FC0007000
1FC0006000
3FC0006000
3F8000E000
3F8000C000
7F8000C000
7F0001C000
7F00018000
FF00018000
FE00030000
FE00030000
FE00070000
FE00060000
7F000C0000
7F80380000
3FF0F00000
0FFFE00000
01FF000000
ENDCHAR
STARTCHAR 01DC
ENCODING 476
SWIDTH 540 0
DWIDTH 27 0
BBX 24 43 2 0
BITMAP
006000
00F000
00F800
00FC00
007E00
001F00
000F00
000380
0001C0
000000
000000
000000
00F01E
01F83F
01F83F
01F83F
01F83F
00F01E
000000
000000
002000
07E07E
7FC07E
3FC07C
0FC0FC
0F80FC
1F80FC
1F81F8
1F81F8
1F01F8
3F03F0
3F03F0
3E07F0
7E07F0
7E0FE0
7E0FE0
7C1FE0
FC37C2
FC6FC4
FCCFCC
FF8FF8
FF8FF0
7E07E0
ENDCHAR
STARTCHAR 01DD
ENCODING 477
SWIDTH 420 0
DWIDTH 21 0
BBX 20 23 1 0
BITMAP
007E00
01FF80
03FFC0
071FE0
0E07E0
1C07E0
1807F0
0007F0
0007F0
0007E0
007FE0
03EFE0
0F8FE0
1F0FC0
3E1FC0
7C1F80
781F80
F83F00
F83E00
F87C00
F8F800
7FE000
1F8000
ENDCHAR
STARTCHAR 01DE
ENCODING 478
SWIDTH 700 0
DWIDTH 35 0
BBX 34 46 0 0
BITMAP
00007FFFC0
00007FFF80
00007FFF80
00007FFF80
0000000000
0000200400
0000F81F00
0000FC1F80
0001FC3F80
0001FC3F80
0000F81F00
0000700E00
0000010000
0000030000
0000070000
0000078000
00000F8000
00001F8000
00001F8000
00003F8000
00003F8000
00007FC000
0000DFC000
0000DFC000
00019FC000
00039FC000
00031FC000
00060FE000
000E0FE000
000C0FE000
001C0FE000
00380FE000
00300FE000
007007F000
00FFFFF000
00FFFFF000
01C007F000
018007F000
038007F000
070007F800
070003F800
0E0003F800
1E0003F800
3E0007FC00
FF801FFF00
FFC03FFF80
ENDCHAR
STARTCHAR 01DF
ENCODING 479
SWIDTH 500 0
DWIDTH 25 0
BBX 25 40 1 -1
BITMAP
007FFF80
00FFFF80
00FFFF00
00FFFF00
00000000
00000000
00000000
00000000
01F03E00
03F07E00
03F87F00
03F87F00
01F03E00
00E01C00
00000000
00000000
00000000
003F3E00
00FFBE00
01F0FE00
03E0FC00
07E0FC00
0FC0FC00
1F80F800
1F80F800
3F01F800
3F01F000
7E01F000
7E01F000
FE03F000
FE03E000
FC07E000
FC07E000
FC0FE300
FC1FE600
FE37EC00
7FE7F800
7FC7F000
3F83E000
00008000
ENDCHAR
STARTCHAR 01E0
ENCODING 480
SWIDTH 660 0
DWIDTH 33 0
BBX 34 46 -3 0
BITMAP
00003FFFC0
00003FFFC0
00003FFFC0
00007FFFC0
0000000000
0000000000
0000000000
0000000000
000003E000
000003F000
000007F000
000007E000
000007E000
0000038000
0000000000
0000000000
0000000000
0000030000
0000030000
0000070000
00000F0000
00001F8000
00001F8000
00003F8000
00007F8000
0000DF8000
0000DFC000
00019FC000
00031FC000
00061FC000
00061FC000
000C0FE000
00180FE000
00300FE000
00300FE000
007FFFE000
00FFFFF000
01C007F000
018007F000
030007F000
070007F000
0E0007F800
0E0003F800
1C0007F800
7E000FFC00
FFC03FFF80
ENDCHAR
STARTCHAR 01E1
ENCODING 481
SWIDTH 500 0
DWIDTH 25 0
BBX 26 39 1 -1
BITMAP
007FFFC0
007FFF80
007FFF80
007FFF80
00000000
00000000
00000000
0007C000
0007C000
000FE000
000FE000
0007C000
00038000
00000000
00000000
00000000
003F3E00
00FFBE00
01F0FE00
03E0FC00
07E0FC00
0FC0FC00
1F80F800
1F80F800
3F01F800
3F01F000
7E01F000
7E01F000
FE03F000
FE03E000
FC07E000
FC07E000
FC0FE300
FC1FE600
FE37EC00
7FE7F800
7FC7F000
3F83E000
00008000
ENDCHAR
STARTCHAR 01E2
ENCODING 482
SWIDTH 920 0
DWIDTH 46 0
BBX 49 41 0 0
BITMAP
0000003FFFE000
0000003FFFC000
0000003FFFC000
0000003FFFC000
00000000000000
00000000000000
00000000000000
00000000000000
00000FFFFFFF80
000001FFFFFF80
000000EFE03F80
000000DFE00F00
0000019FC00700
0000031FC00300
0000073FC00300
0000063FC00300
00000C3F800200
0000183F804000
0000387F80C000
0000707F80C000
0000607F018000
0000C0FF038000
000180FFFF8000
000380FFFF0000
000700FE1F0000
000601FE070000
000FFFFE070000
001FFFFC060000
003801FC060000
007003FC060000
006003FC040000
00E003F8000C00
01C007F8000C00
038007F8001800
030007F8003800
070007F0007800
0E000FF000F000
1E000FF001F000
3E001FF007F000
7F807FFFFFE000
FFC07FFFFFE000
ENDCHAR
STARTCHAR 01E3
ENCODING 483
SWIDTH 700 0
DWIDTH 35 0
BBX 33 29 1 0
BITMAP
000FFFF800
000FFFF000
000FFFF000
000FFFF000
0000000000
0000000000
0000000000
003F3E7F00
00FFBECF80
01F0BF8780
03E07F0780
07E07E0780
0FC07E0780
1F80FC0F80
1F80FC0F00
3F00FC1E00
3F00F87C00
7E01F8F800
7E01FFC000
7E01FE0000
FE03F00000
FC03F00000
FC07F00400
FC0FF00C00
FE19F01C00
FE39F83800
7FF1FFF000
7FE0FFE000
3F807FC000
ENDCHAR
STARTCHAR 01E4
ENCODING 484
SWIDTH 720 0
DWIDTH 36 0
BBX 34 35 2 -1
BITMAP
00007FC080
0007FFFF80
001FE07F80
003F801F80
00FE000F00
01FC000F00
03FC000F00
07F8000600
0FF0000600
0FF0000600
1FE0000600
3FE0000000
3FC0000000
3FC0000000
7FC0000000
7F80000000
7F80000000
FF80000000
FF800FFFC0
FF0003FF80
FF0000FE00
FF0000FE00
FF0001FC00
FF0001FC00
FF001FFFC0
FF001FFFC0
7F0003F800
7F8003F800
3F8003F800
3F8003F800
1FC007F000
0FE007F000
03F80FE000
00FFFF8000
001FF80000
ENDCHAR
STARTCHAR 01E5
ENCODING 485
SWIDTH 500 0
DWIDTH 25 0
BBX 30 32 -3 -9
BITMAP
0007FE00
001F8FFC
003F07FC
007E07FC
00FC07E0
00FC07E0
01F807E0
01F80FE0
01F80FC0
01F80FC0
01F81F80
00F83F80
00787E00
003FFC00
003FE000
00E00000
01E00000
03F80000
03FF0000
03FFF000
01FFFC00
007FFF00
03CFFF00
0F01FF80
1F003F80
FFFFFFE0
FFFFFFE0
1E001F00
1F001E00
0F807C00
07FFF000
00FF8000
ENDCHAR
STARTCHAR 01E6
ENCODING 486
SWIDTH 700 0
DWIDTH 35 0
BBX 34 45 2 -1
BITMAP
0000700700
0000701E00
0000383C00
00003C7800
00001FF000
00001FE000
00000FC000
00000FC000
0000000000
0000000000
00007FC080
0007FFFF80
001FE03F80
003F801F80
00FF000F00
01FE000F00
03FC000F00
07F8000600
07F0000600
0FF0000600
1FE0000600
1FE0000000
3FC0000000
3FC0000000
7FC0000000
7F80000000
7F80000000
FF80000000
FF800FFFC0
FF0003FF80
FF0000FE00
FF0000FE00
FF0001FE00
FF0001FC00
FF0001FC00
FF0001FC00
7F0003F800
7F0003F800
3F8003F800
3F8003F800
1FC007F000
0FE007F000
03F00FE000
01FFFF8000
003FF00000
ENDCHAR
STARTCHAR 01E7
ENCODING 487
SWIDTH 500 0
DWIDTH 25 0
BBX 27 44 -1 -10
BITMAP
001C00E0
001E03C0
000F0780
000F0F00
0007BE00
0007FC00
0003F800
0003F000
0001E000
00000000
00000000
00000000
003FF000
00FC7FE0
01F83FE0
03F03FE0
07E03F00
07E03F00
0FC03F00
0FC07F00
0FC07E00
0FC07E00
0FC0FC00
07C1FC00
07C3F800
01FFE000
01FF0000
07000000
0F000000
1F800000
1FF00000
1FFF0000
0FFFE000
07FFF000
0FFFF800
3C1FF800
7803F800
F801F800
F000F800
F000F800
F801F000
7C03E000
3FFF8000
07FC0000
ENDCHAR
STARTCHAR 01E8
ENCODING 488
SWIDTH 660 0
DWIDTH 33 0
BBX 36 44 0 0
BITMAP
0000700780
0000780E00
00003C3C00
00003E7800
00001FF000
00001FF000
00000FE000
00000FC000
0000000000
0000000000
0000000000
01FFFC3FF0
00FFF81FE0
001FE00F80
001FC00F00
003FC01E00
003F803800
003F807000
003F80E000
007F81C000
007F038000
007F070000
007F0E0000
00FF1C0000
00FE780000
00FEF80000
01FFFC0000
01FFFC0000
01FDFE0000
01FCFE0000
03FCFF0000
03F87F0000
03F87F0000
03F83F8000
07F83F8000
07F01FC000
07F01FC000
0FF01FE000
0FF00FE000
0FE00FF000
1FE007F000
1FE007F800
7FF81FFE00
FFFC3FFF00
ENDCHAR
STARTCHAR 01E9
ENCODING 489
SWIDTH 500 0
DWIDTH 25 0
BBX 27 45 1 0
BITMAP
001C00E0
000E01C0
000F0780
00078F00
0007DE00
0003FE00
0003FC00
0001F800
0001F000
00000000
00060000
00FE0000
07FE0000
01FC0000
00FC0000
00FC0000
00FC0000
00F80000
01F80000
01F80000
01F80000
03F00000
03F00000
03F1FF80
03E0FF00
07E07C00
07E07000
07E0E000
07C1C000
0FC38000
0FC70000
0FDE0000
1FBF0000
1FFF0000
1FFF0000
1F9F0000
3F1F8000
3F1F8000
3F1F8000
3E0F8200
7E0FC600
7E0FCC00
7E07F800
FC07F800
FC03E000
ENDCHAR
STARTCHAR 01EA
ENCODING 490
SWIDTH 660 0
DWIDTH 33 0
BBX 33 44 1 -10
BITMAP
00007F8000
0003FFE000
000FC0F800
001F007C00
007E007E00
00FC003F00
01FC003F00
03F8003F80
03F0003F80
07F0003F80
0FE0003F80
0FE0003F80
1FE0003F80
3FC0007F80
3FC0007F80
3FC0007F80
7F80007F80
7F8000FF00
7F8000FF00
FF0000FF00
FF0001FE00
FF0001FE00
FF0001FC00
FF0003FC00
FE0003F800
FE0007F800
FE0007F000
7E000FE000
7E000FC000
3E001F8000
3F003F0000
1F807E0000
0FC0F80000
03FFE00000
007F800000
001C000000
0018000000
0038000000
0078000000
007C000000
007E300000
007FF00000
003FE00000
001F800000
ENDCHAR
STARTCHAR 01EB
ENCODING 491
SWIDTH 480 0
DWIDTH 24 0
BBX 23 32 1 -9
BITMAP
003FE0
00F0F8
01E078
07C07C
0FC07E
0F807E
1F807E
3F00FE
3F00FE
7E00FE
7E00FC
FE01FC
FE01FC
FC01F8
FC01F8
FC03F0
FC03E0
FC07E0
7C0FC0
7C0F00
3E3E00
1FF800
018000
038000
070000
070000
0F0000
0F8000
0FFF00
0FFE00
07FC00
01F000
ENDCHAR
STARTCHAR 01EC
ENCODING 492
SWIDTH 660 0
DWIDTH 33 0
BBX 33 51 1 -10
BITMAP
0001FFFE00
0001FFFE00
0003FFFE00
0003FFFC00
0000000000
0000000000
0000000000
00007F8000
0003FFE000
000FC0F800
001F007C00
007E007E00
00FC003F00
01FC003F00
03F8003F80
03F0003F80
07F0003F80
0FE0003F80
0FE0003F80
1FE0003F80
3FC0007F80
3FC0007F80
3FC0007F80
7F80007F80
7F8000FF00
7F8000FF00
FF0000FF00
FF0001FE00
FF0001FE00
FF0001FC00
FF0003FC00
FE0003F800
FE0007F800
FE0007F000
7E000FE000
7E000FC000
3E001F8000
3F003F0000
1F807E0000
0FC0F80000
03FFE00000
007F800000
001C000000
0018000000
0038000000
0078000000
007C000000
007E300000
007FF00000
003FE00000
001F800000
ENDCHAR
STARTCHAR 01ED
ENCODING 493
SWIDTH 480 0
DWIDTH 24 0
BBX 24 41 1 -10
BITMAP
01FFFF
01FFFF
01FFFE
01FFFE
000000
000000
000000
000000
000000
003FE0
00F0F8
01E078
07C07C
0FC07E
0F807E
1F807E
3F00FE
3F00FE
7E00FE
7E00FC
FE01FC
FE01FC
FC01F8
FC01F8
FC03F0
FC03E0
FC07E0
7C0FC0
7C0F00
3E3E00
1FF800
018000
038000
070000
070000
0F0000
0F8000
0FFF00
0FFE00
07FC00
01F000
ENDCHAR
STARTCHAR 01EE
ENCODING 494
SWIDTH 600 0
DWIDTH 30 0
BBX 32 46 1 -1
BITMAP
0000C00E
0000E01C
0000703C
000078F8
00003DF0
00003FE0
00001FC0
00001F80
00000F00
00000000
00000000
00000000
003FFFFF
007FFFFF
007F00FE
007C01FC
00F803F8
00E007F8
00C00FF0
01C01FE0
01801FC0
00003F80
00007F00
0000FE00
0001FE00
0003FC00
0003F800
00007F00
00003F80
00001FC0
00001FC0
00001FE0
00001FE0
00001FE0
3C001FE0
7E001FE0
FE003FE0
FE003FE0
FE003FC0
FC007FC0
7800FF80
7800FF00
3C03FE00
1E0FF800
07FFE000
00FF0000
ENDCHAR
STARTCHAR 01EF
ENCODING 495
SWIDTH 480 0
DWIDTH 24 0
BBX 27 45 -4 -11
BITMAP
001C00E0
001E03C0
000F0780
00078F00
0007BE00
0003FC00
0003F800
0001F000
0001E000
00000000
00000000
00000000
01FFFFC0
01FFFF80
03FFFF00
03FFFE00
03FFF800
07007000
0600C000
00018000
00074000
000FF800
001FFC00
007FFE00
00FFFF00
0081FF00
00007F00
00007F00
00003F00
00003F00
00003F00
00003F00
00003F00
00003E00
00007E00
00007E00
00007C00
3000F800
7C00F800
FC01F000
FC03E000
FC07C000
781F0000
3FFC0000
07F00000
ENDCHAR
STARTCHAR 01F0
ENCODING 496
SWIDTH 340 0
DWIDTH 17 0
BBX 22 44 -4 -10
BITMAP
01801C
01C03C
00E078
00F1F0
007BE0
007FC0
003F80
003F00
001E00
000000
000000
000000
0007F8
001FF8
0003F8
0003F8
0003F0
0003F0
0003F0
0003F0
0007E0
0007E0
0007E0
0007E0
000FC0
000FC0
000FC0
000FC0
001F80
001F80
001F80
001F00
003F00
003F00
003F00
007E00
007E00
007C00
607C00
F0F800
F0F800
F1F000
7FC000
3F0000
ENDCHAR
STARTCHAR 01F1
ENCODING 497
SWIDTH 1340 0
DWIDTH 67 0
BBX 67 33 0 0
BITMAP
01FFFFE0001FFFFFE0
00FFFFFC001FFFFFE0
001FC07F001FC03FC0
001FC01F803F007F80
003FC01FC03C007F80
003F800FE03800FF00
003F800FE07001FE00
003F8007F06003FE00
007F8007F04003FC00
007F0007F80007F800
007F0007F8000FF000
00FF0007F8001FF000
00FF0007F8001FE000
00FE0007F8003FC000
00FE0007F8007F8000
01FE0007F8007F8000
01FC000FF800FF0000
01FC000FF801FE0000
01FC000FF003FE0000
03FC000FF003FC0000
03F8001FF007F80000
03F8001FE00FF00000
03F8003FE01FF00000
07F8003FC01FE00180
07F0007F803FC00180
07F0007F807F800300
0FF000FF00FF800700
0FF001FE00FF000F00
0FE003F801FE001F00
1FE007F003FE007E00
1FE01FC003FC01FE00
7FFFFF0007FFFFFE00
FFFFF00007FFFFFC00
ENDCHAR
STARTCHAR 01F2
ENCODING 498
SWIDTH 1120 0
DWIDTH 56 0
BBX 57 37 0 -4
BITMAP
01FFFFE000000000
00FFFFFC00000000
001FC07F00000000
001FC01F80000000
003FC01FC0000000
003F800FE0000000
003F800FE0000000
003F8007F0000000
007F8007F0000000
007F0007F8000000
007F0007F8000000
00FF0007F83FFF80
00FF0007F87FFF00
00FE0007F87FFF00
00FE0007F87FFE00
01FE0007F87FFC00
01FC000FF8C03800
01FC000FF8C07000
01FC000FF0806000
03FC000FF000E000
03F8001FF001C000
03F8001FE0038000
03F8003FE0070000
07F8003FC0060000
07F0007F800C0000
07F0007F80180000
0FF000FF00380000
0FF001FE00700000
0FE003F800700000
1FE007F000FC0000
1FE01FC001FE0000
7FFFFF0003FE1E00
FFFFF00003FF1F00
00000000063F1F00
00000000000F9E00
000000000003DE00
000000000000F800
ENDCHAR
STARTCHAR 01F3
ENCODING 499
SWIDTH 880 0
DWIDTH 44 0
BBX 45 39 1 -4
BITMAP
000000200000
000007E00000
0000FFE00000
00003FC00000
00000FC00000
00001FC00000
00001F800000
00001F800000
00001F800000
00003F800000
00003F000000
00003F000000
00003F000000
003FFF07FFF8
00FFFE07FFF0
01F0FE0FFFE0
03E0FE0FFFC0
07E0FC0FFF80
0FC0FC080300
1F80FC180700
1F81FC100E00
3F01F8001C00
3F01F8003800
7E01F8003000
7E03F0006000
7E03F000C000
FE07F001C000
FC07E0038000
FC0FE2030000
FC0FE2060000
FC1FE60F0000
FE37EC1F8000
7FE7F83FC000
7FC7F03FE1C0
3F83E07FE3E0
040000E3F3E0
00000001F1E0
0000000079C0
000000001F00
ENDCHAR
STARTCHAR 01F4
ENCODING 500
SWIDTH 700 0
DWIDTH 35 0
BBX 34 46 2 -1
BITMAP
0000003000
000000F800
000001F800
000003F800
000003F000
000007C000
00000F0000
00001E0000
0000380000
0000000000
0000000000
00007FC080
0007FFFF80
001FE03F80
003F801F80
00FF000F00
01FE000F00
03FC000F00
07F8000600
07F0000600
0FF0000600
1FE0000600
1FE0000000
3FC0000000
3FC0000000
7FC0000000
7F80000000
7F80000000
FF80000000
FF800FFFC0
FF0003FF80
FF0000FE00
FF0000FE00
FF0001FE00
FF0001FC00
FF0001FC00
FF0001FC00
7F0003F800
7F0003F800
3F8003F800
3F8003F800
1FC007F000
0FE007F000
03F00FE000
01FFFF8000
003FF00000
ENDCHAR
STARTCHAR 01F5
ENCODING 501
SWIDTH 500 0
DWIDTH 25 0
BBX 27 44 -1 -10
BITMAP
00001E00
00003E00
00007E00
0000FE00
0001F800
0001F000
0003C000
00070000
000C0000
00000000
00000000
00000000
003FF000
00FC7FE0
01F83FE0
03F03FE0
07E03F00
07E03F00
0FC03F00
0FC07F00
0FC07E00
0FC07E00
0FC0FC00
07C1FC00
07C3F800
01FFE000
01FF0000
07000000
0F000000
1F800000
1FF00000
1FFF0000
0FFFE000
07FFF000
0FFFF800
3C1FF800
7803F800
F801F800
F000F800
F000F800
F801F000
7C03E000
3FFF8000
07FC0000
ENDCHAR
STARTCHAR 01F6
ENCODING 502
SWIDTH 1000 0
DWIDTH 50 0
BBX 50 33 0 0
BITMAP
01FFFE1FFF8000
00FFF81FFF8000
001FE003FE0000
001FC003FC0000
003FC003F80000
003FC003F80000
003F8003F80000
003F8007F80000
007F8007F00000
007F0007F000C0
007F000FF007C0
007F000FF03FC0
00FF000FE0FFC0
00FE000FE0FFC0
00FE001FE01FC0
01FFFFFFC01F80
01FFFFFFC01F80
01FC001FC03F80
01FC003FC03F80
03FC003F803F80
03F8003F803F00
03F8003F803F00
03F8007F007F00
07F8007F007F00
07F0007F007E00
07F0007F00FE00
0FF0007F00FC00
0FF0007F00FC00
0FE0007F01F800
1FE0003F03F000
1FE0003F87E000
7FFC001FFFC000
FFFE0007FF0000
ENDCHAR
STARTCHAR 01F7
ENCODING 503
SWIDTH 600 0
DWIDTH 30 0
BBX 32 34 1 0
BITMAP
000387F0
007FFFFC
03FFFFFE
00FFC1FF
003F00FF
007F00FF
007F00FF
007E00FF
007E01FE
007E01FE
00FE03FC
00FE03FC
00FC07F8
00FC07F0
01FC0FE0
01FC0FE0
01FC1FC0
01F83F80
01F83F00
03F87C00
03F8F800
03F9F000
03F3E000
03F7C000
07FF0000
07FE0000
07FC0000
07F00000
07F00000
0FF00000
0FF00000
0FF00000
3FFC0000
FFFF0000
ENDCHAR
STARTCHAR 01F8
ENCODING 504
SWIDTH 700 0
DWIDTH 35 0
BBX 39 46 0 -1
BITMAP
0000600000
0000F80000
0000F80000
0000FC0000
00007E0000
00001F0000
00000F0000
0000038000
000001C000
0000000000
0000000000
0000000000
01FF800FFE
00FF8007FC
003FC000F0
001FC000E0
001FE000E0
003FE000E0
003FF000C0
0037F000C0
0027F801C0
0067F80180
0063FC0180
0043FC0180
00C1FE0380
00C1FE0300
00C0FF0300
0080FF0300
01807F0600
01807F8600
01003F8600
03003FCE00
03001FCC00
03001FEC00
06000FEC00
06000FF800
060007F800
060007F800
0C0003F800
0C0003F000
0C0003F000
1C0001F000
1E0001E000
7F8000E000
FFC000E000
0000006000
ENDCHAR
STARTCHAR 01F9
ENCODING 505
SWIDTH 520 0
DWIDTH 26 0
BBX 25 34 0 0
BITMAP
001E0000
001F0000
001F8000
000FC000
0007C000
0003E000
0000F000
00007800
00001800
00000000
00000000
00000000
07F07E00
1FF1FF00
07F3FF00
07E33F00
07E43F00
07E83F00
0FD83F00
0FD07E00
0FE07E00
0FE07E00
1FC0FC00
1FC0FC00
1F80FC00
1F81F800
3F81F800
3F01F800
3F03F180
7F03F100
7E03F200
7E03FE00
7E03FC00
FC01F000
ENDCHAR
STARTCHAR 01FA
ENCODING 506
SWIDTH 660 0
DWIDTH 33 0
BBX 35 45 -4 0
BITMAP
00000001C0
00000003C0
00000007E0
0000000FC0
0000001F80
0000003E00
0000007800
000000F000
000001C000
0000000000
000001F800
000003FC00
0000071C00
00000E0C00
00000C0C00
00000C1C00
00000F7800
000007F000
000003E000
0000000000
0000018000
0000038000
0000078000
00000FC000
00001FC000
00003FC000
00003FC000
00006FC000
0000CFE000
00018FE000
00030FE000
00070FE000
000E07F000
001C07F000
001807F000
003007F000
007FFFF000
00E007F800
01C003F800
038003F800
070003F800
070003FC00
0E0003FC00
3E0007FE00
FFC03FFFC0
ENDCHAR
STARTCHAR 01FB
ENCODING 507
SWIDTH 500 0
DWIDTH 25 0
BBX 25 46 1 -1
BITMAP
00000780
00000F80
00001F80
00003F80
00007F00
00007C00
0000F000
0001C000
00038000
00000000
00000000
0003C000
000FE000
001FF000
001C7000
00387000
00387000
003CE000
001FC000
001F8000
00000000
00000000
00000000
003F3E00
00FFBE00
01F0FE00
03E0FC00
07E0FC00
0FC0FC00
1F80F800
1F80F800
3F01F800
3F01F000
7E01F000
7E01F000
FE03F000
FE03E000
FC07E000
FC07E000
FC0FE300
FC1FE600
FE37EC00
7FE7F800
7FC7F000
3F83E000
00008000
ENDCHAR
STARTCHAR 01FC
ENCODING 508
SWIDTH 920 0
DWIDTH 46 0
BBX 49 45 0 0
BITMAP
00000000040000
000000001E0000
000000003F0000
000000007F0000
00000000FE0000
00000001F80000
00000003E00000
00000007800000
00000007000000
00000008000000
00000000000000
00000000000000
00000FFFFFFF80
000001FFFFFF80
000000EFE03F80
000000DFE00F00
0000019FC00700
0000031FC00300
0000073FC00300
0000063FC00300
00000C3F800200
0000183F804000
0000387F80C000
0000707F80C000
0000607F018000
0000C0FF038000
000180FFFF8000
000380FFFF0000
000700FE1F0000
000601FE070000
000FFFFE070000
001FFFFC060000
003801FC060000
007003FC060000
006003FC040000
00E003F8000C00
01C007F8000C00
038007F8001800
030007F8003800
070007F0007800
0E000FF000F000
1E000FF001F000
3E001FF007F000
7F807FFFFFE000
FFC07FFFFFE000
ENDCHAR
STARTCHAR 01FD
ENCODING 509
SWIDTH 700 0
DWIDTH 35 0
BBX 33 34 1 0
BITMAP
0000001E00
0000003E00
0000007E00
000000FC00
000001F800
000003E000
0000078000
00000F0000
00001C0000
0000000000
0000000000
0000000000
003F3E7F00
00FFBECF80
01F0BF8780
03E07F0780
07E07E0780
0FC07E0780
1F80FC0F80
1F80FC0F00
3F00FC1E00
3F00F87C00
7E01F8F800
7E01FFC000
7E01FE0000
FE03F00000
FC03F00000
FC07F00400
FC0FF00C00
FE19F01C00
FE39F83800
7FF1FFF000
7FE0FFE000
3F807FC000
ENDCHAR
STARTCHAR 01FE
ENCODING 510
SWIDTH 680 0
DWIDTH 34 0
BBX 33 51 2 -6
BITMAP
000000E000
000003E000
000007E000
00000FE000
00000FC000
00001F0000
00003C0000
0000700C00
0000E01800
0000003800
0000003000
00007FF000
0003FFE000
000FC0F800
001F01FC00
007E01FE00
00FC03BF00
01FC033F00
03F8073F80
07F0063F80
07F00C3F80
0FE01C3F80
1FE0183F80
1FE0387F80
3FC0307F80
3FC0607F80
7F80E07F80
7F80C07F80
7F81C0FF00
7F8180FF00
FF0380FF00
FF0701FE00
FF0601FE00
FF0E01FC00
FE0C03FC00
FE1C03F800
FE1807F000
FE3007F000
7E700FE000
7E600FC000
3EE01F8000
3FC03F0000
1F807E0000
0F81F80000
03FFE00000
07FF000000
0600000000
0E00000000
0C00000000
1800000000
3800000000
ENDCHAR
STARTCHAR 01FF
ENCODING 511
SWIDTH 480 0
DWIDTH 24 0
BBX 23 40 1 -6
BITMAP
0003C0
0007E0
000FE0
001FC0
001F00
003E00
007800
00E00C
018018
000010
000030
000060
003FE0
00F0F8
01E0FC
07C1FC
0FC37E
0F837E
1F867E
3F0E7E
3F0CFE
7F18FE
7E18FC
FE30FC
FE61FC
FE61F8
FCC1F8
FCC3F0
FD83E0
FF07E0
7F07C0
7E0F80
3E1E00
0FF800
180000
180000
300000
300000
600000
C00000
ENDCHAR
STARTCHAR 0200
ENCODING 512
SWIDTH 700 0
DWIDTH 35 0
BBX 33 44 0 0
BITMAP
003C3C0000
003C3E0000
003E3E0000
003E3E0000
001F1F0000
000F0F0000
0007870000
0003830000
0001C38000
0000000000
0000010000
0000030000
0000070000
0000078000
00000F8000
00001F8000
00001F8000
00003F8000
00003F8000
00007FC000
0000DFC000
0000DFC000
00019FC000
00039FC000
00031FC000
00060FE000
000E0FE000
000C0FE000
001C0FE000
00380FE000
00300FE000
007007F000
00FFFFF000
00FFFFF000
01C007F000
018007F000
038007F000
070007F800
070003F800
0E0003F800
1E0003F800
3E0007FC00
FF801FFF00
FFC03FFF80
ENDCHAR
STARTCHAR 0201
ENCODING 513
SWIDTH 500 0
DWIDTH 25 0
BBX 24 36 1 -1
BITMAP
0C0600
1E1F00
1F1F00
1F0F00
0F8F80
078780
03C380
01C3C0
00E1C0
000000
000000
000000
000000
003F3E
00FFBE
01F0FE
03E0FC
07E0FC
0FC0FC
1F80F8
1F80F8
3F01F8
3F01F0
7E01F0
7E01F0
FE03F0
FE03E0
FC07E0
FC07E0
FC0FE3
FC1FE6
FE37EC
7FE7F8
7FC7F0
3F83E0
000080
ENDCHAR
STARTCHAR 0202
ENCODING 514
SWIDTH 700 0
DWIDTH 35 0
BBX 33 45 0 0
BITMAP
0000008000
000007F800
00001FFC00
00003FFE00
00007C1E00
0000700E00
0000E00E00
0000C00600
0000000000
0000000000
0000000000
0000010000
0000030000
0000070000
0000078000
00000F8000
00001F8000
00001F8000
00003F8000
00003F8000
00007FC000
0000DFC000
0000DFC000
00019FC000
00039FC000
00031FC000
00060FE000
000E0FE000
000C0FE000
001C0FE000
00380FE000
00300FE000
007007F000
00FFFFF000
00FFFFF000
01C007F000
018007F000
038007F000
070007F800
070003F800
0E0003F800
1E0003F800
3E0007FC00
FF801FFF00
FFC03FFF80
ENDCHAR
STARTCHAR 0203
ENCODING 515
SWIDTH 500 0
DWIDTH 25 0
BBX 24 35 1 -1
BITMAP
000780
003FF0
007FF0
00FFF8
01E078
01C038
038018
030018
000000
000000
000000
000000
003F3E
00FFBE
01F0FE
03E0FC
07E0FC
0FC0FC
1F80F8
1F80F8
3F01F8
3F01F0
7E01F0
7E01F0
FE03F0
FE03E0
FC07E0
FC07E0
FC0FE3
FC1FE6
FE37EC
7FE7F8
7FC7F0
3F83E0
000080
ENDCHAR
STARTCHAR 0204
ENCODING 516
SWIDTH 620 0
DWIDTH 31 0
BBX 34 44 0 0
BITMAP
000F070000
000F8F8000
000F8F8000
000FC7C000
0007C3C000
0003E3C000
0000E1C000
000070E000
0000306000
0000000000
0000000000
01FFFFFFC0
00FFFFFFC0
003FE00FC0
001FC007C0
003FC00380
003FC00180
003F800180
003F800180
007F800180
007F004000
007F00C000
007F00C000
00FF01C000
00FE03C000
00FFFF8000
01FFFF8000
01FE1F8000
01FC078000
01FC030000
03FC030000
03F8030000
03F8030000
03F8030000
07F8000200
07F0000600
07F0000C00
0FF0001C00
0FF0003C00
0FE0007800
0FE001F800
1FE007F800
7FFFFFF000
FFFFFFF000
ENDCHAR
STARTCHAR 0205
ENCODING 517
SWIDTH 420 0
DWIDTH 21 0
BBX 20 35 1 0
BITMAP
060300
0F0780
0F8780
0F87C0
07C7C0
03C3C0
01E1C0
00E0E0
0070E0
000000
000000
000000
000000
003FC0
00F3E0
03E1E0
07C1F0
0FC1F0
0F81E0
1F83E0
3F03C0
3F0780
7F1F00
7E7E00
FFF000
FF8000
FE0000
FE0000
FE0180
FE0380
FE0700
7E0E00
7FFC00
3FF800
0FF000
ENDCHAR
STARTCHAR 0206
ENCODING 518
SWIDTH 620 0
DWIDTH 31 0
BBX 34 45 0 0
BITMAP
0000010000
00001FF000
00003FF800
0000FFF800
0000F07800
0001C03C00
0001801C00
0003801800
0000000000
0000000000
0000000000
0000000000
01FFFFFFC0
00FFFFFFC0
003FE00FC0
001FC007C0
003FC00380
003FC00180
003F800180
003F800180
007F800180
007F004000
007F00C000
007F00C000
00FF01C000
00FE03C000
00FFFF8000
01FFFF8000
01FE1F8000
01FC078000
01FC030000
03FC030000
03F8030000
03F8030000
03F8030000
07F8000200
07F0000600
07F0000C00
0FF0001C00
0FF0003C00
0FE0007800
0FE001F800
1FE007F800
7FFFFFF000
FFFFFFF000
ENDCHAR
STARTCHAR 0207
ENCODING 519
SWIDTH 420 0
DWIDTH 21 0
BBX 22 34 1 0
BITMAP
0007C0
001FF0
007FF8
00FFF8
00F03C
01C01C
01801C
03801C
000000
000000
000000
000000
003FC0
00F3E0
03E1E0
07C1F0
0FC1F0
0F81E0
1F83E0
3F03C0
3F0780
7F1F00
7E7E00
FFF000
FF8000
FE0000
FE0000
FE0180
FE0380
FE0700
7E0E00
7FFC00
3FF800
0FF000
ENDCHAR
STARTCHAR 0208
ENCODING 520
SWIDTH 380 0
DWIDTH 19 0
BBX 22 44 0 0
BITMAP
03C1C0
03E3E0
03E3E0
03F1F0
01F0F0
00F8F0
003870
001838
000C18
000000
000000
01FFFC
00FFF8
001FE0
001FC0
003FC0
003F80
003F80
003F80
007F80
007F00
007F00
007F00
00FF00
00FE00
00FE00
01FE00
01FC00
01FC00
01FC00
03FC00
03F800
03F800
03F800
07F800
07F000
07F000
0FF000
0FE000
0FE000
0FE000
1FE000
7FF800
FFFE00
ENDCHAR
STARTCHAR 0209
ENCODING 521
SWIDTH 300 0
DWIDTH 15 0
BBX 15 35 0 0
BITMAP
6060
F0F0
F0F8
F8F8
F878
7C7C
3C3C
0E1C
060E
0000
0000
0000
0000
00F8
1FF8
0FF0
03F0
03F0
03E0
07E0
07E0
07E0
07C0
0FC0
0FC0
0FC0
0F80
1F80
1F88
1F08
3F18
3F30
3FE0
3FC0
1F80
ENDCHAR
STARTCHAR 020A
ENCODING 522
SWIDTH 380 0
DWIDTH 19 0
BBX 22 45 0 0
BITMAP
000080
000FF8
003FFC
007FFC
00783C
00E01C
00C00C
01C00C
000000
000000
000000
000000
01FFFC
00FFF8
001FE0
001FC0
003FC0
003F80
003F80
003F80
007F80
007F00
007F00
007F00
00FF00
00FE00
00FE00
01FE00
01FC00
01FC00
01FC00
03FC00
03F800
03F800
03F800
07F800
07F000
07F000
0FF000
0FE000
0FE000
0FE000
1FE000
7FF800
FFFE00
ENDCHAR
STARTCHAR 020B
ENCODING 523
SWIDTH 300 0
DWIDTH 15 0
BBX 16 34 2 0
BITMAP
01F0
07FC
0FFE
1FFF
3C0F
7007
6007
6007
0000
0000
0000
0000
03E0
7FE0
3FC0
0FC0
0FC0
0F80
1F80
1F80
1F80
1F00
3F00
3F00
3F00
3E00
7E00
7E20
7C20
FC60
FCC0
FF80
FF00
7E00
ENDCHAR
STARTCHAR 020C
ENCODING 524
SWIDTH 680 0
DWIDTH 34 0
BBX 33 45 2 -1
BITMAP
001E1E0000
001E1F0000
001F1F0000
001F0F0000
000F8F8000
0007878000
0003C38000
0001C1C000
0000E0C000
0000000000
00007F8000
0003FFE000
000FC0F800
001F007C00
007E007E00
00FC003F00
01FC003F00
03F8003F80
03F0003F80
07F0003F80
0FE0003F80
0FE0003F80
1FC0003F80
3FC0007F80
3FC0007F80
3F80007F80
7F80007F80
7F8000FF00
7F8000FF00
FF0000FF00
FF0001FE00
FF0001FE00
FF0001FC00
FF0003FC00
FE0003F800
FE0007F000
FE0007F000
7E000FE000
7E000FC000
3E001F8000
3F003F0000
1F007E0000
0F81F80000
03FFE00000
00FF000000
ENDCHAR
STARTCHAR 020D
ENCODING 525
SWIDTH 480 0
DWIDTH 24 0
BBX 23 35 1 0
BITMAP
060300
0F8780
0F8780
0FC7C0
07C7C0
03E3C0
01E1E0
00F0E0
007060
000000
000000
000000
000000
003FE0
00F0F8
01E07C
07C07C
0FC07E
0F807E
1F807E
3F00FE
3F00FE
7E00FE
7E00FE
FE00FC
FE01FC
FC01F8
FC01F8
FC03F0
FC03F0
FC07E0
7C07C0
7C0F80
3E1E00
0FF800
ENDCHAR
STARTCHAR 020E
ENCODING 526
SWIDTH 680 0
DWIDTH 34 0
BBX 33 46 2 -1
BITMAP
0000020000
00003FE000
00007FF000
0000FFF800
0001F07800
0003C03800
0003803800
0003003800
0000000000
0000000000
0000000000
00007F8000
0003FFE000
000FC0F800
001F007C00
007E007E00
00FC003F00
01FC003F00
03F8003F80
03F0003F80
07F0003F80
0FE0003F80
0FE0003F80
1FC0003F80
3FC0007F80
3FC0007F80
3F80007F80
7F80007F80
7F8000FF00
7F8000FF00
FF0000FF00
FF0001FE00
FF0001FE00
FF0001FC00
FF0003FC00
FE0003F800
FE0007F000
FE0007F000
7E000FE000
7E000FC000
3E001F8000
3F003F0000
1F007E0000
0F81F80000
03FFE00000
00FF000000
ENDCHAR
STARTCHAR 020F
ENCODING 527
SWIDTH 480 0
DWIDTH 24 0
BBX 23 34 1 0
BITMAP
0003C0
001FF8
003FF8
007FFC
00F03C
00E01C
01C00C
01800C
000000
000000
000000
000000
003FE0
00F0F8
01E07C
07C07C
0FC07E
0F807E
1F807E
3F00FE
3F00FE
7E00FE
7E00FE
FE00FC
FE01FC
FC01F8
FC01F8
FC03F0
FC03F0
FC07E0
7C07C0
7C0F80
3E1E00
0FF800
ENDCHAR
STARTCHAR 0210
ENCODING 528
SWIDTH 660 0
DWIDTH 33 0
BBX 33 44 0 0
BITMAP
000F0F0000
001F0F0000
000F8F8000
000F8F8000
0007C78000
0003C3C000
0001E1C000
0000E0C000
000070E000
0000000000
0000000000
01FFFFC000
00FFFFF800
001FE1FE00
001FC0FF00
003FC07F80
003FC07F80
003F807F80
003F807F80
007F807F80
007F807F80
007F00FF00
007F00FF00
00FF01FE00
00FF03FC00
00FE07F800
01FFFFE000
01FFFE0000
01FCFF0000
01FC7F0000
03FC7F8000
03FC7F8000
03F83F8000
03F83FC000
07F83FC000
07F81FC000
07F01FE000
0FF01FE000
0FF00FE000
0FF00FF000
0FE00FF000
1FF007F800
7FFC07FE00
FFFE07FF00
ENDCHAR
STARTCHAR 0211
ENCODING 529
SWIDTH 400 0
DWIDTH 20 0
BBX 20 35 1 0
BITMAP
0C0600
1E0F00
1F1F00
1F0F00
0F8F80
078780
03C380
01C1C0
00E1C0
000000
000000
000000
000000
03F1E0
3FE3F0
1FE7F0
07EFF0
0FD9E0
0FD000
0FF000
0FA000
1FC000
1FC000
1FC000
1F8000
3F8000
3F0000
3F0000
7F0000
7E0000
7E0000
7E0000
FC0000
FC0000
FC0000
ENDCHAR
STARTCHAR 0212
ENCODING 530
SWIDTH 660 0
DWIDTH 33 0
BBX 33 45 0 0
BITMAP
0000010000
00001FE000
00007FF000
0000FFF800
0001F07800
0001C03800
0003801800
0003001800
0000000000
0000000000
0000000000
0000000000
01FFFFC000
00FFFFF800
001FE1FE00
001FC0FF00
003FC07F80
003FC07F80
003F807F80
003F807F80
007F807F80
007F807F80
007F00FF00
007F00FF00
00FF01FE00
00FF03FC00
00FE07F800
01FFFFE000
01FFFE0000
01FCFF0000
01FC7F0000
03FC7F8000
03FC7F8000
03F83F8000
03F83FC000
07F83FC000
07F81FC000
07F01FE000
0FF01FE000
0FF00FE000
0FF00FF000
0FE00FF000
1FF007F800
7FFC07FE00
FFFE07FF00
ENDCHAR
STARTCHAR 0213
ENCODING 531
SWIDTH 400 0
DWIDTH 20 0
BBX 20 34 1 0
BITMAP
001E00
00FF80
01FFC0
03FFE0
0781E0
0E00E0
0E00E0
0C0060
000000
000000
000000
000000
03F1E0
3FE3F0
1FE7F0
07EFF0
0FD9E0
0FD000
0FF000
0FA000
1FC000
1FC000
1FC000
1F8000
3F8000
3F0000
3F0000
7F0000
7E0000
7E0000
7E0000
FC0000
FC0000
FC0000
ENDCHAR
STARTCHAR 0214
ENCODING 532
SWIDTH 720 0
DWIDTH 36 0
BBX 34 45 5 -1
BITMAP
003C3C0000
003C3E0000
003E3E0000
003E3E0000
001F1E0000
000F0F0000
0007870000
0003830000
0001C38000
0000000000
0000000000
3FFFC0FFC0
1FFF007F80
07FC001E00
03F8000E00
07F8000C00
07F8001C00
07F0001800
07F0001800
0FF0001800
0FE0001000
0FE0003000
1FE0003000
1FE0003000
1FC0006000
1FC0006000
3FC0006000
3F80004000
3F8000C000
7F8000C000
7F8000C000
7F00018000
7F00018000
FF00018000
FE00030000
FE00030000
FE00030000
FE00060000
FE000E0000
FE000C0000
7F00180000
3F80780000
1FFFE00000
0FFFC00000
01FE000000
ENDCHAR
STARTCHAR 0215
ENCODING 533
SWIDTH 540 0
DWIDTH 27 0
BBX 23 35 2 0
BITMAP
020300
078780
0F87C0
07C7C0
07C3C0
03E3C0
01E1E0
00F0E0
003060
000000
000000
000000
002000
07E07E
7FC07E
3FC07C
0FC0FC
0F80FC
1F80FC
1F81F8
1F81F8
1F01F8
3F03F0
3F03F0
3E07F0
7E07F0
7E0FE0
7E0FE0
7C1FE0
FC37C2
FC6FC4
FCCFCC
FF8FF8
FF8FF0
7E07E0
ENDCHAR
STARTCHAR 0216
ENCODING 534
SWIDTH 720 0
DWIDTH 36 0
BBX 34 46 5 -1
BITMAP
0000040000
00007FC000
0000FFE000
0001FFE000
0003C1F000
0007807000
0007007000
0006007000
0000000000
0000000000
0000000000
0000000000
3FFFC0FFC0
1FFF007F80
07FC001E00
03F8000E00
07F8000C00
07F8001C00
07F0001800
07F0001800
0FF0001800
0FE0001000
0FE0003000
1FE0003000
1FE0003000
1FC0006000
1FC0006000
3FC0006000
3F80004000
3F8000C000
7F8000C000
7F8000C000
7F00018000
7F00018000
FF00018000
FE00030000
FE00030000
FE00030000
FE00060000
FE000E0000
FE000C0000
7F00180000
3F80780000
1FFFE00000
0FFFC00000
01FE000000
ENDCHAR
STARTCHAR 0217
ENCODING 535
SWIDTH 540 0
DWIDTH 27 0
BBX 23 34 2 0
BITMAP
0003C0
001FF0
003FF8
007FFC
00F03C
01C01C
01801C
01801C
000000
000000
000000
002000
07E07E
7FC07E
3FC07C
0FC0FC
0F80FC
1F80FC
1F81F8
1F81F8
1F01F8
3F03F0
3F03F0
3E07F0
7E07F0
7E0FE0
7E0FE0
7C1FE0
FC37C2
FC6FC4
FCCFCC
FF8FF8
FF8FF0
7E07E0
ENDCHAR
STARTCHAR 0218
ENCODING 536
SWIDTH 500 0
DWIDTH 25 0
BBX 26 49 0 -15
BITMAP
000FC040
007FFDC0
00F81FC0
01F007C0
03F007C0
03E00380
07E00380
07E00180
07E00180
07F00180
07F00000
07F80000
03FC0000
03FF0000
01FF8000
01FFC000
00FFE000
007FF000
003FF800
000FFC00
0007FC00
0003FC00
0001FE00
0000FE00
2000FE00
30007E00
30007E00
70007E00
70007E00
78007C00
7800FC00
7C01F800
7E03F000
E7FFC000
C0FF0000
00000000
00000000
00F00000
01F80000
03F80000
03F80000
03F80000
01F80000
00380000
00700000
00E00000
01C00000
07000000
04000000
ENDCHAR
STARTCHAR 0219
ENCODING 537
SWIDTH 360 0
DWIDTH 18 0
BBX 17 37 0 -14
BITMAP
03FD80
078F80
0F0780
1F0380
1F0380
1F0180
1F8100
1FC000
0FE000
0FF000
07F000
07F800
03FC00
01FC00
00FE00
407E00
607E00
603E00
E03C00
F03C00
F87800
FFE000
800000
000000
000000
0F0000
1F8000
3F8000
3F8000
3F8000
1F8000
038000
070000
0E0000
1C0000
700000
400000
ENDCHAR
STARTCHAR 021A
ENCODING 538
SWIDTH 600 0
DWIDTH 30 0
BBX 28 48 5 -15
BITMAP
3FFFFFF0
3FFFFFF0
7F0FE1F0
7C0FE0F0
701FE070
601FC070
E01FC030
C01FC030
803FC020
003F8000
003F8000
007F8000
007F0000
007F0000
007F0000
00FF0000
00FE0000
00FE0000
01FE0000
01FC0000
01FC0000
01FC0000
03FC0000
03F80000
03F80000
03F80000
07F80000
07F00000
07F00000
0FF00000
0FF00000
3FFE0000
FFFF0000
00000000
00000000
00000000
0F000000
1F800000
3F800000
3F800000
3F800000
1F800000
03800000
07000000
0E000000
1C000000
70000000
40000000
ENDCHAR
STARTCHAR 021B
ENCODING 539
SWIDTH 280 0
DWIDTH 14 0
BBX 17 44 -1 -15
BITMAP
000300
000600
000E00
001E00
003E00
007C00
01FC00
07FF80
07FF80
01F800
01F800
01F000
03F000
03F000
03F000
07E000
07E000
07E000
07C000
0FC000
0FC000
0FC000
0F8400
1F8400
1F8800
1F9800
1FF000
1FE000
0FC000
000000
000000
000000
1E0000
3F0000
7F0000
7F0000
7F0000
3F0000
070000
0E0000
1C0000
380000
E00000
800000
ENDCHAR
STARTCHAR 021C
ENCODING 540
SWIDTH 500 0
DWIDTH 25 0
BBX 24 36 1 -2
BITMAP
00C000
009FF8
01FFFC
01FFFE
01E1FE
01C0FF
01807F
01807F
03007F
03007E
0200FE
0000FE
0001FC
0001F8
0003F8
0007F0
000FE0
001FF0
007FF8
01FFFC
0FFBFC
1FC3FC
1E03FC
0003FC
0003F8
0007F8
0007F0
000FF0
001FE0
003FC0
00FF00
03FE00
0FF800
FFE000
FF0000
F00000
ENDCHAR
STARTCHAR 021D
ENCODING 541
SWIDTH 480 0
DWIDTH 24 0
BBX 22 34 0 -12
BITMAP
060200
07FFE0
0FFFF0
0FFFF8
0FFFF8
0F03FC
1C03F8
1803F8
0803F8
0003F0
0007F0
0007E0
000FE0
001FC0
003FE0
00FFF0
03FFF8
0FFFF8
1FE3F8
1F03F8
0003F8
0003F8
0007F0
0007F0
000FE0
000FC0
001F80
007F00
00FE00
03F800
1FE000
FF8000
FC0000
C00000
ENDCHAR
STARTCHAR 021E
ENCODING 542
SWIDTH 760 0
DWIDTH 38 0
BBX 41 44 0 0
BITMAP
00001C01E000
00000E038000
00000F0F8000
0000079F0000
000007FE0000
000003FC0000
000003F80000
000001F00000
000000000000
000000000000
000000000000
01FFFE3FFF80
00FFF81FFF00
001FE003FC00
001FC003FC00
003FC003F800
003FC007F800
003F8007F800
003F8007F000
007F8007F000
007F000FF000
007F000FE000
007F000FE000
00FF000FE000
00FE001FE000
00FE001FC000
01FFFFFFC000
01FFFFFFC000
01FC003FC000
01FC003F8000
03FC003F8000
03F8007F8000
03F8007F0000
03F8007F0000
07F8007F0000
07F000FF0000
07F000FE0000
0FF000FE0000
0FF001FE0000
0FE001FE0000
0FE001FC0000
1FE003FE0000
7FF81FFF0000
FFFE3FFFC000
ENDCHAR
STARTCHAR 021F
ENCODING 543
SWIDTH 540 0
DWIDTH 27 0
BBX 29 45 1 0
BITMAP
00070038
00038070
0003C1E0
0001E3C0
0001F7C0
0000FF80
0000FF00
00007E00
00007C00
00000000
00060000
00FE0000
07FE0000
01FC0000
00FC0000
00FC0000
00FC0000
01F80000
01F80000
01F80000
01F80000
03F00000
03F00000
03F07E00
03E1FF00
07E3FF00
07E73F00
07EE3F00
0FCC3F00
0FD83F00
0FF07E00
0FE07E00
1FE07E00
1FC0FE00
1FC0FC00
1F80FC00
3F81FC00
3F01F800
3F01F880
7F03F880
7E03F180
7E03F300
7E03FE00
FC03FC00
FC01F800
ENDCHAR
STARTCHAR 0220
ENCODING 544
SWIDTH 720 0
DWIDTH 36 0
BBX 38 44 0 -10
BITMAP
0000000FE0
003FFC7FF8
000FFDFFF8
0007FBC1FC
0007FF01FC
0007FC01FC
0007F801FC
000FF001FC
000FF001FC
000FE003FC
000FE003F8
001FE003F8
001FE003F8
001FC007F8
003FC007F0
003FC007F0
003F800FF0
007F800FE0
007F800FE0
007F001FE0
007F001FE0
00FF001FC0
00FF001FC0
00FE003FC0
01FE003F80
01FE003F80
01FC007F80
03FC007F00
03FC007F00
03F800FF00
07F800FF00
0FF800FE00
7FFF00FE00
FFFF81FE00
000001FC00
000001FC00
000003FC00
000003F800
000003F800
000007F800
000007F800
00000FF800
00007FFE00
0000FFFF00
ENDCHAR
STARTCHAR 0221
ENCODING 545
SWIDTH 560 0
DWIDTH 28 0
BBX 26 46 0 -11
BITMAP
00000040
00000FC0
00007FC0
00003FC0
00001F80
00001F80
00001F80
00003F80
00003F00
00003F00
00003F00
00007E00
00007E00
003FFE00
00FFFE00
01F0FC00
03E07C00
07E0FC00
0FC0FC00
1F81F800
1F81F800
3F01F800
3F03F800
7E03F000
7E03F000
7E07F000
FE07F000
FC0FE000
FC0FE000
FC1BE000
FC1FE000
FE77E000
7FE7C000
7FC7C000
3F87FC00
003FFF00
00FFFF80
03FFFF80
0FFF8780
1FDF87C0
7E1F0780
F81F0780
E01F0F80
C01FBF00
000FFE00
0007F000
ENDCHAR
STARTCHAR 0222
ENCODING 546
SWIDTH 560 0
DWIDTH 28 0
BBX 29 35 1 -1
BITMAP
000F0000
00780FE0
01F003F0
07E001F8
0FE000F8
0FC000F8
1FC000F8
1FC000F8
1FE001F0
1FE001F0
1FF003E0
1FF80780
0FFC0F00
07FF3C00
07FFE000
01FFE000
00FFF000
007FF800
01DFFC00
0787FC00
0F03FE00
1E01FE00
3C00FE00
7C00FE00
78007E00
F8007E00
F8007C00
F8007C00
F8007800
F800F800
7800F000
7C01E000
3E078000
1FFF0000
07F80000
ENDCHAR
STARTCHAR 0223
ENCODING 547
SWIDTH 500 0
DWIDTH 25 0
BBX 28 34 1 0
BITMAP
000003C0
00180FE0
00703FF0
01E001F0
03C000F0
03C000F0
07C000F0
07C000E0
07C001E0
07E001C0
07E00380
03F00600
03FC1C00
01FE7000
00FFC000
007FC000
003FE000
007FF000
01CFF800
0787F800
0E03FC00
1C01FC00
3C01FC00
7800FC00
7800FC00
F800F800
F800F800
F800F800
F801F000
F801E000
7803C000
7C078000
3E0E0000
0FF80000
ENDCHAR
ENDFONT
